{"glyphs":{"0":{"ha":625,"x_min":181,"x_max":746,"o":"m 407 4 q 372 11 397 4 q 319 28 346 18 q 276 51 292 39 q 208 141 229 92 q 184 242 188 190 q 188 339 181 293 q 251 516 203 428 q 368 663 300 604 q 440 717 404 694 q 518 749 476 739 q 562 753 533 753 q 600 754 590 754 q 662 742 628 754 q 721 715 696 731 q 746 685 746 699 q 744 665 746 675 q 732 661 743 656 l 718 661 l 732 619 q 742 590 738 608 q 746 556 746 571 q 742 515 746 542 q 733 457 739 488 q 720 400 726 426 q 708 361 714 374 q 703 345 704 353 q 703 332 703 338 q 685 293 697 321 q 667 254 672 265 q 658 244 661 249 q 660 235 654 240 q 653 216 660 231 q 638 189 646 201 q 626 176 631 176 q 623 176 626 176 q 619 171 619 175 q 601 142 619 165 q 557 93 582 118 q 513 58 543 79 q 452 20 482 36 q 407 4 422 4 m 404 138 q 433 142 419 138 q 457 157 447 147 q 505 201 482 174 q 543 265 528 229 q 567 309 558 286 q 596 388 576 332 q 611 425 607 403 q 615 463 615 447 q 616 504 615 478 q 622 549 617 531 q 621 591 622 585 q 610 608 619 597 q 595 617 604 613 q 576 621 586 621 q 551 616 567 621 q 524 604 535 611 q 502 603 514 599 q 490 614 490 607 q 472 612 490 633 q 422 553 453 590 q 380 502 397 528 q 363 471 363 476 q 358 457 363 465 q 350 438 354 449 q 333 406 343 428 q 315 362 324 383 q 303 329 306 340 q 303 299 303 324 q 303 254 303 275 q 304 219 303 231 q 309 201 306 208 q 319 181 313 194 q 337 158 325 171 q 353 139 349 144 q 373 128 368 125 q 404 138 378 132 z "},"1":{"ha":625,"x_min":235,"x_max":753,"o":"m 504 -25 q 484 -26 500 -28 q 451 -19 468 -25 q 424 -4 433 -12 q 413 9 418 1 q 408 36 407 17 q 417 99 408 56 q 431 157 422 126 q 446 210 439 188 q 453 232 453 232 q 473 274 460 235 q 503 368 486 313 q 522 433 508 388 q 550 522 536 479 q 574 585 563 563 q 585 607 585 607 q 568 597 585 607 q 525 571 551 588 q 469 532 499 554 q 416 494 446 518 q 361 454 386 469 q 310 417 324 425 q 285 415 297 408 q 251 460 267 431 q 243 504 235 490 q 262 517 246 506 q 299 543 278 528 q 337 571 319 558 q 361 588 354 583 q 376 597 365 588 q 400 615 388 607 q 449 653 407 624 q 539 718 490 682 q 631 769 590 750 q 676 788 671 789 q 697 778 681 788 q 728 756 713 768 q 744 735 743 743 q 736 690 753 725 q 718 645 731 678 q 691 570 706 613 q 663 487 676 528 q 642 417 650 446 q 622 350 631 374 q 605 305 613 326 q 588 246 597 283 q 567 190 578 224 q 549 123 557 156 q 536 69 540 90 q 518 10 525 39 q 504 -25 511 -19 z "},"2":{"ha":625,"x_min":160,"x_max":733,"o":"m 225 11 q 206 26 219 14 q 181 55 193 39 q 164 79 168 71 q 165 104 160 86 q 175 122 169 122 q 186 132 179 119 q 200 159 193 144 q 207 176 207 174 q 215 185 208 182 q 226 193 221 189 q 245 216 233 204 q 264 236 257 228 q 304 278 275 250 q 361 335 333 306 q 413 391 390 367 q 436 425 435 415 q 441 430 436 425 q 453 439 446 435 q 472 453 460 443 q 492 471 483 463 q 505 497 494 482 q 529 525 515 511 q 550 562 540 542 q 563 592 560 582 q 560 610 567 607 q 522 624 553 614 q 460 628 489 635 q 382 586 431 621 q 347 575 363 582 q 319 569 331 568 q 307 582 314 572 q 292 600 300 592 l 278 660 l 321 683 q 430 738 378 719 q 521 744 482 757 q 549 741 536 744 q 561 738 561 738 q 594 726 572 739 q 637 694 615 714 q 667 656 658 675 q 683 575 689 622 q 643 476 678 528 q 613 442 636 468 q 559 383 589 415 q 505 325 529 350 q 474 293 481 300 q 441 267 464 289 q 392 217 418 244 q 349 170 367 190 q 335 150 332 150 q 349 151 333 144 q 378 161 365 157 q 427 174 399 168 q 485 185 456 181 q 535 190 514 189 q 561 188 557 192 q 566 183 564 181 q 568 185 568 185 q 603 190 571 194 q 663 178 636 186 q 687 167 678 174 q 696 154 696 160 q 699 148 696 154 q 711 132 703 142 q 712 93 733 114 q 635 82 690 72 q 575 78 599 82 q 551 75 569 75 q 517 74 533 75 q 467 72 492 76 q 407 56 442 67 q 368 43 394 51 q 311 26 342 35 q 256 14 281 18 q 225 11 232 10 z "},"3":{"ha":625,"x_min":200,"x_max":735,"o":"m 339 1 q 272 15 304 1 q 219 46 239 28 q 201 81 200 64 q 217 115 203 103 q 261 124 231 128 q 357 117 308 114 q 448 136 406 121 q 517 178 490 151 q 556 240 554 214 q 517 292 557 265 q 472 315 499 304 q 420 333 446 326 q 375 338 394 339 q 344 342 363 336 q 308 358 326 349 q 293 390 300 368 q 283 418 286 413 q 293 435 282 425 q 338 465 304 444 q 435 519 371 485 q 524 569 493 551 q 573 597 556 586 q 603 618 590 607 q 618 647 619 638 q 581 664 617 657 q 525 665 546 667 q 504 657 504 663 q 503 657 504 657 q 499 657 503 657 q 468 656 492 660 q 423 646 444 651 q 400 636 401 640 q 381 627 399 633 q 347 617 364 621 q 325 613 329 613 q 309 632 318 615 q 294 667 300 649 q 292 693 289 686 q 312 710 294 699 q 351 735 329 722 q 389 756 374 749 q 447 766 408 761 q 523 774 485 771 q 578 776 561 778 q 681 744 642 769 q 731 663 719 718 q 731 622 735 643 q 713 581 726 601 q 671 535 699 560 q 617 498 636 513 q 567 468 599 483 q 536 453 557 461 q 497 438 515 444 q 479 428 479 431 q 492 426 479 428 q 522 420 506 424 q 544 410 538 417 q 619 362 585 396 q 667 308 653 328 q 672 215 686 265 q 620 119 657 164 q 535 44 583 74 q 440 13 496 22 q 339 1 383 4 z "},"4":{"ha":625,"x_min":215,"x_max":769,"o":"m 460 -17 q 433 3 454 -17 q 411 61 411 22 q 426 152 413 104 q 451 238 439 200 q 466 279 460 263 q 472 300 472 296 q 458 297 471 300 q 425 290 444 294 q 322 276 357 276 q 261 318 286 276 q 239 349 253 326 q 220 397 225 371 q 233 442 215 424 q 256 492 247 476 q 267 514 264 507 q 271 528 271 521 q 275 536 272 531 q 282 547 278 542 q 317 601 294 568 q 366 669 340 635 q 413 730 392 703 q 443 765 433 757 q 473 778 451 769 q 504 786 494 786 q 526 772 515 786 q 543 742 536 757 q 550 721 550 726 q 549 718 550 721 q 543 708 547 715 q 527 686 538 700 q 497 650 517 672 q 456 594 481 631 q 406 516 431 557 q 365 443 382 475 q 349 400 349 411 q 353 390 349 393 q 372 386 358 386 q 405 392 390 389 q 432 397 419 394 q 458 403 447 400 q 479 410 469 407 q 499 417 490 414 q 515 426 508 421 q 540 464 532 440 q 567 528 549 488 q 590 578 578 556 q 611 621 601 601 q 669 715 646 685 q 696 744 693 744 q 715 733 700 744 q 744 710 731 722 q 763 692 756 700 q 769 682 769 685 q 762 648 769 665 q 740 608 754 631 q 708 551 726 586 q 669 472 688 511 q 635 394 651 432 q 604 319 618 356 q 578 251 590 283 q 536 131 547 169 q 526 77 525 92 q 531 53 526 63 q 519 19 531 35 q 492 -7 508 3 q 460 -17 475 -17 z "},"5":{"ha":603,"x_min":185,"x_max":703,"o":"m 238 22 q 213 53 213 40 q 200 61 207 61 q 192 75 196 60 q 187 108 189 90 q 186 132 185 126 q 208 149 192 143 q 240 153 224 154 q 257 142 256 153 q 278 124 260 131 q 328 118 297 117 q 399 131 367 119 q 459 163 432 142 q 508 213 486 183 q 526 264 518 232 q 538 321 535 296 q 533 346 540 346 q 531 356 533 346 q 525 376 529 365 q 493 419 518 397 q 444 450 468 440 q 404 450 435 453 q 353 444 374 447 q 327 445 331 443 q 324 447 324 447 q 301 461 317 449 q 272 488 285 474 q 258 508 258 501 q 274 542 261 518 q 305 593 286 565 q 343 647 324 621 q 379 690 363 674 q 479 759 421 736 q 594 779 538 782 q 655 769 635 778 q 692 738 675 760 q 700 697 703 718 q 686 665 697 676 q 658 663 675 654 q 606 672 639 675 q 535 658 572 669 q 488 640 506 647 q 463 617 469 632 q 455 608 457 613 q 447 606 453 604 q 443 601 447 606 q 439 590 439 596 q 430 578 432 582 q 422 581 428 575 q 422 576 422 581 q 421 567 422 572 q 427 553 419 557 q 461 547 435 550 q 513 537 496 542 q 565 511 531 532 q 623 445 604 489 q 645 349 642 401 q 642 250 649 297 q 633 203 638 219 q 610 157 629 186 q 528 78 578 113 q 422 25 478 44 q 317 3 367 6 q 238 22 268 1 z "},"6":{"ha":654,"x_min":182,"x_max":732,"o":"m 413 22 q 326 13 367 10 q 256 44 285 17 q 216 86 236 60 q 192 140 196 113 q 183 174 185 161 q 185 204 182 186 q 196 260 189 222 q 215 338 207 310 q 249 401 224 367 q 274 460 260 431 q 296 499 289 490 q 317 528 303 508 q 346 564 331 547 q 372 598 360 582 q 383 614 383 614 q 397 622 390 618 q 410 636 403 626 q 446 667 421 649 q 503 706 471 686 q 565 738 535 725 q 618 754 596 751 q 660 753 663 769 q 674 738 660 753 q 700 721 689 724 q 709 712 706 719 q 717 697 713 704 q 706 667 719 686 q 672 631 692 649 q 645 615 653 617 q 632 619 638 614 q 626 627 633 625 q 619 629 619 629 q 588 624 611 632 q 540 601 565 617 q 493 563 514 585 q 471 540 481 551 q 458 524 461 529 q 426 488 440 506 q 413 471 413 471 q 433 467 417 463 q 450 476 449 471 q 481 491 450 482 q 544 503 513 500 q 578 504 557 508 q 614 497 600 500 q 656 486 644 492 q 683 460 667 481 q 722 403 711 433 q 731 336 732 372 q 726 297 731 314 q 707 263 722 281 q 678 217 696 244 q 642 168 660 190 q 613 138 625 146 q 602 131 607 135 q 597 128 597 128 q 576 105 596 119 q 526 73 556 90 q 465 42 496 56 q 413 22 435 28 m 329 129 q 363 126 351 126 q 404 138 374 125 q 424 143 415 140 q 436 144 432 146 q 453 156 436 144 q 493 182 471 168 q 590 270 558 222 q 615 351 622 318 q 613 370 617 360 q 608 383 608 381 q 597 386 606 383 q 575 390 588 389 q 549 394 561 394 q 510 390 536 394 q 429 371 485 385 q 409 365 419 369 q 388 357 399 360 q 374 347 385 353 q 356 339 363 342 q 332 317 342 338 q 308 235 322 296 q 299 178 301 192 q 303 154 297 164 q 313 136 306 140 q 329 129 319 132 z "},"7":{"ha":619,"x_min":254,"x_max":742,"o":"m 329 -36 q 290 -12 313 -33 q 260 28 268 8 q 282 120 254 54 q 357 275 310 186 q 388 333 388 325 q 360 342 388 342 q 326 349 347 344 q 300 360 304 354 q 274 384 278 371 q 283 399 271 397 q 292 417 297 406 q 290 436 288 429 q 301 435 297 436 q 317 432 306 435 q 353 431 336 432 q 386 429 371 429 q 403 429 393 429 q 422 428 414 429 q 449 431 442 425 q 475 463 456 438 q 504 505 486 482 q 540 563 522 528 q 594 656 589 632 q 572 676 600 679 q 523 666 550 674 q 443 639 496 658 q 383 620 404 624 q 346 625 361 617 q 333 642 338 626 q 327 676 328 657 q 328 704 326 694 q 385 738 331 719 q 510 774 439 756 q 582 781 542 779 q 655 778 622 782 q 693 763 688 774 q 697 759 693 763 q 701 761 700 756 q 710 751 707 760 q 721 728 713 742 q 738 693 735 704 q 738 661 742 682 q 724 631 733 646 q 708 611 714 615 q 698 599 701 606 q 694 592 694 592 q 686 581 693 586 q 672 568 679 576 q 666 556 671 563 q 660 544 661 549 q 649 528 658 543 q 626 494 639 514 q 603 458 614 475 q 588 435 592 442 q 568 408 568 417 q 586 392 568 400 q 625 369 610 382 q 646 336 640 356 q 635 299 647 304 q 612 285 628 289 q 592 286 596 281 q 573 302 588 294 q 544 314 558 310 q 526 318 531 318 q 515 308 521 315 q 503 292 510 300 q 478 249 493 278 q 447 194 463 221 q 424 153 432 167 q 416 139 422 146 q 407 122 410 132 q 397 94 401 113 q 393 60 393 75 q 397 44 393 46 q 413 42 408 47 q 421 26 418 38 q 410 1 428 17 q 369 -27 393 -15 q 329 -36 344 -39 z "},"8":{"ha":625,"x_min":150,"x_max":767,"o":"m 253 -65 q 226 -53 243 -64 q 193 -28 210 -42 q 168 -8 176 -15 q 154 28 158 15 q 154 69 150 40 q 158 108 154 86 q 171 144 161 131 q 202 210 181 172 q 249 285 224 247 q 298 353 275 322 q 332 399 321 385 q 347 431 347 418 q 318 482 346 444 q 306 505 313 497 q 304 513 299 513 q 301 517 304 513 q 293 532 297 522 q 273 592 272 551 q 293 671 274 632 q 353 757 315 721 q 432 799 390 793 q 485 790 447 797 q 565 775 524 783 q 629 756 606 767 q 673 731 646 749 q 722 694 700 713 q 746 668 744 676 q 751 659 746 664 q 757 647 756 654 q 766 606 765 632 q 763 554 767 579 q 750 517 758 529 q 701 472 715 478 q 685 458 694 467 q 665 447 676 450 q 652 431 658 438 q 640 424 646 424 q 629 428 635 428 q 624 424 624 429 q 605 411 624 421 q 567 394 586 401 q 542 390 547 388 q 538 390 542 390 q 525 385 533 390 q 546 340 507 388 q 594 226 578 281 q 589 142 610 171 q 532 44 563 82 q 483 7 501 6 q 477 3 483 7 q 464 -6 471 -1 q 452 -19 461 -15 q 436 -21 443 -22 q 393 -35 424 -15 q 346 -56 375 -47 q 290 -67 317 -64 q 253 -65 263 -69 m 285 40 q 322 47 299 39 q 370 69 344 56 q 417 97 396 83 q 477 167 461 132 q 479 236 493 201 q 461 272 471 253 q 444 303 451 292 q 430 321 436 315 q 417 331 424 326 q 410 322 417 331 q 397 297 404 313 q 379 274 382 278 q 371 260 376 269 q 353 242 361 250 q 340 229 344 233 q 332 205 340 225 q 313 165 324 185 q 274 78 282 113 q 285 40 267 43 m 500 493 q 546 524 529 519 q 571 513 563 528 q 598 520 574 507 q 644 557 622 533 q 649 572 653 572 q 643 594 646 572 q 643 617 644 608 q 631 633 642 625 q 590 653 619 642 q 458 673 504 683 q 394 614 413 663 q 386 571 386 588 q 397 531 386 554 q 414 516 410 525 q 418 507 418 507 q 429 494 418 494 q 449 479 432 488 q 500 493 465 471 z "},"9":{"ha":608,"x_min":265,"x_max":744,"o":"m 433 -58 q 413 -49 426 -57 q 389 -32 400 -42 q 378 -19 378 -22 q 372 -12 379 -12 q 369 -3 372 -12 q 368 15 367 6 q 369 36 368 19 q 371 63 371 53 q 385 136 374 90 q 411 233 396 182 q 440 324 426 283 q 458 385 460 374 q 422 393 456 396 q 343 407 379 386 q 286 466 307 428 q 268 544 265 504 q 277 583 269 565 q 303 631 285 600 q 373 713 332 674 q 458 779 414 751 q 539 814 503 807 q 592 817 561 818 q 639 808 622 815 q 685 772 660 800 q 727 714 710 744 q 740 667 744 683 q 718 597 731 621 q 688 554 706 574 q 635 483 665 535 q 576 366 606 432 q 524 236 546 300 q 499 131 504 178 q 504 82 494 83 q 524 78 510 82 q 543 74 538 74 q 547 61 547 68 q 540 39 547 54 q 522 13 536 29 q 488 -20 507 -4 q 454 -47 469 -36 q 433 -58 439 -58 m 393 513 q 443 494 414 490 q 504 524 472 497 q 565 596 536 550 q 587 627 582 615 q 597 643 592 639 q 622 674 615 663 q 619 694 629 685 q 599 711 610 710 q 554 700 588 713 q 520 686 532 696 q 479 657 508 676 q 468 651 474 651 q 457 651 463 650 q 454 651 457 651 q 451 644 451 650 q 435 613 458 632 q 389 551 399 574 q 393 513 379 528 z "},"A":{"ha":710,"x_min":56,"x_max":792,"o":"m 85 -46 q 58 -15 60 -32 q 76 43 56 1 q 142 172 97 85 q 187 270 175 235 q 200 321 199 306 q 201 340 201 336 q 204 360 199 353 q 222 374 210 368 q 254 399 229 381 q 293 442 279 417 q 322 501 306 471 q 364 578 338 532 q 435 700 390 625 q 501 810 463 749 q 576 921 539 871 q 608 951 592 940 q 638 963 625 963 q 699 947 668 963 q 753 907 729 931 q 785 863 776 883 q 790 815 792 851 q 785 728 789 779 q 775 618 781 676 q 763 483 771 561 q 747 321 754 406 q 735 158 739 236 q 735 21 731 79 q 735 -3 736 8 q 733 -21 733 -14 q 697 -28 725 -29 q 643 -19 669 -28 q 614 1 617 -11 q 608 8 610 6 q 608 35 607 11 q 613 125 610 60 l 619 338 l 601 336 q 556 333 589 336 q 485 326 524 331 q 415 316 447 321 q 371 307 383 311 q 341 290 358 307 q 308 247 324 274 q 288 206 303 228 q 274 178 274 185 q 258 161 264 171 q 251 151 251 151 q 240 110 251 143 q 209 38 228 78 q 171 -31 190 -1 l 133 -83 l 85 -46 m 417 432 q 432 435 417 432 q 469 441 447 438 q 507 444 490 444 q 560 457 539 453 q 596 462 582 461 q 618 458 610 463 q 628 450 624 451 q 633 449 633 449 q 639 478 635 451 q 649 543 643 504 q 660 624 654 582 q 669 703 665 667 q 675 761 674 740 q 674 809 676 788 q 671 831 671 831 q 640 801 663 831 q 587 722 617 771 q 528 615 557 672 q 502 574 514 589 q 483 558 490 558 q 469 537 481 556 q 444 495 457 518 q 422 453 431 472 q 417 432 413 435 z "},"Á":{"ha":697,"x_min":50,"x_max":861,"o":"m 79 -46 q 52 -15 54 -32 q 71 43 50 1 q 136 172 92 85 q 181 270 169 235 q 194 321 193 306 q 196 340 196 336 q 199 360 193 353 q 217 374 204 368 q 249 399 224 381 q 288 442 274 417 q 316 501 300 471 q 358 578 332 532 q 429 700 385 625 q 495 810 457 749 q 571 921 533 871 q 603 951 586 940 q 632 963 619 963 q 693 947 663 963 q 747 907 724 931 q 779 863 771 883 q 785 815 786 851 q 779 728 783 779 q 769 618 775 676 q 757 483 765 561 q 741 321 749 406 q 729 158 733 236 q 729 21 725 79 q 729 -3 731 8 q 728 -21 728 -14 q 692 -28 719 -29 q 638 -19 664 -28 q 608 1 611 -11 q 603 8 604 6 q 603 35 601 11 q 607 125 604 60 l 614 338 l 596 336 q 551 333 583 336 q 480 326 518 331 q 410 316 442 321 q 365 307 378 311 q 335 290 353 307 q 303 247 318 274 q 283 206 297 228 q 268 178 268 185 q 252 161 258 171 q 246 151 246 151 q 234 110 246 143 q 203 38 222 78 q 165 -31 185 -1 l 128 -83 l 79 -46 m 411 432 q 426 435 411 432 q 463 441 442 438 q 501 444 485 444 q 555 457 533 453 q 590 462 576 461 q 613 458 604 463 q 623 450 618 451 q 628 449 628 449 q 633 478 629 451 q 643 543 638 504 q 654 624 649 582 q 664 703 660 667 q 669 761 668 740 q 668 809 671 788 q 665 831 665 831 q 634 801 657 831 q 581 722 611 771 q 522 615 551 672 q 497 574 508 589 q 478 558 485 558 q 463 537 475 556 q 438 495 451 518 q 416 453 425 472 q 411 432 407 435 m 667 992 q 652 1016 657 1001 q 649 1065 647 1031 q 667 1093 650 1072 q 709 1140 685 1114 q 758 1188 733 1167 q 799 1214 783 1208 q 837 1200 817 1221 q 858 1147 857 1179 q 846 1119 861 1136 q 807 1083 831 1101 q 761 1045 783 1064 q 728 1011 739 1026 q 698 985 714 989 q 667 992 682 982 z "},"Ă":{"ha":697,"x_min":50,"x_max":919,"o":"m 79 -46 q 52 -15 54 -32 q 71 43 50 1 q 136 172 92 85 q 181 270 169 235 q 194 321 193 306 q 196 340 196 336 q 199 360 193 353 q 217 374 204 368 q 249 399 224 381 q 288 442 274 417 q 316 501 300 471 q 358 578 332 532 q 429 700 385 625 q 495 810 457 749 q 571 921 533 871 q 603 951 586 940 q 632 963 619 963 q 693 947 663 963 q 747 907 724 931 q 779 863 771 883 q 785 815 786 851 q 779 728 783 779 q 769 618 775 676 q 757 483 765 561 q 741 321 749 406 q 729 158 733 236 q 729 21 725 79 q 729 -3 731 8 q 728 -21 728 -14 q 692 -28 719 -29 q 638 -19 664 -28 q 608 1 611 -11 q 603 8 604 6 q 603 35 601 11 q 607 125 604 60 l 614 338 l 596 336 q 551 333 583 336 q 480 326 518 331 q 410 316 442 321 q 365 307 378 311 q 335 290 353 307 q 303 247 318 274 q 283 206 297 228 q 268 178 268 185 q 252 161 258 171 q 246 151 246 151 q 234 110 246 143 q 203 38 222 78 q 165 -31 185 -1 l 128 -83 l 79 -46 m 411 432 q 426 435 411 432 q 463 441 442 438 q 501 444 485 444 q 555 457 533 453 q 590 462 576 461 q 613 458 604 463 q 623 450 618 451 q 628 449 628 449 q 633 478 629 451 q 643 543 638 504 q 654 624 649 582 q 664 703 660 667 q 669 761 668 740 q 668 809 671 788 q 665 831 665 831 q 634 801 657 831 q 581 722 611 771 q 522 615 551 672 q 497 574 508 589 q 478 558 485 558 q 463 537 475 556 q 438 495 451 518 q 416 453 425 472 q 411 432 407 435 m 721 974 q 638 996 676 978 q 583 1049 600 1014 q 578 1138 565 1085 q 604 1190 586 1175 q 640 1202 622 1204 q 669 1185 658 1200 q 672 1146 679 1169 q 669 1113 668 1131 q 685 1082 669 1094 q 742 1071 700 1069 q 775 1084 760 1072 q 802 1113 790 1096 q 822 1143 814 1129 q 865 1195 846 1185 q 897 1197 883 1206 q 915 1168 910 1188 q 915 1129 919 1149 q 892 1074 910 1103 q 849 1021 875 1044 q 791 984 824 997 q 721 974 758 971 z "},"Â":{"ha":697,"x_min":50,"x_max":867,"o":"m 79 -46 q 52 -15 54 -32 q 71 43 50 1 q 136 172 92 85 q 181 270 169 235 q 194 321 193 306 q 196 340 196 336 q 199 360 193 353 q 217 374 204 368 q 249 399 224 381 q 288 442 274 417 q 316 501 300 471 q 358 578 332 532 q 429 700 385 625 q 495 810 457 749 q 571 921 533 871 q 603 951 586 940 q 632 963 619 963 q 693 947 663 963 q 747 907 724 931 q 779 863 771 883 q 785 815 786 851 q 779 728 783 779 q 769 618 775 676 q 757 483 765 561 q 741 321 749 406 q 729 158 733 236 q 729 21 725 79 q 729 -3 731 8 q 728 -21 728 -14 q 692 -28 719 -29 q 638 -19 664 -28 q 608 1 611 -11 q 603 8 604 6 q 603 35 601 11 q 607 125 604 60 l 614 338 l 596 336 q 551 333 583 336 q 480 326 518 331 q 410 316 442 321 q 365 307 378 311 q 335 290 353 307 q 303 247 318 274 q 283 206 297 228 q 268 178 268 185 q 252 161 258 171 q 246 151 246 151 q 234 110 246 143 q 203 38 222 78 q 165 -31 185 -1 l 128 -83 l 79 -46 m 411 432 q 426 435 411 432 q 463 441 442 438 q 501 444 485 444 q 555 457 533 453 q 590 462 576 461 q 613 458 604 463 q 623 450 618 451 q 628 449 628 449 q 633 478 629 451 q 643 543 638 504 q 654 624 649 582 q 664 703 660 667 q 669 761 668 740 q 668 809 671 788 q 665 831 665 831 q 634 801 657 831 q 581 722 611 771 q 522 615 551 672 q 497 574 508 589 q 478 558 485 558 q 463 537 475 556 q 438 495 451 518 q 416 453 425 472 q 411 432 407 435 m 593 1010 q 550 994 569 986 q 524 1024 531 1001 q 531 1067 518 1047 q 552 1088 535 1072 q 593 1125 569 1104 q 640 1163 617 1146 q 676 1189 663 1181 q 713 1201 694 1204 q 740 1185 732 1197 q 781 1148 757 1171 q 826 1102 804 1125 q 858 1065 849 1079 q 862 1031 867 1049 q 843 1001 857 1013 q 811 992 829 990 q 775 1018 793 994 q 744 1048 765 1026 q 703 1088 724 1069 q 664 1063 686 1078 q 622 1033 642 1047 q 593 1010 603 1018 z "},"Ȁ":{"ha":697,"x_min":50,"x_max":808,"o":"m 79 -46 q 52 -15 54 -32 q 71 43 50 1 q 136 172 92 85 q 181 270 169 235 q 194 321 193 306 q 196 340 196 336 q 199 360 193 353 q 217 374 204 368 q 249 399 224 381 q 288 442 274 417 q 316 501 300 471 q 358 578 332 532 q 429 700 385 625 q 495 810 457 749 q 571 921 533 871 q 603 951 586 940 q 632 963 619 963 q 693 947 663 963 q 747 907 724 931 q 779 863 771 883 q 785 815 786 851 q 779 728 783 779 q 769 618 775 676 q 757 483 765 561 q 741 321 749 406 q 729 158 733 236 q 729 21 725 79 q 729 -3 731 8 q 728 -21 728 -14 q 692 -28 719 -29 q 638 -19 664 -28 q 608 1 611 -11 q 603 8 604 6 q 603 35 601 11 q 607 125 604 60 l 614 338 l 596 336 q 551 333 583 336 q 480 326 518 331 q 410 316 442 321 q 365 307 378 311 q 335 290 353 307 q 303 247 318 274 q 283 206 297 228 q 268 178 268 185 q 252 161 258 171 q 246 151 246 151 q 234 110 246 143 q 203 38 222 78 q 165 -31 185 -1 l 128 -83 l 79 -46 m 411 432 q 426 435 411 432 q 463 441 442 438 q 501 444 485 444 q 555 457 533 453 q 590 462 576 461 q 613 458 604 463 q 623 450 618 451 q 628 449 628 449 q 633 478 629 451 q 643 543 638 504 q 654 624 649 582 q 664 703 660 667 q 669 761 668 740 q 668 809 671 788 q 665 831 665 831 q 634 801 657 831 q 581 722 611 771 q 522 615 551 672 q 497 574 508 589 q 478 558 485 558 q 463 537 475 556 q 438 495 451 518 q 416 453 425 472 q 411 432 407 435 m 582 979 q 560 980 568 972 q 544 1022 553 988 q 522 1068 536 1043 q 493 1117 507 1093 q 474 1163 479 1142 q 479 1197 469 1183 q 515 1228 494 1217 q 550 1229 535 1240 q 579 1193 564 1221 q 608 1132 594 1165 q 631 1073 622 1099 q 639 1043 639 1047 q 629 1022 640 1035 q 604 997 618 1008 q 582 979 590 985 m 753 981 q 731 979 738 974 q 715 1018 724 985 q 688 1070 703 1043 q 660 1121 672 1097 q 642 1164 647 1144 q 646 1194 638 1183 q 688 1231 669 1225 q 715 1231 706 1238 q 742 1200 728 1224 q 770 1147 757 1176 q 793 1088 783 1117 q 807 1040 803 1060 q 794 1017 808 1035 q 753 981 779 1000 z "},"Ä":{"ha":697,"x_min":50,"x_max":940,"o":"m 79 -46 q 52 -15 54 -32 q 71 43 50 1 q 136 172 92 85 q 181 270 169 235 q 194 321 193 306 q 196 340 196 336 q 199 360 193 353 q 217 374 204 368 q 249 399 224 381 q 288 442 274 417 q 316 501 300 471 q 358 578 332 532 q 429 700 385 625 q 495 810 457 749 q 571 921 533 871 q 603 951 586 940 q 632 963 619 963 q 693 947 663 963 q 747 907 724 931 q 779 863 771 883 q 785 815 786 851 q 779 728 783 779 q 769 618 775 676 q 757 483 765 561 q 741 321 749 406 q 729 158 733 236 q 729 21 725 79 q 729 -3 731 8 q 728 -21 728 -14 q 692 -28 719 -29 q 638 -19 664 -28 q 608 1 611 -11 q 603 8 604 6 q 603 35 601 11 q 607 125 604 60 l 614 338 l 596 336 q 551 333 583 336 q 480 326 518 331 q 410 316 442 321 q 365 307 378 311 q 335 290 353 307 q 303 247 318 274 q 283 206 297 228 q 268 178 268 185 q 252 161 258 171 q 246 151 246 151 q 234 110 246 143 q 203 38 222 78 q 165 -31 185 -1 l 128 -83 l 79 -46 m 411 432 q 426 435 411 432 q 463 441 442 438 q 501 444 485 444 q 555 457 533 453 q 590 462 576 461 q 613 458 604 463 q 623 450 618 451 q 628 449 628 449 q 633 478 629 451 q 643 543 638 504 q 654 624 649 582 q 664 703 660 667 q 669 761 668 740 q 668 809 671 788 q 665 831 665 831 q 634 801 657 831 q 581 722 611 771 q 522 615 551 672 q 497 574 508 589 q 478 558 485 558 q 463 537 475 556 q 438 495 451 518 q 416 453 425 472 q 411 432 407 435 m 797 1036 q 781 1067 788 1046 q 775 1094 774 1089 q 786 1124 778 1101 q 800 1151 794 1146 q 822 1177 807 1161 q 843 1194 838 1193 q 881 1203 858 1211 q 914 1172 903 1194 q 931 1110 940 1140 q 893 1053 921 1081 q 841 1013 865 1010 q 797 1036 817 1015 m 597 1022 q 568 1060 578 1036 q 561 1093 558 1083 q 579 1140 564 1113 q 604 1176 594 1168 q 617 1186 608 1179 q 633 1197 626 1193 q 667 1202 651 1210 q 695 1178 683 1194 q 711 1147 707 1163 q 713 1106 721 1129 q 683 1060 706 1083 q 641 1019 661 1031 q 597 1022 621 1007 z "},"À":{"ha":697,"x_min":50,"x_max":819,"o":"m 79 -46 q 52 -15 54 -32 q 71 43 50 1 q 136 172 92 85 q 181 270 169 235 q 194 321 193 306 q 196 340 196 336 q 199 360 193 353 q 217 374 204 368 q 249 399 224 381 q 288 442 274 417 q 316 501 300 471 q 358 578 332 532 q 429 700 385 625 q 495 810 457 749 q 571 921 533 871 q 603 951 586 940 q 632 963 619 963 q 693 947 663 963 q 747 907 724 931 q 779 863 771 883 q 785 815 786 851 q 779 728 783 779 q 769 618 775 676 q 757 483 765 561 q 741 321 749 406 q 729 158 733 236 q 729 21 725 79 q 729 -3 731 8 q 728 -21 728 -14 q 692 -28 719 -29 q 638 -19 664 -28 q 608 1 611 -11 q 603 8 604 6 q 603 35 601 11 q 607 125 604 60 l 614 338 l 596 336 q 551 333 583 336 q 480 326 518 331 q 410 316 442 321 q 365 307 378 311 q 335 290 353 307 q 303 247 318 274 q 283 206 297 228 q 268 178 268 185 q 252 161 258 171 q 246 151 246 151 q 234 110 246 143 q 203 38 222 78 q 165 -31 185 -1 l 128 -83 l 79 -46 m 411 432 q 426 435 411 432 q 463 441 442 438 q 501 444 485 444 q 555 457 533 453 q 590 462 576 461 q 613 458 604 463 q 623 450 618 451 q 628 449 628 449 q 633 478 629 451 q 643 543 638 504 q 654 624 649 582 q 664 703 660 667 q 669 761 668 740 q 668 809 671 788 q 665 831 665 831 q 634 801 657 831 q 581 722 611 771 q 522 615 551 672 q 497 574 508 589 q 478 558 485 558 q 463 537 475 556 q 438 495 451 518 q 416 453 425 472 q 411 432 407 435 m 754 978 q 735 983 740 971 q 727 1013 731 994 q 714 1046 724 1032 q 681 1101 700 1072 q 654 1158 663 1131 q 661 1201 646 1185 q 708 1235 692 1233 q 738 1221 724 1236 q 760 1190 747 1215 q 787 1132 774 1164 q 809 1074 800 1100 q 818 1039 818 1047 q 799 1010 819 1033 q 754 978 778 986 z "},"Ȃ":{"ha":697,"x_min":50,"x_max":890,"o":"m 79 -46 q 52 -15 54 -32 q 71 43 50 1 q 136 172 92 85 q 181 270 169 235 q 194 321 193 306 q 196 340 196 336 q 199 360 193 353 q 217 374 204 368 q 249 399 224 381 q 288 442 274 417 q 316 501 300 471 q 358 578 332 532 q 429 700 385 625 q 495 810 457 749 q 571 921 533 871 q 603 951 586 940 q 632 963 619 963 q 693 947 663 963 q 747 907 724 931 q 779 863 771 883 q 785 815 786 851 q 779 728 783 779 q 769 618 775 676 q 757 483 765 561 q 741 321 749 406 q 729 158 733 236 q 729 21 725 79 q 729 -3 731 8 q 728 -21 728 -14 q 692 -28 719 -29 q 638 -19 664 -28 q 608 1 611 -11 q 603 8 604 6 q 603 35 601 11 q 607 125 604 60 l 614 338 l 596 336 q 551 333 583 336 q 480 326 518 331 q 410 316 442 321 q 365 307 378 311 q 335 290 353 307 q 303 247 318 274 q 283 206 297 228 q 268 178 268 185 q 252 161 258 171 q 246 151 246 151 q 234 110 246 143 q 203 38 222 78 q 165 -31 185 -1 l 128 -83 l 79 -46 m 411 432 q 426 435 411 432 q 463 441 442 438 q 501 444 485 444 q 555 457 533 453 q 590 462 576 461 q 613 458 604 463 q 623 450 618 451 q 628 449 628 449 q 633 478 629 451 q 643 543 638 504 q 654 624 649 582 q 664 703 660 667 q 669 761 668 740 q 668 809 671 788 q 665 831 665 831 q 634 801 657 831 q 581 722 611 771 q 522 615 551 672 q 497 574 508 589 q 478 558 485 558 q 463 537 475 556 q 438 495 451 518 q 416 453 425 472 q 411 432 407 435 m 775 1026 q 782 1064 778 1044 q 776 1097 786 1083 q 728 1111 767 1111 q 690 1103 710 1113 q 650 1072 669 1093 q 611 1013 631 1050 q 575 979 593 982 q 545 996 557 976 q 532 1050 533 1015 q 566 1105 544 1076 q 615 1158 588 1133 q 672 1197 642 1183 q 733 1208 703 1211 q 828 1176 793 1203 q 877 1113 864 1150 q 881 1038 890 1075 q 841 979 867 990 q 794 983 815 968 q 775 1026 774 997 z "},"Ā":{"ha":697,"x_min":50,"x_max":906,"o":"m 79 -46 q 52 -15 54 -32 q 71 43 50 1 q 136 172 92 85 q 181 270 169 235 q 194 321 193 306 q 196 340 196 336 q 199 360 193 353 q 217 374 204 368 q 249 399 224 381 q 288 442 274 417 q 316 501 300 471 q 358 578 332 532 q 429 700 385 625 q 495 810 457 749 q 571 921 533 871 q 603 951 586 940 q 632 963 619 963 q 693 947 663 963 q 747 907 724 931 q 779 863 771 883 q 785 815 786 851 q 779 728 783 779 q 769 618 775 676 q 757 483 765 561 q 741 321 749 406 q 729 158 733 236 q 729 21 725 79 q 729 -3 731 8 q 728 -21 728 -14 q 692 -28 719 -29 q 638 -19 664 -28 q 608 1 611 -11 q 603 8 604 6 q 603 35 601 11 q 607 125 604 60 l 614 338 l 596 336 q 551 333 583 336 q 480 326 518 331 q 410 316 442 321 q 365 307 378 311 q 335 290 353 307 q 303 247 318 274 q 283 206 297 228 q 268 178 268 185 q 252 161 258 171 q 246 151 246 151 q 234 110 246 143 q 203 38 222 78 q 165 -31 185 -1 l 128 -83 l 79 -46 m 411 432 q 426 435 411 432 q 463 441 442 438 q 501 444 485 444 q 555 457 533 453 q 590 462 576 461 q 613 458 604 463 q 623 450 618 451 q 628 449 628 449 q 633 478 629 451 q 643 543 638 504 q 654 624 649 582 q 664 703 660 667 q 669 761 668 740 q 668 809 671 788 q 665 831 665 831 q 634 801 657 831 q 581 722 611 771 q 522 615 551 672 q 497 574 508 589 q 478 558 485 558 q 463 537 475 556 q 438 495 451 518 q 416 453 425 472 q 411 432 407 435 m 654 1056 q 626 1056 640 1054 q 597 1063 611 1058 q 567 1071 576 1065 q 547 1092 557 1076 q 553 1123 535 1113 q 618 1139 572 1133 q 698 1153 661 1147 q 778 1158 735 1158 q 846 1152 821 1158 q 888 1129 871 1146 q 900 1092 906 1114 q 869 1068 894 1071 q 839 1067 860 1068 q 796 1065 818 1065 q 757 1063 774 1064 q 731 1060 746 1061 q 698 1057 717 1058 q 654 1056 679 1056 z "},"Ą":{"ha":697,"x_min":50,"x_max":786,"o":"m 79 -46 q 52 -15 54 -32 q 71 43 50 1 q 136 172 92 85 q 181 270 169 235 q 194 321 193 306 q 196 340 196 336 q 199 360 193 353 q 217 374 204 368 q 249 399 224 381 q 288 442 274 417 q 316 501 300 471 q 358 578 332 532 q 429 700 385 625 q 495 810 457 749 q 571 921 533 871 q 603 951 586 940 q 632 963 619 963 q 693 947 663 963 q 747 907 724 931 q 779 863 771 883 q 785 815 786 851 q 779 728 783 779 q 769 618 775 676 q 757 483 765 561 q 741 321 749 406 q 729 158 733 236 q 729 21 725 79 q 729 -3 731 8 q 728 -21 728 -14 q 692 -28 719 -29 q 638 -19 664 -28 q 608 1 611 -11 q 603 8 604 6 q 603 35 601 11 q 607 125 604 60 l 614 338 l 596 336 q 551 333 583 336 q 480 326 518 331 q 410 316 442 321 q 365 307 378 311 q 335 290 353 307 q 303 247 318 274 q 283 206 297 228 q 268 178 268 185 q 252 161 258 171 q 246 151 246 151 q 234 110 246 143 q 203 38 222 78 q 165 -31 185 -1 l 128 -83 l 79 -46 m 411 432 q 426 435 411 432 q 463 441 442 438 q 501 444 485 444 q 555 457 533 453 q 590 462 576 461 q 613 458 604 463 q 623 450 618 451 q 628 449 628 449 q 633 478 629 451 q 643 543 638 504 q 654 624 649 582 q 664 703 660 667 q 669 761 668 740 q 668 809 671 788 q 665 831 665 831 q 634 801 657 831 q 581 722 611 771 q 522 615 551 672 q 497 574 508 589 q 478 558 485 558 q 463 537 475 556 q 438 495 451 518 q 416 453 425 472 q 411 432 407 435 m 539 -287 q 483 -257 511 -279 q 446 -201 456 -235 q 461 -125 436 -167 q 511 -62 479 -94 q 580 1 543 -29 q 647 50 617 31 l 724 8 q 651 -45 693 -10 q 583 -111 608 -81 q 556 -150 564 -135 q 558 -181 549 -165 q 583 -189 563 -189 q 638 -169 615 -183 q 694 -139 660 -156 q 722 -138 713 -129 q 734 -164 732 -147 q 730 -198 736 -181 q 707 -222 724 -215 q 681 -233 701 -224 q 633 -255 660 -243 q 580 -276 606 -267 q 539 -287 554 -285 z "},"Å":{"ha":697,"x_min":50,"x_max":861,"o":"m 79 -46 q 52 -15 54 -32 q 71 43 50 1 q 136 172 92 85 q 181 270 169 235 q 194 321 193 306 q 196 340 196 336 q 199 360 193 353 q 217 374 204 368 q 249 399 224 381 q 288 442 274 417 q 316 501 300 471 q 358 578 332 532 q 429 700 385 625 q 495 810 457 749 q 571 921 533 871 q 603 951 586 940 q 632 963 619 963 q 693 947 663 963 q 747 907 724 931 q 779 863 771 883 q 785 815 786 851 q 779 728 783 779 q 769 618 775 676 q 757 483 765 561 q 741 321 749 406 q 729 158 733 236 q 729 21 725 79 q 729 -3 731 8 q 728 -21 728 -14 q 692 -28 719 -29 q 638 -19 664 -28 q 608 1 611 -11 q 603 8 604 6 q 603 35 601 11 q 607 125 604 60 l 614 338 l 596 336 q 551 333 583 336 q 480 326 518 331 q 410 316 442 321 q 365 307 378 311 q 335 290 353 307 q 303 247 318 274 q 283 206 297 228 q 268 178 268 185 q 252 161 258 171 q 246 151 246 151 q 234 110 246 143 q 203 38 222 78 q 165 -31 185 -1 l 128 -83 l 79 -46 m 411 432 q 426 435 411 432 q 463 441 442 438 q 501 444 485 444 q 555 457 533 453 q 590 462 576 461 q 613 458 604 463 q 623 450 618 451 q 628 449 628 449 q 633 478 629 451 q 643 543 638 504 q 654 624 649 582 q 664 703 660 667 q 669 761 668 740 q 668 809 671 788 q 665 831 665 831 q 634 801 657 831 q 581 722 611 771 q 522 615 551 672 q 497 574 508 589 q 478 558 485 558 q 463 537 475 556 q 438 495 451 518 q 416 453 425 472 q 411 432 407 435 m 735 951 q 665 978 688 951 q 632 1054 643 1006 q 646 1135 631 1099 q 688 1192 661 1171 q 744 1214 714 1214 q 833 1186 806 1213 q 861 1119 861 1160 q 841 1031 858 1069 q 797 972 824 993 q 735 951 769 951 m 738 1032 q 772 1049 763 1032 q 783 1083 782 1065 q 776 1118 783 1104 q 749 1131 769 1132 q 707 1075 706 1128 q 717 1047 707 1061 q 738 1032 726 1032 z "},"Ǻ":{"ha":697,"x_min":50,"x_max":971,"o":"m 79 -46 q 52 -15 54 -32 q 71 43 50 1 q 136 172 92 85 q 181 270 169 235 q 194 321 193 306 q 196 340 196 336 q 199 360 193 353 q 217 374 204 368 q 249 399 224 381 q 288 442 274 417 q 316 501 300 471 q 358 578 332 532 q 429 700 385 625 q 495 810 457 749 q 571 921 533 871 q 603 951 586 940 q 632 963 619 963 q 693 947 663 963 q 747 907 724 931 q 779 863 771 883 q 785 815 786 851 q 779 728 783 779 q 769 618 775 676 q 757 483 765 561 q 741 321 749 406 q 729 158 733 236 q 729 21 725 79 q 729 -3 731 8 q 728 -21 728 -14 q 692 -28 719 -29 q 638 -19 664 -28 q 608 1 611 -11 q 603 8 604 6 q 603 35 601 11 q 607 125 604 60 l 614 338 l 596 336 q 551 333 583 336 q 480 326 518 331 q 410 316 442 321 q 365 307 378 311 q 335 290 353 307 q 303 247 318 274 q 283 206 297 228 q 268 178 268 185 q 252 161 258 171 q 246 151 246 151 q 234 110 246 143 q 203 38 222 78 q 165 -31 185 -1 l 128 -83 l 79 -46 m 411 432 q 426 435 411 432 q 463 441 442 438 q 501 444 485 444 q 555 457 533 453 q 590 462 576 461 q 613 458 604 463 q 623 450 618 451 q 628 449 628 449 q 633 478 629 451 q 643 543 638 504 q 654 624 649 582 q 664 703 660 667 q 669 761 668 740 q 668 809 671 788 q 665 831 665 831 q 634 801 657 831 q 581 722 611 771 q 522 615 551 672 q 497 574 508 589 q 478 558 485 558 q 463 537 475 556 q 438 495 451 518 q 416 453 425 472 q 411 432 407 435 m 735 951 q 665 978 688 951 q 632 1054 643 1006 q 646 1135 631 1099 q 688 1192 661 1171 q 744 1214 714 1214 q 833 1186 806 1213 q 861 1119 861 1160 q 841 1031 858 1069 q 797 972 824 993 q 735 951 769 951 m 738 1032 q 772 1049 763 1032 q 783 1083 782 1065 q 776 1118 783 1104 q 749 1131 769 1132 q 707 1075 706 1128 q 717 1047 707 1061 q 738 1032 726 1032 m 776 1124 q 762 1148 767 1133 q 758 1197 757 1163 q 777 1225 760 1204 q 819 1272 794 1246 q 868 1319 843 1299 q 908 1346 893 1340 q 947 1332 926 1353 q 968 1279 967 1311 q 956 1251 971 1268 q 917 1215 940 1233 q 871 1177 893 1196 q 838 1143 849 1158 q 808 1117 824 1121 q 776 1124 792 1114 z "},"Ã":{"ha":697,"x_min":50,"x_max":950,"o":"m 79 -46 q 52 -15 54 -32 q 71 43 50 1 q 136 172 92 85 q 181 270 169 235 q 194 321 193 306 q 196 340 196 336 q 199 360 193 353 q 217 374 204 368 q 249 399 224 381 q 288 442 274 417 q 316 501 300 471 q 358 578 332 532 q 429 700 385 625 q 495 810 457 749 q 571 921 533 871 q 603 951 586 940 q 632 963 619 963 q 693 947 663 963 q 747 907 724 931 q 779 863 771 883 q 785 815 786 851 q 779 728 783 779 q 769 618 775 676 q 757 483 765 561 q 741 321 749 406 q 729 158 733 236 q 729 21 725 79 q 729 -3 731 8 q 728 -21 728 -14 q 692 -28 719 -29 q 638 -19 664 -28 q 608 1 611 -11 q 603 8 604 6 q 603 35 601 11 q 607 125 604 60 l 614 338 l 596 336 q 551 333 583 336 q 480 326 518 331 q 410 316 442 321 q 365 307 378 311 q 335 290 353 307 q 303 247 318 274 q 283 206 297 228 q 268 178 268 185 q 252 161 258 171 q 246 151 246 151 q 234 110 246 143 q 203 38 222 78 q 165 -31 185 -1 l 128 -83 l 79 -46 m 411 432 q 426 435 411 432 q 463 441 442 438 q 501 444 485 444 q 555 457 533 453 q 590 462 576 461 q 613 458 604 463 q 623 450 618 451 q 628 449 628 449 q 633 478 629 451 q 643 543 638 504 q 654 624 649 582 q 664 703 660 667 q 669 761 668 740 q 668 809 671 788 q 665 831 665 831 q 634 801 657 831 q 581 722 611 771 q 522 615 551 672 q 497 574 508 589 q 478 558 485 558 q 463 537 475 556 q 438 495 451 518 q 416 453 425 472 q 411 432 407 435 m 793 1008 q 751 1019 774 1008 q 704 1051 729 1031 q 673 1077 692 1058 q 638 1096 654 1096 q 615 1085 624 1096 q 598 1063 606 1074 q 575 1049 590 1051 q 566 1030 571 1039 q 550 1028 561 1021 q 526 1042 536 1031 q 513 1079 517 1053 q 547 1140 524 1111 q 606 1186 571 1168 q 674 1186 650 1197 q 721 1151 699 1175 q 772 1121 754 1125 q 817 1128 790 1117 q 858 1146 838 1133 q 907 1169 878 1158 q 927 1164 917 1174 q 944 1140 938 1154 q 949 1118 950 1126 q 935 1087 947 1101 q 910 1065 922 1072 q 844 1029 868 1042 q 810 1013 821 1017 q 793 1008 799 1008 z "},"Æ":{"ha":1089,"x_min":75,"x_max":1329,"o":"m 778 -69 q 691 -61 722 -69 q 624 -25 660 -53 q 581 31 596 -4 q 564 104 567 65 q 568 176 561 143 q 579 237 572 208 q 592 282 586 265 l 575 282 q 496 283 546 281 q 376 290 446 286 l 353 261 q 328 226 343 249 q 297 174 313 203 q 260 109 283 147 q 210 39 236 71 q 166 -15 181 -4 q 144 -25 151 -25 q 119 -20 128 -25 q 99 -6 110 -15 q 76 35 75 8 q 113 101 78 61 q 127 121 121 111 q 133 131 133 131 q 153 167 139 142 q 186 221 168 193 q 219 270 204 249 q 242 294 235 292 q 247 350 274 324 q 239 374 238 354 q 256 410 240 393 q 301 425 271 428 q 322 432 313 429 q 331 439 331 435 q 340 460 332 446 q 360 494 349 475 q 385 530 372 513 q 410 560 399 547 q 438 611 431 599 q 454 636 446 624 q 481 667 463 643 q 514 714 499 692 q 553 755 536 733 q 583 792 569 776 q 605 823 592 807 q 636 858 618 839 q 692 892 667 888 q 736 896 718 896 q 793 888 757 896 q 868 867 829 881 q 956 893 904 882 q 1038 906 1007 904 q 1075 914 1046 911 q 1142 917 1104 917 q 1213 914 1181 917 q 1261 905 1243 914 q 1297 888 1279 896 q 1328 848 1328 864 q 1320 825 1329 832 q 1311 818 1311 818 q 1292 814 1306 817 q 1247 810 1278 811 q 1160 808 1217 808 q 1115 804 1140 808 q 1066 796 1089 800 q 1033 792 1043 792 q 994 785 1019 786 q 963 783 968 783 q 950 768 960 783 q 930 732 940 753 q 911 693 919 711 q 903 671 903 675 q 891 637 903 657 q 864 594 879 617 q 847 558 850 576 q 857 535 844 540 q 904 542 879 539 q 954 549 929 546 q 1000 551 979 551 q 1065 558 1036 557 q 1101 551 1093 558 q 1124 533 1119 549 q 1123 503 1129 518 q 1100 481 1117 488 q 1065 465 1093 475 q 997 445 1036 456 q 917 426 957 435 q 844 410 876 417 q 797 404 811 404 q 777 401 786 414 q 753 324 768 389 q 729 269 738 289 q 716 226 721 249 q 703 161 711 204 q 706 108 697 140 q 760 54 715 75 q 820 49 788 49 q 913 65 853 50 q 961 94 938 81 q 994 113 985 107 q 1016 119 1001 113 q 1036 125 1031 125 q 1050 137 1043 132 q 1067 142 1057 142 q 1083 122 1069 142 q 1110 82 1097 103 q 1121 57 1122 61 q 1071 19 1121 43 q 951 -33 1021 -6 q 894 -57 917 -49 q 847 -67 872 -65 q 778 -69 822 -69 m 461 399 q 480 402 461 399 q 538 404 499 406 q 590 407 564 407 q 633 406 615 407 q 642 422 636 414 q 651 439 649 429 q 657 460 656 447 q 660 476 658 474 q 665 487 660 476 q 676 511 671 497 q 686 535 682 525 q 694 551 690 546 q 709 574 701 558 q 724 603 717 589 q 767 681 751 656 q 793 729 783 707 q 753 740 775 739 q 703 739 732 742 q 683 731 697 743 q 651 699 669 718 q 618 661 633 681 q 596 631 603 642 q 569 592 590 624 q 524 526 547 560 q 472 448 488 474 q 456 413 457 422 q 461 399 454 403 z "},"Ǽ":{"ha":1089,"x_min":75,"x_max":1329,"o":"m 778 -69 q 691 -61 722 -69 q 624 -25 660 -53 q 581 31 596 -4 q 564 104 567 65 q 568 176 561 143 q 579 237 572 208 q 592 282 586 265 l 575 282 q 496 283 546 281 q 376 290 446 286 l 353 261 q 328 226 343 249 q 297 174 313 203 q 260 109 283 147 q 210 39 236 71 q 166 -15 181 -4 q 144 -25 151 -25 q 119 -20 128 -25 q 99 -6 110 -15 q 76 35 75 8 q 113 101 78 61 q 127 121 121 111 q 133 131 133 131 q 153 167 139 142 q 186 221 168 193 q 219 270 204 249 q 242 294 235 292 q 247 350 274 324 q 239 374 238 354 q 256 410 240 393 q 301 425 271 428 q 322 432 313 429 q 331 439 331 435 q 340 460 332 446 q 360 494 349 475 q 385 530 372 513 q 410 560 399 547 q 438 611 431 599 q 454 636 446 624 q 481 667 463 643 q 514 714 499 692 q 553 755 536 733 q 583 792 569 776 q 605 823 592 807 q 636 858 618 839 q 692 892 667 888 q 736 896 718 896 q 793 888 757 896 q 868 867 829 881 q 956 893 904 882 q 1038 906 1007 904 q 1075 914 1046 911 q 1142 917 1104 917 q 1213 914 1181 917 q 1261 905 1243 914 q 1297 888 1279 896 q 1328 848 1328 864 q 1320 825 1329 832 q 1311 818 1311 818 q 1292 814 1306 817 q 1247 810 1278 811 q 1160 808 1217 808 q 1115 804 1140 808 q 1066 796 1089 800 q 1033 792 1043 792 q 994 785 1019 786 q 963 783 968 783 q 950 768 960 783 q 930 732 940 753 q 911 693 919 711 q 903 671 903 675 q 891 637 903 657 q 864 594 879 617 q 847 558 850 576 q 857 535 844 540 q 904 542 879 539 q 954 549 929 546 q 1000 551 979 551 q 1065 558 1036 557 q 1101 551 1093 558 q 1124 533 1119 549 q 1123 503 1129 518 q 1100 481 1117 488 q 1065 465 1093 475 q 997 445 1036 456 q 917 426 957 435 q 844 410 876 417 q 797 404 811 404 q 777 401 786 414 q 753 324 768 389 q 729 269 738 289 q 716 226 721 249 q 703 161 711 204 q 706 108 697 140 q 760 54 715 75 q 820 49 788 49 q 913 65 853 50 q 961 94 938 81 q 994 113 985 107 q 1016 119 1001 113 q 1036 125 1031 125 q 1050 137 1043 132 q 1067 142 1057 142 q 1083 122 1069 142 q 1110 82 1097 103 q 1121 57 1122 61 q 1071 19 1121 43 q 951 -33 1021 -6 q 894 -57 917 -49 q 847 -67 872 -65 q 778 -69 822 -69 m 461 399 q 480 402 461 399 q 538 404 499 406 q 590 407 564 407 q 633 406 615 407 q 642 422 636 414 q 651 439 649 429 q 657 460 656 447 q 660 476 658 474 q 665 487 660 476 q 676 511 671 497 q 686 535 682 525 q 694 551 690 546 q 709 574 701 558 q 724 603 717 589 q 767 681 751 656 q 793 729 783 707 q 753 740 775 739 q 703 739 732 742 q 683 731 697 743 q 651 699 669 718 q 618 661 633 681 q 596 631 603 642 q 569 592 590 624 q 524 526 547 560 q 472 448 488 474 q 456 413 457 422 q 461 399 454 403 m 915 992 q 901 1016 906 1001 q 897 1065 896 1031 q 916 1093 899 1072 q 958 1140 933 1114 q 1007 1188 982 1167 q 1047 1214 1032 1208 q 1085 1200 1065 1221 q 1107 1147 1106 1179 q 1094 1119 1110 1136 q 1056 1083 1079 1101 q 1010 1045 1032 1064 q 976 1011 988 1026 q 947 985 963 989 q 915 992 931 982 z "},"B":{"ha":726,"x_min":100,"x_max":821,"o":"m 282 -100 q 212 -22 222 -61 q 239 40 201 17 q 272 42 247 46 q 308 25 296 38 q 372 -6 336 0 q 458 1 407 -12 q 548 47 517 19 q 618 121 579 74 q 659 194 647 158 q 670 260 671 231 q 656 306 669 290 q 569 373 621 354 q 435 369 518 392 q 406 364 425 368 q 371 356 386 360 q 354 353 356 353 q 339 350 344 350 q 326 337 333 350 q 303 283 318 324 q 257 157 288 242 q 208 37 228 72 q 172 5 188 1 q 138 35 157 8 q 113 78 126 54 q 114 126 100 101 q 125 149 121 139 q 136 186 129 160 q 163 259 143 207 q 211 381 183 311 q 269 526 239 451 q 328 668 300 601 q 376 781 357 735 q 400 843 396 824 q 397 864 404 863 q 393 877 397 871 q 390 889 389 883 q 415 904 390 894 q 467 922 439 914 q 507 928 494 931 q 524 928 514 928 q 533 935 533 929 q 560 938 538 935 q 608 938 582 940 q 761 884 701 929 q 819 740 821 839 q 800 679 818 717 q 755 604 782 642 q 697 539 728 567 q 659 508 679 524 q 624 481 639 492 q 610 471 610 471 q 621 467 610 471 q 644 458 632 463 q 745 399 708 435 q 797 299 782 363 q 798 247 803 278 q 785 187 793 217 q 767 136 776 157 q 751 116 757 126 q 746 106 746 106 q 735 84 746 103 q 708 43 724 65 q 679 4 693 21 q 640 -27 665 -7 q 584 -67 614 -47 q 528 -96 554 -86 q 441 -119 489 -112 q 350 -120 393 -125 q 282 -100 307 -115 m 382 476 q 405 481 382 476 q 456 492 428 486 q 497 504 483 499 q 517 515 504 508 q 544 536 531 522 q 586 577 564 554 q 630 626 608 600 q 667 683 651 653 q 701 756 699 733 q 686 796 704 778 q 651 819 674 811 q 603 827 629 826 q 554 821 578 828 q 526 808 536 815 q 517 785 517 800 q 509 759 517 772 q 494 739 501 746 q 485 720 493 729 q 478 711 478 711 q 460 677 478 706 q 424 596 443 649 q 390 510 399 536 q 382 476 382 483 z "},"C":{"ha":663,"x_min":143,"x_max":828,"o":"m 307 -92 q 258 -69 286 -83 q 206 -31 231 -54 q 167 26 181 -7 q 148 106 153 67 q 144 196 143 144 q 155 322 144 268 q 188 431 165 375 q 198 455 190 435 q 216 499 206 475 q 232 535 226 522 q 266 598 243 558 q 315 675 289 638 q 383 773 356 735 q 437 838 411 811 q 494 889 463 864 q 572 946 525 914 q 651 974 603 968 q 744 959 699 979 q 813 883 790 939 q 826 810 828 854 q 810 717 825 767 q 771 625 794 668 q 718 556 747 582 q 670 550 700 539 q 621 579 640 561 q 608 607 608 603 q 613 613 607 611 q 635 646 621 622 q 663 697 649 669 q 682 740 676 724 q 697 817 693 799 q 689 849 701 836 q 673 853 683 854 q 639 839 663 851 q 563 783 607 825 q 476 682 519 740 q 383 551 421 608 q 326 435 346 494 q 317 414 324 429 q 311 399 311 399 q 307 372 313 393 q 294 335 301 350 q 276 212 279 271 q 284 109 274 153 q 315 44 294 65 q 361 36 333 32 q 425 56 389 40 q 503 89 461 71 q 564 119 536 103 q 606 149 592 136 q 634 166 617 157 q 664 175 651 175 q 693 164 683 182 q 703 118 703 146 q 675 71 703 99 q 614 24 647 43 q 584 3 603 13 q 546 -12 565 -6 q 474 -56 517 -35 q 387 -87 431 -76 q 307 -92 343 -99 z "},"Ć":{"ha":669,"x_min":138,"x_max":844,"o":"m 301 -92 q 253 -69 281 -83 q 200 -31 225 -54 q 161 26 175 -7 q 142 106 147 67 q 139 196 138 144 q 149 322 139 268 q 182 431 160 375 q 192 455 185 435 q 210 499 200 475 q 226 535 221 522 q 260 598 238 558 q 310 675 283 638 q 378 773 350 735 q 431 838 406 811 q 488 889 457 864 q 567 946 519 914 q 645 974 597 968 q 739 959 693 979 q 807 883 785 939 q 821 810 822 854 q 804 717 819 767 q 765 625 789 668 q 713 556 742 582 q 665 550 694 539 q 615 579 635 561 q 602 607 603 603 q 607 613 601 611 q 629 646 615 622 q 657 697 643 669 q 676 740 671 724 q 692 817 688 799 q 683 849 696 836 q 667 853 678 854 q 633 839 657 851 q 558 783 601 825 q 471 682 514 740 q 378 551 415 608 q 321 435 340 494 q 312 414 318 429 q 306 399 306 399 q 301 372 307 393 q 289 335 296 350 q 271 212 274 271 q 278 109 268 153 q 310 44 289 65 q 356 36 328 32 q 419 56 383 40 q 497 89 456 71 q 558 119 531 103 q 600 149 586 136 q 628 166 611 157 q 658 175 646 175 q 688 164 678 182 q 697 118 697 146 q 669 71 697 99 q 608 24 642 43 q 578 3 597 13 q 540 -12 560 -6 q 468 -56 511 -35 q 381 -87 425 -76 q 301 -92 338 -99 m 650 992 q 635 1016 640 1001 q 632 1065 631 1031 q 651 1093 633 1072 q 692 1140 668 1114 q 742 1188 717 1167 q 782 1214 767 1208 q 820 1200 800 1221 q 842 1147 840 1179 q 829 1119 844 1136 q 790 1083 814 1101 q 744 1045 767 1064 q 711 1011 722 1026 q 681 985 697 989 q 650 992 665 982 z "},"Č":{"ha":669,"x_min":138,"x_max":896,"o":"m 301 -92 q 253 -69 281 -83 q 200 -31 225 -54 q 161 26 175 -7 q 142 106 147 67 q 139 196 138 144 q 149 322 139 268 q 182 431 160 375 q 192 455 185 435 q 210 499 200 475 q 226 535 221 522 q 260 598 238 558 q 310 675 283 638 q 378 773 350 735 q 431 838 406 811 q 488 889 457 864 q 567 946 519 914 q 645 974 597 968 q 739 959 693 979 q 807 883 785 939 q 821 810 822 854 q 804 717 819 767 q 765 625 789 668 q 713 556 742 582 q 665 550 694 539 q 615 579 635 561 q 602 607 603 603 q 607 613 601 611 q 629 646 615 622 q 657 697 643 669 q 676 740 671 724 q 692 817 688 799 q 683 849 696 836 q 667 853 678 854 q 633 839 657 851 q 558 783 601 825 q 471 682 514 740 q 378 551 415 608 q 321 435 340 494 q 312 414 318 429 q 306 399 306 399 q 301 372 307 393 q 289 335 296 350 q 271 212 274 271 q 278 109 268 153 q 310 44 289 65 q 356 36 328 32 q 419 56 383 40 q 497 89 456 71 q 558 119 531 103 q 600 149 586 136 q 628 166 611 157 q 658 175 646 175 q 688 164 678 182 q 697 118 697 146 q 669 71 697 99 q 608 24 642 43 q 578 3 597 13 q 540 -12 560 -6 q 468 -56 511 -35 q 381 -87 425 -76 q 301 -92 338 -99 m 733 1000 q 707 989 722 992 q 672 1003 692 986 q 631 1042 658 1017 q 581 1092 604 1067 q 550 1131 557 1118 q 557 1174 544 1154 q 592 1197 569 1194 q 636 1174 614 1200 q 667 1141 646 1160 q 710 1103 688 1122 q 751 1128 726 1113 q 799 1160 776 1144 q 831 1185 821 1176 q 871 1191 856 1200 q 891 1163 886 1182 q 889 1131 896 1144 q 869 1108 888 1125 q 826 1069 851 1090 q 776 1028 801 1047 q 733 1000 751 1010 z "},"Ç":{"ha":669,"x_min":138,"x_max":822,"o":"m 301 -92 q 253 -69 281 -83 q 200 -31 225 -54 q 161 26 175 -7 q 142 106 147 67 q 139 196 138 144 q 149 322 139 268 q 182 431 160 375 q 192 455 185 435 q 210 499 200 475 q 226 535 221 522 q 260 598 238 558 q 310 675 283 638 q 378 773 350 735 q 431 838 406 811 q 488 889 457 864 q 567 946 519 914 q 645 974 597 968 q 739 959 693 979 q 807 883 785 939 q 821 810 822 854 q 804 717 819 767 q 765 625 789 668 q 713 556 742 582 q 665 550 694 539 q 615 579 635 561 q 602 607 603 603 q 607 613 601 611 q 629 646 615 622 q 657 697 643 669 q 676 740 671 724 q 692 817 688 799 q 683 849 696 836 q 667 853 678 854 q 633 839 657 851 q 558 783 601 825 q 471 682 514 740 q 378 551 415 608 q 321 435 340 494 q 312 414 318 429 q 306 399 306 399 q 301 372 307 393 q 289 335 296 350 q 271 212 274 271 q 278 109 268 153 q 310 44 289 65 q 356 36 328 32 q 419 56 383 40 q 497 89 456 71 q 558 119 531 103 q 600 149 586 136 q 628 166 611 157 q 658 175 646 175 q 688 164 678 182 q 697 118 697 146 q 669 71 697 99 q 608 24 642 43 q 578 3 597 13 q 540 -12 560 -6 q 468 -56 511 -35 q 381 -87 425 -76 q 301 -92 338 -99 m 329 -368 q 274 -366 308 -372 q 209 -351 239 -360 q 171 -340 179 -343 q 146 -319 154 -335 q 139 -286 138 -303 q 154 -260 140 -269 q 199 -260 168 -251 q 247 -274 221 -265 q 293 -283 272 -283 q 324 -264 314 -283 q 322 -233 333 -249 q 296 -200 311 -217 q 277 -178 286 -187 q 253 -156 268 -169 q 240 -120 242 -140 q 261 -75 238 -100 q 351 -17 285 -50 l 429 -58 q 373 -90 394 -75 q 351 -124 351 -106 q 394 -177 371 -151 q 425 -231 418 -203 q 420 -293 433 -264 q 382 -342 407 -322 q 329 -368 357 -362 z "},"Ĉ":{"ha":669,"x_min":138,"x_max":906,"o":"m 301 -92 q 253 -69 281 -83 q 200 -31 225 -54 q 161 26 175 -7 q 142 106 147 67 q 139 196 138 144 q 149 322 139 268 q 182 431 160 375 q 192 455 185 435 q 210 499 200 475 q 226 535 221 522 q 260 598 238 558 q 310 675 283 638 q 378 773 350 735 q 431 838 406 811 q 488 889 457 864 q 567 946 519 914 q 645 974 597 968 q 739 959 693 979 q 807 883 785 939 q 821 810 822 854 q 804 717 819 767 q 765 625 789 668 q 713 556 742 582 q 665 550 694 539 q 615 579 635 561 q 602 607 603 603 q 607 613 601 611 q 629 646 615 622 q 657 697 643 669 q 676 740 671 724 q 692 817 688 799 q 683 849 696 836 q 667 853 678 854 q 633 839 657 851 q 558 783 601 825 q 471 682 514 740 q 378 551 415 608 q 321 435 340 494 q 312 414 318 429 q 306 399 306 399 q 301 372 307 393 q 289 335 296 350 q 271 212 274 271 q 278 109 268 153 q 310 44 289 65 q 356 36 328 32 q 419 56 383 40 q 497 89 456 71 q 558 119 531 103 q 600 149 586 136 q 628 166 611 157 q 658 175 646 175 q 688 164 678 182 q 697 118 697 146 q 669 71 697 99 q 608 24 642 43 q 578 3 597 13 q 540 -12 560 -6 q 468 -56 511 -35 q 381 -87 425 -76 q 301 -92 338 -99 m 632 1010 q 589 994 608 986 q 563 1024 569 1001 q 569 1067 557 1047 q 591 1088 574 1072 q 632 1125 608 1104 q 678 1163 656 1146 q 715 1189 701 1181 q 752 1201 733 1204 q 779 1185 771 1197 q 819 1148 796 1171 q 865 1102 843 1125 q 897 1065 888 1079 q 901 1031 906 1049 q 882 1001 896 1013 q 850 992 868 990 q 814 1018 832 994 q 783 1048 804 1026 q 742 1088 763 1069 q 703 1063 725 1078 q 661 1033 681 1047 q 632 1010 642 1018 z "},"Ċ":{"ha":669,"x_min":138,"x_max":822,"o":"m 301 -92 q 253 -69 281 -83 q 200 -31 225 -54 q 161 26 175 -7 q 142 106 147 67 q 139 196 138 144 q 149 322 139 268 q 182 431 160 375 q 192 455 185 435 q 210 499 200 475 q 226 535 221 522 q 260 598 238 558 q 310 675 283 638 q 378 773 350 735 q 431 838 406 811 q 488 889 457 864 q 567 946 519 914 q 645 974 597 968 q 739 959 693 979 q 807 883 785 939 q 821 810 822 854 q 804 717 819 767 q 765 625 789 668 q 713 556 742 582 q 665 550 694 539 q 615 579 635 561 q 602 607 603 603 q 607 613 601 611 q 629 646 615 622 q 657 697 643 669 q 676 740 671 724 q 692 817 688 799 q 683 849 696 836 q 667 853 678 854 q 633 839 657 851 q 558 783 601 825 q 471 682 514 740 q 378 551 415 608 q 321 435 340 494 q 312 414 318 429 q 306 399 306 399 q 301 372 307 393 q 289 335 296 350 q 271 212 274 271 q 278 109 268 153 q 310 44 289 65 q 356 36 328 32 q 419 56 383 40 q 497 89 456 71 q 558 119 531 103 q 600 149 586 136 q 628 166 611 157 q 658 175 646 175 q 688 164 678 182 q 697 118 697 146 q 669 71 697 99 q 608 24 642 43 q 578 3 597 13 q 540 -12 560 -6 q 468 -56 511 -35 q 381 -87 425 -76 q 301 -92 338 -99 m 675 1022 q 656 1051 665 1032 q 649 1086 647 1071 q 663 1123 651 1093 q 697 1172 674 1153 q 706 1181 701 1175 q 717 1189 711 1188 q 751 1199 733 1200 q 793 1171 768 1199 q 808 1106 817 1131 q 771 1047 799 1081 q 728 1008 750 1019 q 675 1022 706 997 z "},"D":{"ha":815,"x_min":68,"x_max":949,"o":"m 294 -147 q 231 -147 268 -151 q 150 -131 193 -142 q 119 -114 128 -124 q 89 -78 110 -104 q 72 -31 75 -57 q 78 17 68 -4 q 114 42 89 38 q 141 37 125 44 q 175 18 157 29 q 238 -16 204 1 q 299 -29 271 -33 q 345 -24 318 -25 q 398 -19 372 -24 q 439 -4 424 -15 q 549 76 513 46 q 585 106 585 106 q 595 115 588 111 q 614 122 603 118 q 640 149 622 131 q 676 186 658 168 q 697 207 693 204 q 703 227 700 219 q 706 243 706 235 q 735 290 717 254 q 774 369 754 325 q 801 449 793 413 q 814 588 819 525 q 782 700 808 650 q 711 788 756 750 q 669 815 696 800 q 615 842 643 829 q 566 863 588 856 q 540 868 544 869 q 519 826 535 867 q 480 721 503 785 q 431 584 457 657 q 382 446 406 511 q 365 390 375 419 q 347 340 354 361 q 340 311 340 318 q 308 239 325 288 q 281 100 292 190 q 263 22 268 53 q 251 -8 257 -10 q 250 -22 251 -8 q 244 -39 249 -35 q 228 -50 244 -47 q 189 -43 211 -53 q 147 -6 167 -33 q 141 40 143 10 q 150 110 139 69 q 169 178 157 136 q 197 264 182 219 q 226 346 213 308 q 244 401 239 383 q 272 490 254 425 q 295 563 283 526 q 318 627 307 599 q 333 664 329 656 q 351 723 340 682 q 383 817 361 764 l 393 863 l 378 869 q 352 866 361 864 q 340 869 343 868 q 319 874 332 867 q 295 894 306 882 q 282 915 285 907 q 278 930 279 921 q 278 939 278 939 q 301 956 279 947 q 359 974 324 965 q 435 986 394 982 q 510 988 475 990 q 599 971 546 985 q 689 943 651 957 q 785 886 733 926 q 878 790 836 846 q 935 674 921 735 q 943 626 939 657 q 948 567 947 596 q 942 531 949 539 q 938 517 939 525 q 943 507 938 510 q 933 476 942 503 q 918 429 925 449 q 899 346 915 393 q 865 256 883 299 q 832 190 846 214 q 822 188 826 190 q 822 185 817 186 q 807 158 822 178 q 790 138 801 154 q 771 117 778 122 q 763 101 769 107 q 750 94 756 94 q 748 94 750 94 q 746 89 746 94 q 708 46 735 72 q 649 -8 682 19 q 582 -60 615 -36 q 521 -94 549 -83 q 492 -110 507 -104 q 463 -124 476 -117 q 422 -133 456 -129 q 352 -140 389 -137 q 294 -147 315 -143 z "},"Ð":{"ha":803,"x_min":65,"x_max":942,"o":"m 311 -144 q 238 -147 281 -150 q 132 -126 194 -144 q 103 -102 118 -119 q 76 -62 88 -85 q 65 -21 65 -40 q 81 28 65 15 q 113 42 97 40 q 158 24 139 40 q 185 -3 176 8 q 239 -20 215 -12 q 286 -29 263 -28 q 344 -24 317 -26 q 394 -19 372 -22 q 428 -8 417 -15 q 540 73 501 42 q 578 104 578 104 q 588 113 581 110 q 607 121 596 117 q 634 149 615 129 q 670 186 653 168 q 692 207 688 204 q 697 227 694 219 q 700 243 700 235 q 731 290 711 254 q 769 371 750 326 q 797 451 789 415 q 807 604 815 542 q 769 713 799 667 q 694 796 739 758 q 649 824 675 811 q 599 848 624 838 q 556 863 575 858 q 533 867 538 868 q 516 832 529 865 q 483 746 503 799 q 442 628 464 693 q 396 500 419 564 l 401 500 q 456 489 440 496 q 488 471 472 482 q 497 428 507 450 q 453 410 488 407 q 422 407 443 408 q 381 404 400 406 q 373 404 378 404 q 364 404 368 404 q 344 346 354 374 q 335 311 335 318 q 303 239 319 288 q 275 100 286 190 q 257 21 263 53 q 246 -10 251 -11 l 244 -19 q 225 -32 244 -28 q 183 -33 206 -36 q 153 -22 161 -31 q 139 17 149 -7 q 138 75 129 40 q 156 152 143 107 q 185 244 169 197 q 214 330 200 292 q 233 386 228 368 q 235 392 235 389 q 238 397 236 396 l 229 397 q 219 399 228 397 q 197 404 210 400 q 164 413 176 404 q 144 435 151 422 q 153 465 135 456 q 219 481 172 475 q 244 486 232 483 q 267 490 257 489 q 268 496 268 493 q 269 500 268 499 q 291 567 281 533 q 311 626 301 600 q 328 664 321 653 q 345 724 335 682 q 378 818 356 765 l 388 863 l 372 869 q 352 866 363 865 q 335 869 342 867 q 318 873 328 868 q 299 886 308 878 q 282 903 289 894 q 274 926 275 915 q 272 936 272 936 q 301 958 274 947 q 375 978 329 969 q 476 989 421 988 q 589 972 532 988 q 683 942 646 956 q 782 885 732 925 q 871 794 832 844 q 924 690 910 743 q 938 622 933 658 q 942 558 942 586 q 935 522 942 531 q 931 509 932 517 q 936 499 931 501 q 926 467 935 494 q 911 421 918 440 q 892 339 907 383 q 858 254 876 294 q 826 190 840 214 q 816 188 821 190 q 817 185 811 186 q 808 167 817 175 q 792 147 800 158 q 779 133 786 143 q 765 117 772 122 q 757 101 764 107 q 744 94 750 94 q 742 94 744 94 q 740 89 740 94 q 703 46 729 72 q 644 -8 678 19 q 578 -60 611 -36 q 517 -94 544 -83 q 488 -110 503 -104 q 458 -124 472 -117 q 425 -133 451 -129 q 367 -138 399 -136 q 311 -144 335 -140 z "},"Ď":{"ha":803,"x_min":63,"x_max":963,"o":"m 289 -147 q 225 -147 263 -151 q 144 -131 188 -142 q 113 -114 122 -124 q 83 -78 104 -104 q 66 -31 69 -57 q 73 17 63 -4 q 108 42 83 38 q 135 37 119 44 q 169 18 151 29 q 232 -16 199 1 q 293 -29 265 -33 q 340 -24 313 -25 q 392 -19 367 -24 q 433 -4 418 -15 q 543 76 507 46 q 579 106 579 106 q 590 115 582 111 q 608 122 597 118 q 635 149 617 131 q 670 186 653 168 q 692 207 688 204 q 697 227 694 219 q 700 243 700 235 q 730 290 711 254 q 768 369 749 325 q 796 449 788 413 q 808 588 814 525 q 776 700 803 650 q 706 788 750 750 q 664 815 690 800 q 610 842 638 829 q 560 863 582 856 q 535 868 539 869 q 513 826 529 867 q 474 721 497 785 q 426 584 451 657 q 376 446 400 511 q 359 390 369 419 q 342 340 349 361 q 335 311 335 318 q 303 239 319 288 q 275 100 286 190 q 257 22 263 53 q 246 -8 251 -10 q 244 -22 246 -8 q 239 -39 243 -35 q 222 -50 239 -47 q 183 -43 206 -53 q 142 -6 161 -33 q 135 40 138 10 q 144 110 133 69 q 164 178 151 136 q 192 264 176 219 q 220 346 207 308 q 239 401 233 383 q 267 490 249 425 q 290 563 278 526 q 313 627 301 599 q 328 664 324 656 q 345 723 335 682 q 378 817 356 764 l 388 863 l 372 869 q 347 866 356 864 q 335 869 338 868 q 313 874 326 867 q 290 894 300 882 q 276 915 279 907 q 273 930 274 921 q 272 939 272 939 q 296 956 274 947 q 353 974 318 965 q 429 986 389 982 q 504 988 469 990 q 593 971 540 985 q 683 943 646 957 q 779 886 728 926 q 873 790 831 846 q 929 674 915 735 q 938 626 933 657 q 942 567 942 596 q 936 531 943 539 q 933 517 933 525 q 938 507 932 510 q 928 476 936 503 q 913 429 919 449 q 894 346 910 393 q 859 256 878 299 q 826 190 840 214 q 816 188 821 190 q 817 185 811 186 q 801 158 817 178 q 784 138 796 154 q 765 117 772 122 q 757 101 764 107 q 744 94 750 94 q 742 94 744 94 q 740 89 740 94 q 703 46 729 72 q 643 -8 676 19 q 576 -60 610 -36 q 515 -94 543 -83 q 486 -110 501 -104 q 457 -124 471 -117 q 417 -133 450 -129 q 347 -140 383 -137 q 289 -147 310 -143 m 800 1000 q 774 989 789 992 q 739 1003 758 986 q 698 1042 725 1017 q 647 1092 671 1067 q 617 1131 624 1118 q 624 1174 611 1154 q 658 1197 636 1194 q 703 1174 681 1200 q 733 1141 713 1160 q 776 1103 754 1122 q 818 1128 793 1113 q 865 1160 843 1144 q 897 1185 888 1176 q 938 1191 922 1200 q 958 1163 953 1182 q 956 1131 963 1144 q 936 1108 954 1125 q 893 1069 918 1090 q 843 1028 868 1047 q 800 1000 818 1010 z "},"Đ":{"ha":803,"x_min":65,"x_max":942,"o":"m 311 -144 q 238 -147 281 -150 q 132 -126 194 -144 q 103 -102 118 -119 q 76 -62 88 -85 q 65 -21 65 -40 q 81 28 65 15 q 113 42 97 40 q 158 24 139 40 q 185 -3 176 8 q 239 -20 215 -12 q 286 -29 263 -28 q 344 -24 317 -26 q 394 -19 372 -22 q 428 -8 417 -15 q 540 73 501 42 q 578 104 578 104 q 588 113 581 110 q 607 121 596 117 q 634 149 615 129 q 670 186 653 168 q 692 207 688 204 q 697 227 694 219 q 700 243 700 235 q 731 290 711 254 q 769 371 750 326 q 797 451 789 415 q 807 604 815 542 q 769 713 799 667 q 694 796 739 758 q 649 824 675 811 q 599 848 624 838 q 556 863 575 858 q 533 867 538 868 q 516 832 529 865 q 483 746 503 799 q 442 628 464 693 q 396 500 419 564 l 401 500 q 456 489 440 496 q 488 471 472 482 q 497 428 507 450 q 453 410 488 407 q 422 407 443 408 q 381 404 400 406 q 373 404 378 404 q 364 404 368 404 q 344 346 354 374 q 335 311 335 318 q 303 239 319 288 q 275 100 286 190 q 257 21 263 53 q 246 -10 251 -11 l 244 -19 q 225 -32 244 -28 q 183 -33 206 -36 q 153 -22 161 -31 q 139 17 149 -7 q 138 75 129 40 q 156 152 143 107 q 185 244 169 197 q 214 330 200 292 q 233 386 228 368 q 235 392 235 389 q 238 397 236 396 l 229 397 q 219 399 228 397 q 197 404 210 400 q 164 413 176 404 q 144 435 151 422 q 153 465 135 456 q 219 481 172 475 q 244 486 232 483 q 267 490 257 489 q 268 496 268 493 q 269 500 268 499 q 291 567 281 533 q 311 626 301 600 q 328 664 321 653 q 345 724 335 682 q 378 818 356 765 l 388 863 l 372 869 q 352 866 363 865 q 335 869 342 867 q 318 873 328 868 q 299 886 308 878 q 282 903 289 894 q 274 926 275 915 q 272 936 272 936 q 301 958 274 947 q 375 978 329 969 q 476 989 421 988 q 589 972 532 988 q 683 942 646 956 q 782 885 732 925 q 871 794 832 844 q 924 690 910 743 q 938 622 933 658 q 942 558 942 586 q 935 522 942 531 q 931 509 932 517 q 936 499 931 501 q 926 467 935 494 q 911 421 918 440 q 892 339 907 383 q 858 254 876 294 q 826 190 840 214 q 816 188 821 190 q 817 185 811 186 q 808 167 817 175 q 792 147 800 158 q 779 133 786 143 q 765 117 772 122 q 757 101 764 107 q 744 94 750 94 q 742 94 744 94 q 740 89 740 94 q 703 46 729 72 q 644 -8 678 19 q 578 -60 611 -36 q 517 -94 544 -83 q 488 -110 503 -104 q 458 -124 472 -117 q 425 -133 451 -129 q 367 -138 399 -136 q 311 -144 335 -140 z "},"Ḍ":{"ha":803,"x_min":63,"x_max":943,"o":"m 289 -147 q 225 -147 263 -151 q 144 -131 188 -142 q 113 -114 122 -124 q 83 -78 104 -104 q 66 -31 69 -57 q 73 17 63 -4 q 108 42 83 38 q 135 37 119 44 q 169 18 151 29 q 232 -16 199 1 q 293 -29 265 -33 q 340 -24 313 -25 q 392 -19 367 -24 q 433 -4 418 -15 q 543 76 507 46 q 579 106 579 106 q 590 115 582 111 q 608 122 597 118 q 635 149 617 131 q 670 186 653 168 q 692 207 688 204 q 697 227 694 219 q 700 243 700 235 q 730 290 711 254 q 768 369 749 325 q 796 449 788 413 q 808 588 814 525 q 776 700 803 650 q 706 788 750 750 q 664 815 690 800 q 610 842 638 829 q 560 863 582 856 q 535 868 539 869 q 513 826 529 867 q 474 721 497 785 q 426 584 451 657 q 376 446 400 511 q 359 390 369 419 q 342 340 349 361 q 335 311 335 318 q 303 239 319 288 q 275 100 286 190 q 257 22 263 53 q 246 -8 251 -10 q 244 -22 246 -8 q 239 -39 243 -35 q 222 -50 239 -47 q 183 -43 206 -53 q 142 -6 161 -33 q 135 40 138 10 q 144 110 133 69 q 164 178 151 136 q 192 264 176 219 q 220 346 207 308 q 239 401 233 383 q 267 490 249 425 q 290 563 278 526 q 313 627 301 599 q 328 664 324 656 q 345 723 335 682 q 378 817 356 764 l 388 863 l 372 869 q 347 866 356 864 q 335 869 338 868 q 313 874 326 867 q 290 894 300 882 q 276 915 279 907 q 273 930 274 921 q 272 939 272 939 q 296 956 274 947 q 353 974 318 965 q 429 986 389 982 q 504 988 469 990 q 593 971 540 985 q 683 943 646 957 q 779 886 728 926 q 873 790 831 846 q 929 674 915 735 q 938 626 933 657 q 942 567 942 596 q 936 531 943 539 q 933 517 933 525 q 938 507 932 510 q 928 476 936 503 q 913 429 919 449 q 894 346 910 393 q 859 256 878 299 q 826 190 840 214 q 816 188 821 190 q 817 185 811 186 q 801 158 817 178 q 784 138 796 154 q 765 117 772 122 q 757 101 764 107 q 744 94 750 94 q 742 94 744 94 q 740 89 740 94 q 703 46 729 72 q 643 -8 676 19 q 576 -60 610 -36 q 515 -94 543 -83 q 486 -110 501 -104 q 457 -124 471 -117 q 417 -133 450 -129 q 347 -140 383 -137 q 289 -147 310 -143 m 304 -325 q 283 -293 288 -307 q 279 -269 278 -279 q 299 -226 286 -249 q 321 -196 311 -203 q 338 -184 331 -187 q 350 -179 344 -181 q 386 -175 367 -168 q 421 -201 406 -182 q 437 -250 440 -232 q 411 -293 433 -268 q 349 -338 371 -333 q 304 -325 328 -343 z "},"E":{"ha":742,"x_min":104,"x_max":917,"o":"m 332 -54 q 246 -23 289 -51 q 167 31 203 6 q 131 81 143 54 q 110 153 118 108 q 110 222 104 179 q 128 309 115 265 q 151 378 140 353 q 194 462 168 417 q 245 548 219 507 q 286 614 271 589 q 295 624 296 624 q 294 625 294 625 q 309 660 294 632 q 335 711 324 689 q 358 747 356 733 q 354 769 361 761 q 366 793 351 775 q 407 834 381 811 q 465 875 433 857 q 530 903 499 901 q 567 890 561 906 q 583 888 567 886 q 620 895 599 890 q 658 903 642 900 q 691 916 665 911 q 751 925 717 921 q 792 924 769 924 q 831 926 814 925 q 849 928 849 928 q 877 916 858 931 q 907 876 896 901 q 890 833 917 851 q 807 808 864 815 q 742 799 765 803 q 694 791 719 796 q 619 775 668 786 q 561 764 585 768 q 520 747 538 760 q 482 703 503 735 q 457 667 472 696 q 426 608 442 638 q 369 528 388 554 q 356 496 350 503 q 375 492 356 496 q 400 488 394 488 q 434 497 414 494 q 467 503 454 500 q 594 535 553 525 q 652 550 635 546 q 683 556 669 554 q 723 553 703 571 q 751 513 743 536 q 751 469 761 485 q 709 444 742 454 q 617 422 676 435 q 467 383 557 408 q 343 357 390 361 q 299 381 296 353 q 277 370 289 386 q 256 326 265 354 q 238 267 246 299 q 229 207 231 235 q 233 164 228 179 q 269 109 244 132 q 340 72 293 86 q 394 68 368 71 q 454 79 421 65 q 568 108 536 93 q 607 129 600 124 q 622 140 618 135 q 632 146 625 146 q 635 146 628 139 q 657 165 642 153 q 715 196 686 190 q 764 197 744 201 q 785 185 783 192 q 776 141 793 171 q 726 78 760 111 q 646 18 692 44 q 486 -37 572 -21 q 332 -54 400 -53 z "},"É":{"ha":761,"x_min":99,"x_max":911,"o":"m 326 -54 q 240 -23 283 -51 q 161 31 197 6 q 125 81 138 54 q 104 153 113 108 q 104 222 99 179 q 122 309 110 265 q 146 378 135 353 q 188 462 163 417 q 240 548 214 507 q 281 614 265 589 q 290 624 290 624 q 289 625 289 625 q 303 660 289 632 q 329 711 318 689 q 353 747 350 733 q 349 769 356 761 q 360 793 346 775 q 401 834 375 811 q 460 875 428 857 q 524 903 493 901 q 561 890 556 906 q 577 888 561 886 q 615 895 593 890 q 653 903 636 900 q 685 916 660 911 q 746 925 711 921 q 786 924 764 924 q 826 926 808 925 q 843 928 843 928 q 872 916 853 931 q 901 876 890 901 q 885 833 911 851 q 801 808 858 815 q 737 799 760 803 q 688 791 714 796 q 614 775 663 786 q 556 764 579 768 q 515 747 532 760 q 476 703 497 735 q 451 667 467 696 q 421 608 436 638 q 363 528 382 554 q 350 496 344 503 q 369 492 350 496 q 394 488 389 488 q 428 497 408 494 q 461 503 449 500 q 588 535 547 525 q 647 550 629 546 q 678 556 664 554 q 717 553 697 571 q 746 513 738 536 q 746 469 756 485 q 703 444 736 454 q 611 422 671 435 q 461 383 551 408 q 338 357 385 361 q 293 381 290 353 q 272 370 283 386 q 250 326 260 354 q 233 267 240 299 q 224 207 225 235 q 228 164 222 179 q 263 109 239 132 q 335 72 288 86 q 389 68 363 71 q 449 79 415 65 q 563 108 531 93 q 601 129 594 124 q 616 140 613 135 q 626 146 619 146 q 629 146 622 139 q 651 165 636 153 q 710 196 681 190 q 758 197 739 201 q 779 185 778 192 q 771 141 788 171 q 720 78 754 111 q 640 18 686 44 q 481 -37 567 -21 q 326 -54 394 -53 m 697 992 q 683 1016 688 1001 q 679 1065 678 1031 q 698 1093 681 1072 q 740 1140 715 1114 q 789 1188 764 1167 q 829 1214 814 1208 q 867 1200 847 1221 q 889 1147 888 1179 q 876 1119 892 1136 q 838 1083 861 1101 q 792 1045 814 1064 q 758 1011 769 1026 q 728 985 744 989 q 697 992 713 982 z "},"Ĕ":{"ha":761,"x_min":99,"x_max":950,"o":"m 326 -54 q 240 -23 283 -51 q 161 31 197 6 q 125 81 138 54 q 104 153 113 108 q 104 222 99 179 q 122 309 110 265 q 146 378 135 353 q 188 462 163 417 q 240 548 214 507 q 281 614 265 589 q 290 624 290 624 q 289 625 289 625 q 303 660 289 632 q 329 711 318 689 q 353 747 350 733 q 349 769 356 761 q 360 793 346 775 q 401 834 375 811 q 460 875 428 857 q 524 903 493 901 q 561 890 556 906 q 577 888 561 886 q 615 895 593 890 q 653 903 636 900 q 685 916 660 911 q 746 925 711 921 q 786 924 764 924 q 826 926 808 925 q 843 928 843 928 q 872 916 853 931 q 901 876 890 901 q 885 833 911 851 q 801 808 858 815 q 737 799 760 803 q 688 791 714 796 q 614 775 663 786 q 556 764 579 768 q 515 747 532 760 q 476 703 497 735 q 451 667 467 696 q 421 608 436 638 q 363 528 382 554 q 350 496 344 503 q 369 492 350 496 q 394 488 389 488 q 428 497 408 494 q 461 503 449 500 q 588 535 547 525 q 647 550 629 546 q 678 556 664 554 q 717 553 697 571 q 746 513 738 536 q 746 469 756 485 q 703 444 736 454 q 611 422 671 435 q 461 383 551 408 q 338 357 385 361 q 293 381 290 353 q 272 370 283 386 q 250 326 260 354 q 233 267 240 299 q 224 207 225 235 q 228 164 222 179 q 263 109 239 132 q 335 72 288 86 q 389 68 363 71 q 449 79 415 65 q 563 108 531 93 q 601 129 594 124 q 616 140 613 135 q 626 146 619 146 q 629 146 622 139 q 651 165 636 153 q 710 196 681 190 q 758 197 739 201 q 779 185 778 192 q 771 141 788 171 q 720 78 754 111 q 640 18 686 44 q 481 -37 567 -21 q 326 -54 394 -53 m 751 974 q 669 996 707 978 q 613 1049 631 1014 q 608 1138 596 1085 q 635 1190 617 1175 q 671 1202 653 1204 q 699 1185 689 1200 q 703 1146 710 1169 q 699 1113 699 1131 q 715 1082 700 1094 q 772 1071 731 1069 q 806 1084 790 1072 q 833 1113 821 1096 q 853 1143 844 1129 q 895 1195 876 1185 q 927 1197 914 1206 q 945 1168 940 1188 q 946 1129 950 1149 q 923 1074 940 1103 q 880 1021 906 1044 q 822 984 854 997 q 751 974 789 971 z "},"Ě":{"ha":761,"x_min":99,"x_max":943,"o":"m 326 -54 q 240 -23 283 -51 q 161 31 197 6 q 125 81 138 54 q 104 153 113 108 q 104 222 99 179 q 122 309 110 265 q 146 378 135 353 q 188 462 163 417 q 240 548 214 507 q 281 614 265 589 q 290 624 290 624 q 289 625 289 625 q 303 660 289 632 q 329 711 318 689 q 353 747 350 733 q 349 769 356 761 q 360 793 346 775 q 401 834 375 811 q 460 875 428 857 q 524 903 493 901 q 561 890 556 906 q 577 888 561 886 q 615 895 593 890 q 653 903 636 900 q 685 916 660 911 q 746 925 711 921 q 786 924 764 924 q 826 926 808 925 q 843 928 843 928 q 872 916 853 931 q 901 876 890 901 q 885 833 911 851 q 801 808 858 815 q 737 799 760 803 q 688 791 714 796 q 614 775 663 786 q 556 764 579 768 q 515 747 532 760 q 476 703 497 735 q 451 667 467 696 q 421 608 436 638 q 363 528 382 554 q 350 496 344 503 q 369 492 350 496 q 394 488 389 488 q 428 497 408 494 q 461 503 449 500 q 588 535 547 525 q 647 550 629 546 q 678 556 664 554 q 717 553 697 571 q 746 513 738 536 q 746 469 756 485 q 703 444 736 454 q 611 422 671 435 q 461 383 551 408 q 338 357 385 361 q 293 381 290 353 q 272 370 283 386 q 250 326 260 354 q 233 267 240 299 q 224 207 225 235 q 228 164 222 179 q 263 109 239 132 q 335 72 288 86 q 389 68 363 71 q 449 79 415 65 q 563 108 531 93 q 601 129 594 124 q 616 140 613 135 q 626 146 619 146 q 629 146 622 139 q 651 165 636 153 q 710 196 681 190 q 758 197 739 201 q 779 185 778 192 q 771 141 788 171 q 720 78 754 111 q 640 18 686 44 q 481 -37 567 -21 q 326 -54 394 -53 m 781 1000 q 754 989 769 992 q 719 1003 739 986 q 678 1042 706 1017 q 628 1092 651 1067 q 597 1131 604 1118 q 604 1174 592 1154 q 639 1197 617 1194 q 683 1174 661 1200 q 714 1141 693 1160 q 757 1103 735 1122 q 799 1128 774 1113 q 846 1160 824 1144 q 878 1185 868 1176 q 918 1191 903 1200 q 938 1163 933 1182 q 936 1131 943 1144 q 917 1108 935 1125 q 874 1069 899 1090 q 824 1028 849 1047 q 781 1000 799 1010 z "},"Ê":{"ha":761,"x_min":99,"x_max":953,"o":"m 326 -54 q 240 -23 283 -51 q 161 31 197 6 q 125 81 138 54 q 104 153 113 108 q 104 222 99 179 q 122 309 110 265 q 146 378 135 353 q 188 462 163 417 q 240 548 214 507 q 281 614 265 589 q 290 624 290 624 q 289 625 289 625 q 303 660 289 632 q 329 711 318 689 q 353 747 350 733 q 349 769 356 761 q 360 793 346 775 q 401 834 375 811 q 460 875 428 857 q 524 903 493 901 q 561 890 556 906 q 577 888 561 886 q 615 895 593 890 q 653 903 636 900 q 685 916 660 911 q 746 925 711 921 q 786 924 764 924 q 826 926 808 925 q 843 928 843 928 q 872 916 853 931 q 901 876 890 901 q 885 833 911 851 q 801 808 858 815 q 737 799 760 803 q 688 791 714 796 q 614 775 663 786 q 556 764 579 768 q 515 747 532 760 q 476 703 497 735 q 451 667 467 696 q 421 608 436 638 q 363 528 382 554 q 350 496 344 503 q 369 492 350 496 q 394 488 389 488 q 428 497 408 494 q 461 503 449 500 q 588 535 547 525 q 647 550 629 546 q 678 556 664 554 q 717 553 697 571 q 746 513 738 536 q 746 469 756 485 q 703 444 736 454 q 611 422 671 435 q 461 383 551 408 q 338 357 385 361 q 293 381 290 353 q 272 370 283 386 q 250 326 260 354 q 233 267 240 299 q 224 207 225 235 q 228 164 222 179 q 263 109 239 132 q 335 72 288 86 q 389 68 363 71 q 449 79 415 65 q 563 108 531 93 q 601 129 594 124 q 616 140 613 135 q 626 146 619 146 q 629 146 622 139 q 651 165 636 153 q 710 196 681 190 q 758 197 739 201 q 779 185 778 192 q 771 141 788 171 q 720 78 754 111 q 640 18 686 44 q 481 -37 567 -21 q 326 -54 394 -53 m 679 1010 q 636 994 656 986 q 610 1024 617 1001 q 617 1067 604 1047 q 638 1088 621 1072 q 679 1125 656 1104 q 726 1163 703 1146 q 763 1189 749 1181 q 799 1201 781 1204 q 826 1185 818 1197 q 867 1148 843 1171 q 913 1102 890 1125 q 944 1065 935 1079 q 948 1031 953 1049 q 929 1001 943 1013 q 897 992 915 990 q 861 1018 879 994 q 831 1048 851 1026 q 789 1088 810 1069 q 750 1063 772 1078 q 708 1033 728 1047 q 679 1010 689 1018 z "},"Ȅ":{"ha":761,"x_min":99,"x_max":911,"o":"m 326 -54 q 240 -23 283 -51 q 161 31 197 6 q 125 81 138 54 q 104 153 113 108 q 104 222 99 179 q 122 309 110 265 q 146 378 135 353 q 188 462 163 417 q 240 548 214 507 q 281 614 265 589 q 290 624 290 624 q 289 625 289 625 q 303 660 289 632 q 329 711 318 689 q 353 747 350 733 q 349 769 356 761 q 360 793 346 775 q 401 834 375 811 q 460 875 428 857 q 524 903 493 901 q 561 890 556 906 q 577 888 561 886 q 615 895 593 890 q 653 903 636 900 q 685 916 660 911 q 746 925 711 921 q 786 924 764 924 q 826 926 808 925 q 843 928 843 928 q 872 916 853 931 q 901 876 890 901 q 885 833 911 851 q 801 808 858 815 q 737 799 760 803 q 688 791 714 796 q 614 775 663 786 q 556 764 579 768 q 515 747 532 760 q 476 703 497 735 q 451 667 467 696 q 421 608 436 638 q 363 528 382 554 q 350 496 344 503 q 369 492 350 496 q 394 488 389 488 q 428 497 408 494 q 461 503 449 500 q 588 535 547 525 q 647 550 629 546 q 678 556 664 554 q 717 553 697 571 q 746 513 738 536 q 746 469 756 485 q 703 444 736 454 q 611 422 671 435 q 461 383 551 408 q 338 357 385 361 q 293 381 290 353 q 272 370 283 386 q 250 326 260 354 q 233 267 240 299 q 224 207 225 235 q 228 164 222 179 q 263 109 239 132 q 335 72 288 86 q 389 68 363 71 q 449 79 415 65 q 563 108 531 93 q 601 129 594 124 q 616 140 613 135 q 626 146 619 146 q 629 146 622 139 q 651 165 636 153 q 710 196 681 190 q 758 197 739 201 q 779 185 778 192 q 771 141 788 171 q 720 78 754 111 q 640 18 686 44 q 481 -37 567 -21 q 326 -54 394 -53 m 613 979 q 591 980 599 972 q 575 1022 583 988 q 552 1068 567 1043 q 524 1117 538 1093 q 505 1163 510 1142 q 510 1197 500 1183 q 545 1228 525 1217 q 581 1229 565 1240 q 610 1193 594 1221 q 639 1132 625 1165 q 661 1073 653 1099 q 669 1043 669 1047 q 660 1022 671 1035 q 635 997 649 1008 q 613 979 621 985 m 783 981 q 761 979 768 974 q 746 1018 754 985 q 718 1070 733 1043 q 690 1121 703 1097 q 673 1164 678 1144 q 676 1194 668 1183 q 718 1231 700 1225 q 746 1231 736 1238 q 773 1200 758 1224 q 801 1147 788 1176 q 824 1088 814 1117 q 838 1040 833 1060 q 824 1017 839 1035 q 783 981 810 1000 z "},"Ë":{"ha":761,"x_min":99,"x_max":971,"o":"m 326 -54 q 240 -23 283 -51 q 161 31 197 6 q 125 81 138 54 q 104 153 113 108 q 104 222 99 179 q 122 309 110 265 q 146 378 135 353 q 188 462 163 417 q 240 548 214 507 q 281 614 265 589 q 290 624 290 624 q 289 625 289 625 q 303 660 289 632 q 329 711 318 689 q 353 747 350 733 q 349 769 356 761 q 360 793 346 775 q 401 834 375 811 q 460 875 428 857 q 524 903 493 901 q 561 890 556 906 q 577 888 561 886 q 615 895 593 890 q 653 903 636 900 q 685 916 660 911 q 746 925 711 921 q 786 924 764 924 q 826 926 808 925 q 843 928 843 928 q 872 916 853 931 q 901 876 890 901 q 885 833 911 851 q 801 808 858 815 q 737 799 760 803 q 688 791 714 796 q 614 775 663 786 q 556 764 579 768 q 515 747 532 760 q 476 703 497 735 q 451 667 467 696 q 421 608 436 638 q 363 528 382 554 q 350 496 344 503 q 369 492 350 496 q 394 488 389 488 q 428 497 408 494 q 461 503 449 500 q 588 535 547 525 q 647 550 629 546 q 678 556 664 554 q 717 553 697 571 q 746 513 738 536 q 746 469 756 485 q 703 444 736 454 q 611 422 671 435 q 461 383 551 408 q 338 357 385 361 q 293 381 290 353 q 272 370 283 386 q 250 326 260 354 q 233 267 240 299 q 224 207 225 235 q 228 164 222 179 q 263 109 239 132 q 335 72 288 86 q 389 68 363 71 q 449 79 415 65 q 563 108 531 93 q 601 129 594 124 q 616 140 613 135 q 626 146 619 146 q 629 146 622 139 q 651 165 636 153 q 710 196 681 190 q 758 197 739 201 q 779 185 778 192 q 771 141 788 171 q 720 78 754 111 q 640 18 686 44 q 481 -37 567 -21 q 326 -54 394 -53 m 828 1036 q 811 1067 818 1046 q 806 1094 804 1089 q 817 1124 808 1101 q 831 1151 825 1146 q 853 1177 838 1161 q 874 1194 868 1193 q 911 1203 889 1211 q 944 1172 933 1194 q 961 1110 971 1140 q 924 1053 951 1081 q 872 1013 896 1010 q 828 1036 847 1015 m 628 1022 q 599 1060 608 1036 q 592 1093 589 1083 q 610 1140 594 1113 q 635 1176 625 1168 q 648 1186 639 1179 q 664 1197 657 1193 q 698 1202 682 1210 q 726 1178 714 1194 q 742 1147 738 1163 q 744 1106 751 1129 q 714 1060 736 1083 q 672 1019 692 1031 q 628 1022 651 1007 z "},"Ė":{"ha":761,"x_min":99,"x_max":911,"o":"m 326 -54 q 240 -23 283 -51 q 161 31 197 6 q 125 81 138 54 q 104 153 113 108 q 104 222 99 179 q 122 309 110 265 q 146 378 135 353 q 188 462 163 417 q 240 548 214 507 q 281 614 265 589 q 290 624 290 624 q 289 625 289 625 q 303 660 289 632 q 329 711 318 689 q 353 747 350 733 q 349 769 356 761 q 360 793 346 775 q 401 834 375 811 q 460 875 428 857 q 524 903 493 901 q 561 890 556 906 q 577 888 561 886 q 615 895 593 890 q 653 903 636 900 q 685 916 660 911 q 746 925 711 921 q 786 924 764 924 q 826 926 808 925 q 843 928 843 928 q 872 916 853 931 q 901 876 890 901 q 885 833 911 851 q 801 808 858 815 q 737 799 760 803 q 688 791 714 796 q 614 775 663 786 q 556 764 579 768 q 515 747 532 760 q 476 703 497 735 q 451 667 467 696 q 421 608 436 638 q 363 528 382 554 q 350 496 344 503 q 369 492 350 496 q 394 488 389 488 q 428 497 408 494 q 461 503 449 500 q 588 535 547 525 q 647 550 629 546 q 678 556 664 554 q 717 553 697 571 q 746 513 738 536 q 746 469 756 485 q 703 444 736 454 q 611 422 671 435 q 461 383 551 408 q 338 357 385 361 q 293 381 290 353 q 272 370 283 386 q 250 326 260 354 q 233 267 240 299 q 224 207 225 235 q 228 164 222 179 q 263 109 239 132 q 335 72 288 86 q 389 68 363 71 q 449 79 415 65 q 563 108 531 93 q 601 129 594 124 q 616 140 613 135 q 626 146 619 146 q 629 146 622 139 q 651 165 636 153 q 710 196 681 190 q 758 197 739 201 q 779 185 778 192 q 771 141 788 171 q 720 78 754 111 q 640 18 686 44 q 481 -37 567 -21 q 326 -54 394 -53 m 722 1022 q 703 1051 713 1032 q 696 1086 694 1071 q 710 1123 699 1093 q 744 1172 721 1153 q 753 1181 749 1175 q 764 1189 758 1188 q 798 1199 781 1200 q 840 1171 815 1199 q 855 1106 864 1131 q 818 1047 846 1081 q 775 1008 797 1019 q 722 1022 753 997 z "},"Ẹ":{"ha":761,"x_min":99,"x_max":911,"o":"m 326 -54 q 240 -23 283 -51 q 161 31 197 6 q 125 81 138 54 q 104 153 113 108 q 104 222 99 179 q 122 309 110 265 q 146 378 135 353 q 188 462 163 417 q 240 548 214 507 q 281 614 265 589 q 290 624 290 624 q 289 625 289 625 q 303 660 289 632 q 329 711 318 689 q 353 747 350 733 q 349 769 356 761 q 360 793 346 775 q 401 834 375 811 q 460 875 428 857 q 524 903 493 901 q 561 890 556 906 q 577 888 561 886 q 615 895 593 890 q 653 903 636 900 q 685 916 660 911 q 746 925 711 921 q 786 924 764 924 q 826 926 808 925 q 843 928 843 928 q 872 916 853 931 q 901 876 890 901 q 885 833 911 851 q 801 808 858 815 q 737 799 760 803 q 688 791 714 796 q 614 775 663 786 q 556 764 579 768 q 515 747 532 760 q 476 703 497 735 q 451 667 467 696 q 421 608 436 638 q 363 528 382 554 q 350 496 344 503 q 369 492 350 496 q 394 488 389 488 q 428 497 408 494 q 461 503 449 500 q 588 535 547 525 q 647 550 629 546 q 678 556 664 554 q 717 553 697 571 q 746 513 738 536 q 746 469 756 485 q 703 444 736 454 q 611 422 671 435 q 461 383 551 408 q 338 357 385 361 q 293 381 290 353 q 272 370 283 386 q 250 326 260 354 q 233 267 240 299 q 224 207 225 235 q 228 164 222 179 q 263 109 239 132 q 335 72 288 86 q 389 68 363 71 q 449 79 415 65 q 563 108 531 93 q 601 129 594 124 q 616 140 613 135 q 626 146 619 146 q 629 146 622 139 q 651 165 636 153 q 710 196 681 190 q 758 197 739 201 q 779 185 778 192 q 771 141 788 171 q 720 78 754 111 q 640 18 686 44 q 481 -37 567 -21 q 326 -54 394 -53 m 293 -239 q 272 -207 276 -221 q 268 -183 267 -193 q 288 -140 275 -162 q 310 -110 300 -117 q 326 -98 319 -101 q 339 -93 333 -94 q 375 -89 356 -82 q 410 -115 394 -96 q 426 -164 429 -146 q 400 -207 422 -182 q 338 -252 360 -247 q 293 -239 317 -257 z "},"È":{"ha":761,"x_min":99,"x_max":911,"o":"m 326 -54 q 240 -23 283 -51 q 161 31 197 6 q 125 81 138 54 q 104 153 113 108 q 104 222 99 179 q 122 309 110 265 q 146 378 135 353 q 188 462 163 417 q 240 548 214 507 q 281 614 265 589 q 290 624 290 624 q 289 625 289 625 q 303 660 289 632 q 329 711 318 689 q 353 747 350 733 q 349 769 356 761 q 360 793 346 775 q 401 834 375 811 q 460 875 428 857 q 524 903 493 901 q 561 890 556 906 q 577 888 561 886 q 615 895 593 890 q 653 903 636 900 q 685 916 660 911 q 746 925 711 921 q 786 924 764 924 q 826 926 808 925 q 843 928 843 928 q 872 916 853 931 q 901 876 890 901 q 885 833 911 851 q 801 808 858 815 q 737 799 760 803 q 688 791 714 796 q 614 775 663 786 q 556 764 579 768 q 515 747 532 760 q 476 703 497 735 q 451 667 467 696 q 421 608 436 638 q 363 528 382 554 q 350 496 344 503 q 369 492 350 496 q 394 488 389 488 q 428 497 408 494 q 461 503 449 500 q 588 535 547 525 q 647 550 629 546 q 678 556 664 554 q 717 553 697 571 q 746 513 738 536 q 746 469 756 485 q 703 444 736 454 q 611 422 671 435 q 461 383 551 408 q 338 357 385 361 q 293 381 290 353 q 272 370 283 386 q 250 326 260 354 q 233 267 240 299 q 224 207 225 235 q 228 164 222 179 q 263 109 239 132 q 335 72 288 86 q 389 68 363 71 q 449 79 415 65 q 563 108 531 93 q 601 129 594 124 q 616 140 613 135 q 626 146 619 146 q 629 146 622 139 q 651 165 636 153 q 710 196 681 190 q 758 197 739 201 q 779 185 778 192 q 771 141 788 171 q 720 78 754 111 q 640 18 686 44 q 481 -37 567 -21 q 326 -54 394 -53 m 785 978 q 766 983 771 971 q 758 1013 761 994 q 744 1046 754 1032 q 712 1101 731 1072 q 685 1158 693 1131 q 692 1201 676 1185 q 738 1235 722 1233 q 768 1221 754 1236 q 791 1190 778 1215 q 817 1132 804 1164 q 840 1074 831 1100 q 849 1039 849 1047 q 829 1010 850 1033 q 785 978 808 986 z "},"Ȇ":{"ha":761,"x_min":99,"x_max":921,"o":"m 326 -54 q 240 -23 283 -51 q 161 31 197 6 q 125 81 138 54 q 104 153 113 108 q 104 222 99 179 q 122 309 110 265 q 146 378 135 353 q 188 462 163 417 q 240 548 214 507 q 281 614 265 589 q 290 624 290 624 q 289 625 289 625 q 303 660 289 632 q 329 711 318 689 q 353 747 350 733 q 349 769 356 761 q 360 793 346 775 q 401 834 375 811 q 460 875 428 857 q 524 903 493 901 q 561 890 556 906 q 577 888 561 886 q 615 895 593 890 q 653 903 636 900 q 685 916 660 911 q 746 925 711 921 q 786 924 764 924 q 826 926 808 925 q 843 928 843 928 q 872 916 853 931 q 901 876 890 901 q 885 833 911 851 q 801 808 858 815 q 737 799 760 803 q 688 791 714 796 q 614 775 663 786 q 556 764 579 768 q 515 747 532 760 q 476 703 497 735 q 451 667 467 696 q 421 608 436 638 q 363 528 382 554 q 350 496 344 503 q 369 492 350 496 q 394 488 389 488 q 428 497 408 494 q 461 503 449 500 q 588 535 547 525 q 647 550 629 546 q 678 556 664 554 q 717 553 697 571 q 746 513 738 536 q 746 469 756 485 q 703 444 736 454 q 611 422 671 435 q 461 383 551 408 q 338 357 385 361 q 293 381 290 353 q 272 370 283 386 q 250 326 260 354 q 233 267 240 299 q 224 207 225 235 q 228 164 222 179 q 263 109 239 132 q 335 72 288 86 q 389 68 363 71 q 449 79 415 65 q 563 108 531 93 q 601 129 594 124 q 616 140 613 135 q 626 146 619 146 q 629 146 622 139 q 651 165 636 153 q 710 196 681 190 q 758 197 739 201 q 779 185 778 192 q 771 141 788 171 q 720 78 754 111 q 640 18 686 44 q 481 -37 567 -21 q 326 -54 394 -53 m 806 1026 q 813 1064 808 1044 q 807 1097 817 1083 q 758 1111 797 1111 q 720 1103 740 1113 q 681 1072 700 1093 q 642 1013 661 1050 q 606 979 624 982 q 576 996 588 976 q 563 1050 564 1015 q 597 1105 575 1076 q 645 1158 618 1133 q 703 1197 672 1183 q 764 1208 733 1211 q 859 1176 824 1203 q 908 1113 894 1150 q 911 1038 921 1075 q 872 979 897 990 q 825 983 846 968 q 806 1026 804 997 z "},"Ē":{"ha":761,"x_min":99,"x_max":936,"o":"m 326 -54 q 240 -23 283 -51 q 161 31 197 6 q 125 81 138 54 q 104 153 113 108 q 104 222 99 179 q 122 309 110 265 q 146 378 135 353 q 188 462 163 417 q 240 548 214 507 q 281 614 265 589 q 290 624 290 624 q 289 625 289 625 q 303 660 289 632 q 329 711 318 689 q 353 747 350 733 q 349 769 356 761 q 360 793 346 775 q 401 834 375 811 q 460 875 428 857 q 524 903 493 901 q 561 890 556 906 q 577 888 561 886 q 615 895 593 890 q 653 903 636 900 q 685 916 660 911 q 746 925 711 921 q 786 924 764 924 q 826 926 808 925 q 843 928 843 928 q 872 916 853 931 q 901 876 890 901 q 885 833 911 851 q 801 808 858 815 q 737 799 760 803 q 688 791 714 796 q 614 775 663 786 q 556 764 579 768 q 515 747 532 760 q 476 703 497 735 q 451 667 467 696 q 421 608 436 638 q 363 528 382 554 q 350 496 344 503 q 369 492 350 496 q 394 488 389 488 q 428 497 408 494 q 461 503 449 500 q 588 535 547 525 q 647 550 629 546 q 678 556 664 554 q 717 553 697 571 q 746 513 738 536 q 746 469 756 485 q 703 444 736 454 q 611 422 671 435 q 461 383 551 408 q 338 357 385 361 q 293 381 290 353 q 272 370 283 386 q 250 326 260 354 q 233 267 240 299 q 224 207 225 235 q 228 164 222 179 q 263 109 239 132 q 335 72 288 86 q 389 68 363 71 q 449 79 415 65 q 563 108 531 93 q 601 129 594 124 q 616 140 613 135 q 626 146 619 146 q 629 146 622 139 q 651 165 636 153 q 710 196 681 190 q 758 197 739 201 q 779 185 778 192 q 771 141 788 171 q 720 78 754 111 q 640 18 686 44 q 481 -37 567 -21 q 326 -54 394 -53 m 685 1056 q 656 1056 671 1054 q 628 1063 642 1058 q 597 1071 607 1065 q 578 1092 588 1076 q 584 1123 565 1113 q 649 1139 603 1133 q 728 1153 692 1147 q 808 1158 765 1158 q 876 1152 851 1158 q 918 1129 901 1146 q 931 1092 936 1114 q 900 1068 925 1071 q 869 1067 890 1068 q 826 1065 849 1065 q 788 1063 804 1064 q 762 1060 776 1061 q 728 1057 747 1058 q 685 1056 710 1056 z "},"Ę":{"ha":761,"x_min":99,"x_max":911,"o":"m 326 -54 q 240 -23 283 -51 q 161 31 197 6 q 125 81 138 54 q 104 153 113 108 q 104 222 99 179 q 122 309 110 265 q 146 378 135 353 q 188 462 163 417 q 240 548 214 507 q 281 614 265 589 q 290 624 290 624 q 289 625 289 625 q 303 660 289 632 q 329 711 318 689 q 353 747 350 733 q 349 769 356 761 q 360 793 346 775 q 401 834 375 811 q 460 875 428 857 q 524 903 493 901 q 561 890 556 906 q 577 888 561 886 q 615 895 593 890 q 653 903 636 900 q 685 916 660 911 q 746 925 711 921 q 786 924 764 924 q 826 926 808 925 q 843 928 843 928 q 872 916 853 931 q 901 876 890 901 q 885 833 911 851 q 801 808 858 815 q 737 799 760 803 q 688 791 714 796 q 614 775 663 786 q 556 764 579 768 q 515 747 532 760 q 476 703 497 735 q 451 667 467 696 q 421 608 436 638 q 363 528 382 554 q 350 496 344 503 q 369 492 350 496 q 394 488 389 488 q 428 497 408 494 q 461 503 449 500 q 588 535 547 525 q 647 550 629 546 q 678 556 664 554 q 717 553 697 571 q 746 513 738 536 q 746 469 756 485 q 703 444 736 454 q 611 422 671 435 q 461 383 551 408 q 338 357 385 361 q 293 381 290 353 q 272 370 283 386 q 250 326 260 354 q 233 267 240 299 q 224 207 225 235 q 228 164 222 179 q 263 109 239 132 q 335 72 288 86 q 389 68 363 71 q 449 79 415 65 q 563 108 531 93 q 601 129 594 124 q 616 140 613 135 q 626 146 619 146 q 629 146 622 139 q 651 165 636 153 q 710 196 681 190 q 758 197 739 201 q 779 185 778 192 q 771 141 788 171 q 720 78 754 111 q 640 18 686 44 q 481 -37 567 -21 q 326 -54 394 -53 m 511 -246 q 456 -215 483 -237 q 418 -159 428 -193 q 433 -83 408 -125 q 483 -20 451 -53 q 552 42 515 13 q 619 92 589 72 l 696 50 q 623 -3 665 32 q 556 -69 581 -39 q 528 -108 536 -93 q 531 -139 521 -124 q 556 -147 535 -147 q 610 -128 588 -142 q 667 -97 632 -114 q 694 -97 685 -87 q 706 -122 704 -106 q 702 -156 708 -139 q 679 -181 696 -174 q 653 -192 674 -182 q 605 -213 632 -201 q 552 -234 578 -225 q 511 -246 526 -243 z "},"Ẽ":{"ha":761,"x_min":99,"x_max":981,"o":"m 326 -54 q 240 -23 283 -51 q 161 31 197 6 q 125 81 138 54 q 104 153 113 108 q 104 222 99 179 q 122 309 110 265 q 146 378 135 353 q 188 462 163 417 q 240 548 214 507 q 281 614 265 589 q 290 624 290 624 q 289 625 289 625 q 303 660 289 632 q 329 711 318 689 q 353 747 350 733 q 349 769 356 761 q 360 793 346 775 q 401 834 375 811 q 460 875 428 857 q 524 903 493 901 q 561 890 556 906 q 577 888 561 886 q 615 895 593 890 q 653 903 636 900 q 685 916 660 911 q 746 925 711 921 q 786 924 764 924 q 826 926 808 925 q 843 928 843 928 q 872 916 853 931 q 901 876 890 901 q 885 833 911 851 q 801 808 858 815 q 737 799 760 803 q 688 791 714 796 q 614 775 663 786 q 556 764 579 768 q 515 747 532 760 q 476 703 497 735 q 451 667 467 696 q 421 608 436 638 q 363 528 382 554 q 350 496 344 503 q 369 492 350 496 q 394 488 389 488 q 428 497 408 494 q 461 503 449 500 q 588 535 547 525 q 647 550 629 546 q 678 556 664 554 q 717 553 697 571 q 746 513 738 536 q 746 469 756 485 q 703 444 736 454 q 611 422 671 435 q 461 383 551 408 q 338 357 385 361 q 293 381 290 353 q 272 370 283 386 q 250 326 260 354 q 233 267 240 299 q 224 207 225 235 q 228 164 222 179 q 263 109 239 132 q 335 72 288 86 q 389 68 363 71 q 449 79 415 65 q 563 108 531 93 q 601 129 594 124 q 616 140 613 135 q 626 146 619 146 q 629 146 622 139 q 651 165 636 153 q 710 196 681 190 q 758 197 739 201 q 779 185 778 192 q 771 141 788 171 q 720 78 754 111 q 640 18 686 44 q 481 -37 567 -21 q 326 -54 394 -53 m 824 1008 q 782 1019 804 1008 q 735 1051 760 1031 q 703 1077 722 1058 q 668 1096 685 1096 q 645 1085 654 1096 q 628 1063 636 1074 q 606 1049 621 1051 q 597 1030 601 1039 q 581 1028 592 1021 q 557 1042 567 1031 q 543 1079 547 1053 q 578 1140 554 1111 q 636 1186 601 1168 q 705 1186 681 1197 q 751 1151 729 1175 q 803 1121 785 1125 q 847 1128 821 1117 q 888 1146 868 1133 q 938 1169 908 1158 q 958 1164 947 1174 q 974 1140 968 1154 q 979 1118 981 1126 q 965 1087 978 1101 q 940 1065 953 1072 q 875 1029 899 1042 q 840 1013 851 1017 q 824 1008 829 1008 z "},"F":{"ha":647,"x_min":101,"x_max":917,"o":"m 722 418 q 688 405 714 413 q 601 390 663 397 q 550 388 583 389 q 478 385 517 386 q 409 384 440 383 q 365 388 378 385 q 359 381 365 388 q 353 363 353 374 q 329 313 343 346 q 299 242 315 281 q 269 165 283 203 q 247 98 256 126 q 238 58 238 69 q 222 1 225 25 q 213 -26 219 -22 q 187 -47 208 -47 q 154 -35 165 -47 q 113 5 124 -19 q 111 60 101 29 q 126 113 115 78 q 149 192 136 149 q 177 276 163 235 q 206 343 192 317 q 225 391 221 369 q 236 431 229 413 q 236 451 235 446 q 247 468 238 456 q 265 488 254 474 q 289 533 275 503 q 302 572 293 547 q 319 622 311 596 q 335 665 328 647 q 342 685 342 683 q 350 706 344 690 q 358 732 356 722 q 367 764 364 751 q 365 776 371 776 q 321 772 354 774 q 297 769 304 769 q 283 767 289 768 q 258 769 269 765 q 247 786 247 774 q 263 832 250 808 q 297 857 276 856 q 319 862 307 860 q 351 869 331 864 q 398 873 378 875 q 426 868 418 871 q 438 877 433 872 q 444 888 443 882 q 469 926 451 913 q 508 940 488 939 q 540 928 528 940 q 547 890 553 917 q 551 883 549 886 q 572 884 553 881 q 638 897 590 888 q 701 903 663 900 q 761 899 739 906 q 803 902 785 903 q 829 907 822 901 q 872 899 858 901 q 893 890 885 897 q 897 880 899 885 q 896 875 896 875 q 894 876 890 878 q 906 868 899 874 q 916 851 915 864 q 915 824 917 838 q 911 807 913 811 q 897 792 910 794 q 835 792 885 790 q 724 798 775 800 q 597 785 674 796 q 545 777 567 783 q 524 771 524 771 q 504 752 518 771 q 478 697 490 733 q 459 657 472 688 q 432 591 446 626 q 407 528 418 556 q 393 499 396 501 q 453 493 413 493 q 544 497 494 493 q 639 504 594 500 q 682 511 660 508 q 713 513 704 514 q 738 491 729 511 q 743 449 746 471 q 722 418 740 428 z "},"G":{"ha":686,"x_min":143,"x_max":847,"o":"m 221 -64 q 163 16 183 -36 q 144 113 143 68 q 159 290 143 199 q 201 461 175 382 q 240 563 219 511 q 283 660 261 614 q 326 739 306 707 q 415 857 369 813 q 483 915 460 901 q 576 945 522 935 q 682 944 631 956 q 753 917 718 935 q 815 872 789 899 q 839 843 831 858 q 847 811 847 828 q 828 771 847 790 q 785 744 808 751 q 749 753 761 738 q 714 795 731 781 q 679 817 697 810 q 638 826 664 826 q 583 817 613 826 q 528 786 554 808 q 502 763 518 778 q 469 726 486 747 q 438 679 451 704 q 372 549 399 615 q 324 406 344 483 q 303 327 314 374 q 283 235 292 281 q 271 154 274 189 q 274 78 267 106 q 303 41 281 50 q 365 42 325 32 q 438 70 401 50 q 510 122 475 90 q 572 196 544 153 q 613 282 597 243 q 630 344 629 321 q 606 365 631 367 q 515 369 549 364 q 468 397 481 375 q 449 428 450 401 q 475 471 449 454 q 540 486 499 483 q 626 484 582 489 q 696 464 669 479 q 738 419 726 449 q 751 356 750 389 q 746 293 751 322 q 712 199 733 244 q 654 106 690 153 q 597 44 633 76 q 522 -13 561 13 q 447 -54 482 -39 q 331 -90 392 -79 q 221 -64 271 -101 z "},"Ǵ":{"ha":692,"x_min":138,"x_max":856,"o":"m 215 -64 q 158 16 178 -36 q 139 113 138 68 q 153 290 138 199 q 196 461 169 382 q 235 563 214 511 q 278 660 256 614 q 321 739 300 707 q 409 857 364 813 q 478 915 454 901 q 571 945 517 935 q 676 944 625 956 q 748 917 713 935 q 810 872 783 899 q 833 843 825 858 q 842 811 842 828 q 822 771 842 790 q 779 744 803 751 q 743 753 756 738 q 708 795 725 781 q 674 817 692 810 q 633 826 658 826 q 578 817 607 826 q 522 786 549 808 q 497 763 513 778 q 463 726 481 747 q 432 679 446 704 q 366 549 393 615 q 318 406 339 483 q 297 327 308 374 q 277 235 286 281 q 265 154 268 189 q 268 78 261 106 q 297 41 275 50 q 360 42 319 32 q 433 70 396 50 q 504 122 469 90 q 567 196 539 153 q 608 282 592 243 q 624 344 624 321 q 600 365 625 367 q 509 369 543 364 q 463 397 475 375 q 444 428 444 401 q 469 471 443 454 q 535 486 493 483 q 620 484 576 489 q 690 464 664 479 q 733 419 721 449 q 745 356 744 389 q 740 293 746 322 q 706 199 728 244 q 649 106 685 153 q 592 44 628 76 q 516 -13 556 13 q 442 -54 476 -39 q 326 -90 386 -79 q 215 -64 265 -101 m 661 992 q 647 1016 651 1001 q 643 1065 642 1031 q 662 1093 644 1072 q 703 1140 679 1114 q 753 1188 728 1167 q 793 1214 778 1208 q 831 1200 811 1221 q 853 1147 851 1179 q 840 1119 856 1136 q 801 1083 825 1101 q 756 1045 778 1064 q 722 1011 733 1026 q 692 985 708 989 q 661 992 676 982 z "},"Ğ":{"ha":692,"x_min":138,"x_max":914,"o":"m 215 -64 q 158 16 178 -36 q 139 113 138 68 q 153 290 138 199 q 196 461 169 382 q 235 563 214 511 q 278 660 256 614 q 321 739 300 707 q 409 857 364 813 q 478 915 454 901 q 571 945 517 935 q 676 944 625 956 q 748 917 713 935 q 810 872 783 899 q 833 843 825 858 q 842 811 842 828 q 822 771 842 790 q 779 744 803 751 q 743 753 756 738 q 708 795 725 781 q 674 817 692 810 q 633 826 658 826 q 578 817 607 826 q 522 786 549 808 q 497 763 513 778 q 463 726 481 747 q 432 679 446 704 q 366 549 393 615 q 318 406 339 483 q 297 327 308 374 q 277 235 286 281 q 265 154 268 189 q 268 78 261 106 q 297 41 275 50 q 360 42 319 32 q 433 70 396 50 q 504 122 469 90 q 567 196 539 153 q 608 282 592 243 q 624 344 624 321 q 600 365 625 367 q 509 369 543 364 q 463 397 475 375 q 444 428 444 401 q 469 471 443 454 q 535 486 493 483 q 620 484 576 489 q 690 464 664 479 q 733 419 721 449 q 745 356 744 389 q 740 293 746 322 q 706 199 728 244 q 649 106 685 153 q 592 44 628 76 q 516 -13 556 13 q 442 -54 476 -39 q 326 -90 386 -79 q 215 -64 265 -101 m 715 974 q 633 996 671 978 q 577 1049 594 1014 q 572 1138 560 1085 q 599 1190 581 1175 q 635 1202 617 1204 q 663 1185 653 1200 q 667 1146 674 1169 q 663 1113 663 1131 q 679 1082 664 1094 q 736 1071 694 1069 q 769 1084 754 1072 q 797 1113 785 1096 q 817 1143 808 1129 q 859 1195 840 1185 q 891 1197 878 1206 q 909 1168 904 1188 q 910 1129 914 1149 q 887 1074 904 1103 q 844 1021 869 1044 q 785 984 818 997 q 715 974 753 971 z "},"Ĝ":{"ha":692,"x_min":138,"x_max":842,"o":"m 215 -64 q 158 16 178 -36 q 139 113 138 68 q 153 290 138 199 q 196 461 169 382 q 235 563 214 511 q 278 660 256 614 q 321 739 300 707 q 409 857 364 813 q 478 915 454 901 q 571 945 517 935 q 676 944 625 956 q 748 917 713 935 q 810 872 783 899 q 833 843 825 858 q 842 811 842 828 q 822 771 842 790 q 779 744 803 751 q 743 753 756 738 q 708 795 725 781 q 674 817 692 810 q 633 826 658 826 q 578 817 607 826 q 522 786 549 808 q 497 763 513 778 q 463 726 481 747 q 432 679 446 704 q 366 549 393 615 q 318 406 339 483 q 297 327 308 374 q 277 235 286 281 q 265 154 268 189 q 268 78 261 106 q 297 41 275 50 q 360 42 319 32 q 433 70 396 50 q 504 122 469 90 q 567 196 539 153 q 608 282 592 243 q 624 344 624 321 q 600 365 625 367 q 509 369 543 364 q 463 397 475 375 q 444 428 444 401 q 469 471 443 454 q 535 486 493 483 q 620 484 576 489 q 690 464 664 479 q 733 419 721 449 q 745 356 744 389 q 740 293 746 322 q 706 199 728 244 q 649 106 685 153 q 592 44 628 76 q 516 -13 556 13 q 442 -54 476 -39 q 326 -90 386 -79 q 215 -64 265 -101 m 560 1010 q 517 994 536 986 q 491 1024 497 1001 q 497 1067 485 1047 q 519 1088 501 1072 q 560 1125 536 1104 q 606 1163 583 1146 q 643 1189 629 1181 q 680 1201 661 1204 q 707 1185 699 1197 q 747 1148 724 1171 q 793 1102 771 1125 q 825 1065 815 1079 q 828 1031 833 1049 q 810 1001 824 1013 q 778 992 796 990 q 742 1018 760 994 q 711 1048 732 1026 q 669 1088 690 1069 q 631 1063 653 1078 q 589 1033 608 1047 q 560 1010 569 1018 z "},"Ģ":{"ha":692,"x_min":138,"x_max":842,"o":"m 215 -64 q 158 16 178 -36 q 139 113 138 68 q 153 290 138 199 q 196 461 169 382 q 235 563 214 511 q 278 660 256 614 q 321 739 300 707 q 409 857 364 813 q 478 915 454 901 q 571 945 517 935 q 676 944 625 956 q 748 917 713 935 q 810 872 783 899 q 833 843 825 858 q 842 811 842 828 q 822 771 842 790 q 779 744 803 751 q 743 753 756 738 q 708 795 725 781 q 674 817 692 810 q 633 826 658 826 q 578 817 607 826 q 522 786 549 808 q 497 763 513 778 q 463 726 481 747 q 432 679 446 704 q 366 549 393 615 q 318 406 339 483 q 297 327 308 374 q 277 235 286 281 q 265 154 268 189 q 268 78 261 106 q 297 41 275 50 q 360 42 319 32 q 433 70 396 50 q 504 122 469 90 q 567 196 539 153 q 608 282 592 243 q 624 344 624 321 q 600 365 625 367 q 509 369 543 364 q 463 397 475 375 q 444 428 444 401 q 469 471 443 454 q 535 486 493 483 q 620 484 576 489 q 690 464 664 479 q 733 419 721 449 q 745 356 744 389 q 740 293 746 322 q 706 199 728 244 q 649 106 685 153 q 592 44 628 76 q 516 -13 556 13 q 442 -54 476 -39 q 326 -90 386 -79 q 215 -64 265 -101 m 213 -337 q 188 -331 199 -337 q 174 -319 176 -325 q 193 -293 174 -310 q 247 -230 229 -265 q 274 -160 264 -194 q 286 -124 274 -137 q 322 -110 299 -110 q 351 -126 335 -110 q 367 -185 367 -142 q 364 -205 367 -194 q 356 -226 361 -215 q 343 -251 351 -237 q 324 -276 340 -258 q 292 -308 308 -293 q 271 -322 275 -322 q 262 -326 265 -322 q 249 -333 258 -329 q 213 -337 239 -337 z "},"Ġ":{"ha":692,"x_min":138,"x_max":842,"o":"m 215 -64 q 158 16 178 -36 q 139 113 138 68 q 153 290 138 199 q 196 461 169 382 q 235 563 214 511 q 278 660 256 614 q 321 739 300 707 q 409 857 364 813 q 478 915 454 901 q 571 945 517 935 q 676 944 625 956 q 748 917 713 935 q 810 872 783 899 q 833 843 825 858 q 842 811 842 828 q 822 771 842 790 q 779 744 803 751 q 743 753 756 738 q 708 795 725 781 q 674 817 692 810 q 633 826 658 826 q 578 817 607 826 q 522 786 549 808 q 497 763 513 778 q 463 726 481 747 q 432 679 446 704 q 366 549 393 615 q 318 406 339 483 q 297 327 308 374 q 277 235 286 281 q 265 154 268 189 q 268 78 261 106 q 297 41 275 50 q 360 42 319 32 q 433 70 396 50 q 504 122 469 90 q 567 196 539 153 q 608 282 592 243 q 624 344 624 321 q 600 365 625 367 q 509 369 543 364 q 463 397 475 375 q 444 428 444 401 q 469 471 443 454 q 535 486 493 483 q 620 484 576 489 q 690 464 664 479 q 733 419 721 449 q 745 356 744 389 q 740 293 746 322 q 706 199 728 244 q 649 106 685 153 q 592 44 628 76 q 516 -13 556 13 q 442 -54 476 -39 q 326 -90 386 -79 q 215 -64 265 -101 m 686 1022 q 667 1051 676 1032 q 660 1086 658 1071 q 674 1123 663 1093 q 708 1172 685 1153 q 717 1181 713 1175 q 728 1189 722 1188 q 762 1199 744 1200 q 804 1171 779 1199 q 819 1106 828 1131 q 782 1047 810 1081 q 739 1008 761 1019 q 686 1022 717 997 z "},"H":{"ha":797,"x_min":103,"x_max":1039,"o":"m 213 -126 q 199 -122 213 -126 q 169 -112 185 -117 q 144 -108 153 -108 q 113 -84 122 -103 q 108 -43 103 -65 q 117 -19 114 -37 q 119 10 119 -1 q 126 26 125 21 q 133 53 128 31 q 148 119 138 76 q 172 210 158 161 q 197 303 185 258 q 220 378 210 347 q 235 413 231 408 q 235 417 235 413 q 235 428 235 422 q 237 441 235 428 q 250 471 239 454 q 260 504 256 486 q 264 528 264 522 q 280 562 269 535 q 300 615 290 589 q 319 663 308 638 q 337 706 329 688 q 344 724 344 724 q 344 730 344 729 q 344 731 344 731 q 372 787 350 736 q 431 918 393 838 q 447 953 436 929 q 458 983 458 978 q 499 998 479 1004 q 535 974 519 992 q 558 940 551 956 l 572 918 l 521 818 q 483 747 499 779 q 467 710 467 715 q 460 693 467 710 q 446 651 454 676 q 429 600 438 625 q 400 528 414 557 q 386 494 386 500 q 415 499 386 497 q 486 500 443 500 q 574 501 529 500 q 656 502 619 501 q 706 506 692 503 l 778 513 l 817 636 q 846 731 828 675 q 878 825 864 786 q 925 915 900 889 q 967 940 950 940 q 983 933 971 940 q 1007 915 994 925 q 1022 897 1019 906 q 1038 863 1039 882 q 1015 811 1038 843 q 978 730 993 774 q 953 658 964 686 q 949 631 953 642 q 939 615 944 621 q 928 594 936 613 q 913 558 919 576 q 906 536 906 540 q 901 513 906 526 q 892 493 897 499 q 879 451 889 485 q 857 373 869 418 q 831 285 844 328 q 806 215 817 243 q 799 191 806 206 q 792 165 792 176 q 778 124 786 149 q 769 92 769 99 q 755 18 763 60 q 742 -56 747 -24 q 738 -92 738 -87 q 683 -82 701 -96 q 650 -62 665 -68 q 619 -24 624 -47 q 629 31 614 -1 q 647 85 636 42 q 668 172 657 129 q 686 225 676 193 q 705 288 696 257 q 721 342 714 319 q 731 367 728 364 q 731 376 731 372 q 731 381 731 381 q 703 385 728 383 q 640 387 678 388 q 557 384 601 386 q 472 376 513 382 q 428 376 457 376 q 389 376 400 376 q 363 376 374 376 q 353 376 353 376 q 342 349 350 372 q 324 292 335 325 q 303 224 314 258 q 285 160 293 189 q 275 119 278 132 q 260 57 269 94 q 241 -20 251 19 q 223 -89 231 -60 q 213 -126 215 -118 z "},"Ħ":{"ha":783,"x_min":97,"x_max":1036,"o":"m 913 664 q 865 665 908 664 q 756 667 822 665 q 614 670 689 668 q 469 674 539 672 q 351 676 400 675 q 290 676 303 676 q 270 677 282 676 q 246 682 258 678 q 218 685 225 682 q 206 699 211 689 q 204 727 193 719 q 263 740 215 735 q 329 744 278 743 q 451 744 381 744 q 601 742 522 743 q 751 740 679 742 q 876 738 824 739 q 946 738 928 738 q 990 735 978 738 q 1018 721 1003 732 q 1031 683 1036 700 q 996 668 1026 665 q 962 665 986 667 q 913 664 938 664 m 207 -126 q 193 -122 207 -126 q 163 -112 179 -117 q 139 -108 147 -108 q 107 -84 117 -103 q 103 -43 97 -65 q 111 -19 108 -37 q 114 10 114 -1 q 121 26 119 21 q 128 53 122 31 q 142 119 132 76 q 166 210 153 161 q 192 303 179 258 q 215 378 204 347 q 229 413 225 408 q 229 417 229 413 q 229 428 229 422 q 231 441 229 428 q 244 471 233 454 q 254 504 250 486 q 258 528 258 522 q 274 562 264 535 q 294 615 285 589 q 313 663 303 638 q 331 706 324 688 q 339 724 339 724 q 339 730 339 729 q 339 731 339 731 q 366 787 344 736 q 425 918 388 838 q 442 953 431 929 q 453 983 453 978 q 494 998 474 1004 q 530 974 514 992 q 553 940 546 956 l 567 918 l 515 818 q 477 747 493 779 q 461 710 461 715 q 455 693 461 710 q 440 651 449 676 q 424 600 432 625 q 394 528 408 557 q 381 494 381 500 q 409 499 381 497 q 481 500 438 500 q 569 501 524 500 q 650 502 614 501 q 700 506 686 503 l 772 513 l 811 636 q 840 731 822 675 q 872 825 858 786 q 919 915 894 889 q 961 940 944 940 q 977 933 965 940 q 1001 915 989 925 q 1017 897 1014 906 q 1033 863 1033 882 q 1010 811 1032 843 q 973 730 988 774 q 947 658 958 686 q 943 631 947 642 q 933 615 939 621 q 922 594 931 613 q 907 558 914 576 q 900 536 900 540 q 896 513 900 526 q 886 493 892 499 q 874 451 883 485 q 851 373 864 418 q 825 285 839 328 q 800 215 811 243 q 793 191 800 206 q 786 165 786 176 q 772 124 781 149 q 764 92 764 99 q 749 18 757 60 q 737 -56 742 -24 q 732 -92 732 -87 q 678 -82 696 -96 q 644 -62 660 -68 q 613 -24 618 -47 q 624 31 608 -1 q 641 85 631 42 q 663 172 651 129 q 681 225 671 193 q 699 288 690 257 q 715 342 708 319 q 725 367 722 364 q 725 376 725 372 q 725 381 725 381 q 697 385 722 383 q 634 387 672 388 q 551 384 596 386 q 467 376 507 382 q 423 376 451 376 q 383 376 394 376 q 358 376 368 376 q 347 376 347 376 q 337 349 344 372 q 319 292 329 325 q 298 224 308 258 q 280 160 288 189 q 269 119 272 132 q 255 57 264 94 q 235 -20 246 19 q 217 -89 225 -60 q 207 -126 210 -118 z "},"Ĥ":{"ha":783,"x_min":97,"x_max":1033,"o":"m 207 -126 q 193 -122 207 -126 q 163 -112 179 -117 q 139 -108 147 -108 q 107 -84 117 -103 q 103 -43 97 -65 q 111 -19 108 -37 q 114 10 114 -1 q 121 26 119 21 q 128 53 122 31 q 142 119 132 76 q 166 210 153 161 q 192 303 179 258 q 215 378 204 347 q 229 413 225 408 q 229 417 229 413 q 229 428 229 422 q 231 441 229 428 q 244 471 233 454 q 254 504 250 486 q 258 528 258 522 q 274 562 264 535 q 294 615 285 589 q 313 663 303 638 q 331 706 324 688 q 339 724 339 724 q 339 730 339 729 q 339 731 339 731 q 366 787 344 736 q 425 918 388 838 q 442 953 431 929 q 453 983 453 978 q 494 998 474 1004 q 530 974 514 992 q 553 940 546 956 l 567 918 l 515 818 q 477 747 493 779 q 461 710 461 715 q 455 693 461 710 q 440 651 449 676 q 424 600 432 625 q 394 528 408 557 q 381 494 381 500 q 409 499 381 497 q 481 500 438 500 q 569 501 524 500 q 650 502 614 501 q 700 506 686 503 l 772 513 l 811 636 q 840 731 822 675 q 872 825 858 786 q 919 915 894 889 q 961 940 944 940 q 977 933 965 940 q 1001 915 989 925 q 1017 897 1014 906 q 1033 863 1033 882 q 1010 811 1032 843 q 973 730 988 774 q 947 658 958 686 q 943 631 947 642 q 933 615 939 621 q 922 594 931 613 q 907 558 914 576 q 900 536 900 540 q 896 513 900 526 q 886 493 892 499 q 874 451 883 485 q 851 373 864 418 q 825 285 839 328 q 800 215 811 243 q 793 191 800 206 q 786 165 786 176 q 772 124 781 149 q 764 92 764 99 q 749 18 757 60 q 737 -56 742 -24 q 732 -92 732 -87 q 678 -82 696 -96 q 644 -62 660 -68 q 613 -24 618 -47 q 624 31 608 -1 q 641 85 631 42 q 663 172 651 129 q 681 225 671 193 q 699 288 690 257 q 715 342 708 319 q 725 367 722 364 q 725 376 725 372 q 725 381 725 381 q 697 385 722 383 q 634 387 672 388 q 551 384 596 386 q 467 376 507 382 q 423 376 451 376 q 383 376 394 376 q 358 376 368 376 q 347 376 347 376 q 337 349 344 372 q 319 292 329 325 q 298 224 308 258 q 280 160 288 189 q 269 119 272 132 q 255 57 264 94 q 235 -20 246 19 q 217 -89 225 -60 q 207 -126 210 -118 m 690 1010 q 647 994 667 986 q 622 1024 628 1001 q 628 1067 615 1047 q 649 1088 632 1072 q 690 1125 667 1104 q 737 1163 714 1146 q 774 1189 760 1181 q 810 1201 792 1204 q 838 1185 829 1197 q 878 1148 854 1171 q 924 1102 901 1125 q 956 1065 946 1079 q 959 1031 964 1049 q 940 1001 954 1013 q 908 992 926 990 q 872 1018 890 994 q 842 1048 863 1026 q 800 1088 821 1069 q 761 1063 783 1078 q 719 1033 739 1047 q 690 1010 700 1018 z "},"Ḥ":{"ha":783,"x_min":97,"x_max":1033,"o":"m 207 -126 q 193 -122 207 -126 q 163 -112 179 -117 q 139 -108 147 -108 q 107 -84 117 -103 q 103 -43 97 -65 q 111 -19 108 -37 q 114 10 114 -1 q 121 26 119 21 q 128 53 122 31 q 142 119 132 76 q 166 210 153 161 q 192 303 179 258 q 215 378 204 347 q 229 413 225 408 q 229 417 229 413 q 229 428 229 422 q 231 441 229 428 q 244 471 233 454 q 254 504 250 486 q 258 528 258 522 q 274 562 264 535 q 294 615 285 589 q 313 663 303 638 q 331 706 324 688 q 339 724 339 724 q 339 730 339 729 q 339 731 339 731 q 366 787 344 736 q 425 918 388 838 q 442 953 431 929 q 453 983 453 978 q 494 998 474 1004 q 530 974 514 992 q 553 940 546 956 l 567 918 l 515 818 q 477 747 493 779 q 461 710 461 715 q 455 693 461 710 q 440 651 449 676 q 424 600 432 625 q 394 528 408 557 q 381 494 381 500 q 409 499 381 497 q 481 500 438 500 q 569 501 524 500 q 650 502 614 501 q 700 506 686 503 l 772 513 l 811 636 q 840 731 822 675 q 872 825 858 786 q 919 915 894 889 q 961 940 944 940 q 977 933 965 940 q 1001 915 989 925 q 1017 897 1014 906 q 1033 863 1033 882 q 1010 811 1032 843 q 973 730 988 774 q 947 658 958 686 q 943 631 947 642 q 933 615 939 621 q 922 594 931 613 q 907 558 914 576 q 900 536 900 540 q 896 513 900 526 q 886 493 892 499 q 874 451 883 485 q 851 373 864 418 q 825 285 839 328 q 800 215 811 243 q 793 191 800 206 q 786 165 786 176 q 772 124 781 149 q 764 92 764 99 q 749 18 757 60 q 737 -56 742 -24 q 732 -92 732 -87 q 678 -82 696 -96 q 644 -62 660 -68 q 613 -24 618 -47 q 624 31 608 -1 q 641 85 631 42 q 663 172 651 129 q 681 225 671 193 q 699 288 690 257 q 715 342 708 319 q 725 367 722 364 q 725 376 725 372 q 725 381 725 381 q 697 385 722 383 q 634 387 672 388 q 551 384 596 386 q 467 376 507 382 q 423 376 451 376 q 383 376 394 376 q 358 376 368 376 q 347 376 347 376 q 337 349 344 372 q 319 292 329 325 q 298 224 308 258 q 280 160 288 189 q 269 119 272 132 q 255 57 264 94 q 235 -20 246 19 q 217 -89 225 -60 q 207 -126 210 -118 m 314 -251 q 292 -219 297 -233 q 289 -196 288 -206 q 308 -152 296 -175 q 331 -122 321 -129 q 347 -110 340 -114 q 360 -106 354 -107 q 396 -101 376 -94 q 431 -128 415 -108 q 447 -176 450 -158 q 421 -219 443 -194 q 359 -265 381 -260 q 314 -251 338 -269 z "},"I":{"ha":568,"x_min":60,"x_max":856,"o":"m 251 -57 q 218 -37 242 -42 q 146 -36 194 -33 q 106 -33 126 -39 q 72 -17 85 -28 q 63 6 60 -6 q 101 42 64 22 q 199 63 139 61 l 257 64 l 271 92 q 280 125 276 107 q 293 175 283 143 q 310 229 299 194 q 333 303 321 264 q 356 375 346 343 q 368 419 365 407 q 383 462 374 432 q 402 523 393 492 q 414 568 411 554 q 461 722 450 678 q 467 767 472 765 q 440 765 461 767 q 394 762 419 764 q 350 757 369 760 q 326 751 331 754 q 303 755 319 742 q 282 782 286 768 q 282 806 281 794 q 290 821 283 817 q 331 840 300 829 q 399 858 361 850 q 469 871 438 867 q 517 881 493 874 q 554 900 540 889 q 578 907 567 904 q 603 908 590 910 q 641 901 614 901 q 699 903 668 901 q 808 898 776 910 q 849 867 839 886 q 846 823 856 840 q 813 807 836 806 q 778 802 800 804 q 719 799 756 800 q 621 779 628 790 q 612 768 615 774 q 603 756 608 763 q 597 723 604 750 q 578 665 589 696 q 561 614 572 647 q 538 545 550 581 q 517 481 526 510 q 503 443 507 453 q 494 416 497 431 q 489 394 490 401 q 456 281 469 326 q 433 201 443 235 q 415 135 424 167 q 396 65 407 104 q 419 67 396 65 q 479 72 443 69 q 568 81 544 79 q 596 77 592 82 q 604 60 600 72 q 601 -3 632 22 q 492 -26 569 -28 q 385 -31 419 -29 q 342 -37 351 -33 q 332 -51 332 -42 q 305 -78 333 -74 q 251 -57 276 -83 z "},"Ĳ":{"ha":1036,"x_min":54,"x_max":1246,"o":"m 246 -57 q 213 -37 236 -42 q 140 -36 189 -33 q 100 -33 121 -39 q 67 -17 79 -28 q 57 6 54 -6 q 96 42 58 22 q 193 63 133 61 l 251 64 l 265 92 q 274 125 271 107 q 288 175 278 143 q 304 229 293 194 q 328 303 315 264 q 350 375 340 343 q 363 419 360 407 q 378 462 368 432 q 397 523 388 492 q 408 568 406 554 q 456 722 444 678 q 461 767 467 765 q 435 765 456 767 q 389 762 414 764 q 344 757 364 760 q 321 751 325 754 q 297 755 314 742 q 276 782 281 768 q 276 806 275 794 q 285 821 278 817 q 325 840 294 829 q 394 858 356 850 q 464 871 432 867 q 511 881 488 874 q 549 900 535 889 q 573 907 561 904 q 597 908 585 910 q 635 901 608 901 q 693 903 663 901 q 802 898 771 910 q 843 867 833 886 q 840 823 850 840 q 807 807 831 806 q 772 802 794 804 q 714 799 750 800 q 615 779 622 790 q 606 768 610 774 q 597 756 603 763 q 591 723 599 750 q 572 665 583 696 q 556 614 567 647 q 533 545 544 581 q 511 481 521 510 q 497 443 501 453 q 488 416 492 431 q 483 394 485 401 q 451 281 464 326 q 428 201 438 235 q 410 135 418 167 q 390 65 401 104 q 414 67 390 65 q 474 72 438 69 q 563 81 539 79 q 590 77 586 82 q 599 60 594 72 q 595 -3 626 22 q 486 -26 564 -28 q 380 -31 414 -29 q 336 -37 346 -33 q 326 -51 326 -42 q 299 -78 328 -74 q 246 -57 271 -83 m 732 -283 q 663 -300 700 -301 q 591 -283 625 -299 q 535 -244 557 -268 q 527 -203 525 -233 q 535 -156 529 -174 q 553 -131 542 -131 q 588 -157 568 -131 q 665 -176 626 -192 q 746 -94 703 -161 q 772 -35 754 -74 q 810 49 790 4 q 847 131 831 93 q 869 186 864 169 q 870 191 869 186 q 876 201 871 196 q 883 224 878 207 q 894 263 889 240 q 910 308 900 278 q 933 372 921 339 q 953 428 944 406 q 970 491 960 457 q 988 543 981 525 q 1004 588 993 554 q 1029 663 1015 622 q 1059 757 1046 717 q 1078 822 1072 797 q 1082 850 1085 846 q 1058 846 1082 850 q 1004 836 1033 842 q 956 824 981 826 q 936 839 932 821 q 936 849 936 844 q 936 854 936 854 q 925 860 932 851 q 913 881 918 868 q 907 901 907 894 q 940 927 907 913 q 1015 947 972 942 q 1083 955 1043 951 q 1140 961 1122 958 q 1165 958 1146 965 q 1206 942 1185 951 q 1233 924 1226 932 q 1244 900 1242 913 q 1240 865 1246 888 q 1220 802 1235 843 q 1179 690 1206 761 q 1125 534 1149 604 q 1082 418 1101 464 q 1067 374 1078 403 q 1047 315 1057 344 q 1032 265 1038 285 q 1011 208 1021 239 q 996 160 1001 178 q 990 135 996 149 q 978 114 985 121 q 968 90 978 114 q 944 32 958 65 q 920 -30 933 4 q 896 -82 907 -64 q 879 -113 889 -99 q 869 -133 869 -128 q 869 -137 869 -133 q 863 -142 868 -142 q 858 -145 863 -142 q 854 -156 854 -149 q 836 -182 851 -164 q 801 -222 821 -200 q 763 -260 782 -243 q 732 -283 743 -276 z "},"Í":{"ha":556,"x_min":54,"x_max":850,"o":"m 246 -57 q 213 -37 236 -42 q 140 -36 189 -33 q 100 -33 121 -39 q 67 -17 79 -28 q 57 6 54 -6 q 96 42 58 22 q 193 63 133 61 l 251 64 l 265 92 q 274 125 271 107 q 288 175 278 143 q 304 229 293 194 q 328 303 315 264 q 350 375 340 343 q 363 419 360 407 q 378 462 368 432 q 397 523 388 492 q 408 568 406 554 q 456 722 444 678 q 461 767 467 765 q 435 765 456 767 q 389 762 414 764 q 344 757 364 760 q 321 751 325 754 q 297 755 314 742 q 276 782 281 768 q 276 806 275 794 q 285 821 278 817 q 325 840 294 829 q 394 858 356 850 q 464 871 432 867 q 511 881 488 874 q 549 900 535 889 q 573 907 561 904 q 597 908 585 910 q 635 901 608 901 q 693 903 663 901 q 802 898 771 910 q 843 867 833 886 q 840 823 850 840 q 807 807 831 806 q 772 802 794 804 q 714 799 750 800 q 615 779 622 790 q 606 768 610 774 q 597 756 603 763 q 591 723 599 750 q 572 665 583 696 q 556 614 567 647 q 533 545 544 581 q 511 481 521 510 q 497 443 501 453 q 488 416 492 431 q 483 394 485 401 q 451 281 464 326 q 428 201 438 235 q 410 135 418 167 q 390 65 401 104 q 414 67 390 65 q 474 72 438 69 q 563 81 539 79 q 590 77 586 82 q 599 60 594 72 q 595 -3 626 22 q 486 -26 564 -28 q 380 -31 414 -29 q 336 -37 346 -33 q 326 -51 326 -42 q 299 -78 328 -74 q 246 -57 271 -83 m 557 992 q 542 1016 547 1001 q 539 1065 538 1031 q 558 1093 540 1072 q 599 1140 575 1114 q 649 1188 624 1167 q 689 1214 674 1208 q 727 1200 707 1221 q 749 1147 747 1179 q 736 1119 751 1136 q 697 1083 721 1101 q 651 1045 674 1064 q 618 1011 629 1026 q 588 985 604 989 q 557 992 572 982 z "},"Ĭ":{"ha":556,"x_min":54,"x_max":850,"o":"m 246 -57 q 213 -37 236 -42 q 140 -36 189 -33 q 100 -33 121 -39 q 67 -17 79 -28 q 57 6 54 -6 q 96 42 58 22 q 193 63 133 61 l 251 64 l 265 92 q 274 125 271 107 q 288 175 278 143 q 304 229 293 194 q 328 303 315 264 q 350 375 340 343 q 363 419 360 407 q 378 462 368 432 q 397 523 388 492 q 408 568 406 554 q 456 722 444 678 q 461 767 467 765 q 435 765 456 767 q 389 762 414 764 q 344 757 364 760 q 321 751 325 754 q 297 755 314 742 q 276 782 281 768 q 276 806 275 794 q 285 821 278 817 q 325 840 294 829 q 394 858 356 850 q 464 871 432 867 q 511 881 488 874 q 549 900 535 889 q 573 907 561 904 q 597 908 585 910 q 635 901 608 901 q 693 903 663 901 q 802 898 771 910 q 843 867 833 886 q 840 823 850 840 q 807 807 831 806 q 772 802 794 804 q 714 799 750 800 q 615 779 622 790 q 606 768 610 774 q 597 756 603 763 q 591 723 599 750 q 572 665 583 696 q 556 614 567 647 q 533 545 544 581 q 511 481 521 510 q 497 443 501 453 q 488 416 492 431 q 483 394 485 401 q 451 281 464 326 q 428 201 438 235 q 410 135 418 167 q 390 65 401 104 q 414 67 390 65 q 474 72 438 69 q 563 81 539 79 q 590 77 586 82 q 599 60 594 72 q 595 -3 626 22 q 486 -26 564 -28 q 380 -31 414 -29 q 336 -37 346 -33 q 326 -51 326 -42 q 299 -78 328 -74 q 246 -57 271 -83 m 611 974 q 528 996 567 978 q 473 1049 490 1014 q 468 1138 456 1085 q 494 1190 476 1175 q 531 1202 513 1204 q 559 1185 549 1200 q 563 1146 569 1169 q 559 1113 558 1131 q 575 1082 560 1094 q 632 1071 590 1069 q 665 1084 650 1072 q 692 1113 681 1096 q 713 1143 704 1129 q 755 1195 736 1185 q 787 1197 774 1206 q 805 1168 800 1188 q 806 1129 810 1149 q 783 1074 800 1103 q 740 1021 765 1044 q 681 984 714 997 q 611 974 649 971 z "},"Î":{"ha":556,"x_min":54,"x_max":850,"o":"m 246 -57 q 213 -37 236 -42 q 140 -36 189 -33 q 100 -33 121 -39 q 67 -17 79 -28 q 57 6 54 -6 q 96 42 58 22 q 193 63 133 61 l 251 64 l 265 92 q 274 125 271 107 q 288 175 278 143 q 304 229 293 194 q 328 303 315 264 q 350 375 340 343 q 363 419 360 407 q 378 462 368 432 q 397 523 388 492 q 408 568 406 554 q 456 722 444 678 q 461 767 467 765 q 435 765 456 767 q 389 762 414 764 q 344 757 364 760 q 321 751 325 754 q 297 755 314 742 q 276 782 281 768 q 276 806 275 794 q 285 821 278 817 q 325 840 294 829 q 394 858 356 850 q 464 871 432 867 q 511 881 488 874 q 549 900 535 889 q 573 907 561 904 q 597 908 585 910 q 635 901 608 901 q 693 903 663 901 q 802 898 771 910 q 843 867 833 886 q 840 823 850 840 q 807 807 831 806 q 772 802 794 804 q 714 799 750 800 q 615 779 622 790 q 606 768 610 774 q 597 756 603 763 q 591 723 599 750 q 572 665 583 696 q 556 614 567 647 q 533 545 544 581 q 511 481 521 510 q 497 443 501 453 q 488 416 492 431 q 483 394 485 401 q 451 281 464 326 q 428 201 438 235 q 410 135 418 167 q 390 65 401 104 q 414 67 390 65 q 474 72 438 69 q 563 81 539 79 q 590 77 586 82 q 599 60 594 72 q 595 -3 626 22 q 486 -26 564 -28 q 380 -31 414 -29 q 336 -37 346 -33 q 326 -51 326 -42 q 299 -78 328 -74 q 246 -57 271 -83 m 539 1010 q 496 994 515 986 q 470 1024 476 1001 q 476 1067 464 1047 q 498 1088 481 1072 q 539 1125 515 1104 q 585 1163 563 1146 q 622 1189 608 1181 q 659 1201 640 1204 q 686 1185 678 1197 q 726 1148 703 1171 q 772 1102 750 1125 q 804 1065 794 1079 q 808 1031 813 1049 q 789 1001 803 1013 q 757 992 775 990 q 721 1018 739 994 q 690 1048 711 1026 q 649 1088 669 1069 q 610 1063 632 1078 q 568 1033 588 1047 q 539 1010 549 1018 z "},"Ȉ":{"ha":556,"x_min":54,"x_max":850,"o":"m 246 -57 q 213 -37 236 -42 q 140 -36 189 -33 q 100 -33 121 -39 q 67 -17 79 -28 q 57 6 54 -6 q 96 42 58 22 q 193 63 133 61 l 251 64 l 265 92 q 274 125 271 107 q 288 175 278 143 q 304 229 293 194 q 328 303 315 264 q 350 375 340 343 q 363 419 360 407 q 378 462 368 432 q 397 523 388 492 q 408 568 406 554 q 456 722 444 678 q 461 767 467 765 q 435 765 456 767 q 389 762 414 764 q 344 757 364 760 q 321 751 325 754 q 297 755 314 742 q 276 782 281 768 q 276 806 275 794 q 285 821 278 817 q 325 840 294 829 q 394 858 356 850 q 464 871 432 867 q 511 881 488 874 q 549 900 535 889 q 573 907 561 904 q 597 908 585 910 q 635 901 608 901 q 693 903 663 901 q 802 898 771 910 q 843 867 833 886 q 840 823 850 840 q 807 807 831 806 q 772 802 794 804 q 714 799 750 800 q 615 779 622 790 q 606 768 610 774 q 597 756 603 763 q 591 723 599 750 q 572 665 583 696 q 556 614 567 647 q 533 545 544 581 q 511 481 521 510 q 497 443 501 453 q 488 416 492 431 q 483 394 485 401 q 451 281 464 326 q 428 201 438 235 q 410 135 418 167 q 390 65 401 104 q 414 67 390 65 q 474 72 438 69 q 563 81 539 79 q 590 77 586 82 q 599 60 594 72 q 595 -3 626 22 q 486 -26 564 -28 q 380 -31 414 -29 q 336 -37 346 -33 q 326 -51 326 -42 q 299 -78 328 -74 q 246 -57 271 -83 m 472 979 q 451 980 458 972 q 435 1022 443 988 q 412 1068 426 1043 q 383 1117 397 1093 q 365 1163 369 1142 q 369 1197 360 1183 q 405 1228 385 1217 q 440 1229 425 1240 q 469 1193 454 1221 q 499 1132 485 1165 q 521 1073 513 1099 q 529 1043 529 1047 q 519 1022 531 1035 q 494 997 508 1008 q 472 979 481 985 m 643 981 q 621 979 628 974 q 606 1018 614 985 q 578 1070 593 1043 q 550 1121 563 1097 q 533 1164 538 1144 q 536 1194 528 1183 q 578 1231 560 1225 q 606 1231 596 1238 q 633 1200 618 1224 q 660 1147 647 1176 q 683 1088 674 1117 q 697 1040 693 1060 q 684 1017 699 1035 q 643 981 669 1000 z "},"Ï":{"ha":568,"x_min":60,"x_max":856,"o":"m 251 -57 q 218 -37 242 -42 q 146 -36 194 -33 q 106 -33 126 -39 q 72 -17 85 -28 q 63 6 60 -6 q 101 42 64 22 q 199 63 139 61 l 257 64 l 271 92 q 280 125 276 107 q 293 175 283 143 q 310 229 299 194 q 333 303 321 264 q 356 375 346 343 q 368 419 365 407 q 383 462 374 432 q 402 523 393 492 q 414 568 411 554 q 461 722 450 678 q 467 767 472 765 q 440 765 461 767 q 394 762 419 764 q 350 757 369 760 q 326 751 331 754 q 303 755 319 742 q 282 782 286 768 q 282 806 281 794 q 290 821 283 817 q 331 840 300 829 q 399 858 361 850 q 469 871 438 867 q 517 881 493 874 q 554 900 540 889 q 578 907 567 904 q 603 908 590 910 q 641 901 614 901 q 699 903 668 901 q 808 898 776 910 q 849 867 839 886 q 846 823 856 840 q 813 807 836 806 q 778 802 800 804 q 719 799 756 800 q 621 779 628 790 q 612 768 615 774 q 603 756 608 763 q 597 723 604 750 q 578 665 589 696 q 561 614 572 647 q 538 545 550 581 q 517 481 526 510 q 503 443 507 453 q 494 416 497 431 q 489 394 490 401 q 456 281 469 326 q 433 201 443 235 q 415 135 424 167 q 396 65 407 104 q 419 67 396 65 q 479 72 443 69 q 568 81 544 79 q 596 77 592 82 q 604 60 600 72 q 601 -3 632 22 q 492 -26 569 -28 q 385 -31 419 -29 q 342 -37 351 -33 q 332 -51 332 -42 q 305 -78 333 -74 q 251 -57 276 -83 m 688 1036 q 671 1067 678 1046 q 665 1094 664 1089 q 676 1124 668 1101 q 690 1151 685 1146 q 713 1177 697 1161 q 733 1194 728 1193 q 771 1203 749 1211 q 804 1172 793 1194 q 821 1110 831 1140 q 783 1053 811 1081 q 731 1013 756 1010 q 688 1036 707 1015 m 488 1022 q 458 1060 468 1036 q 451 1093 449 1083 q 469 1140 454 1113 q 494 1176 485 1168 q 508 1186 499 1179 q 524 1197 517 1193 q 558 1202 542 1210 q 585 1178 574 1194 q 601 1147 597 1163 q 603 1106 611 1129 q 574 1060 596 1083 q 531 1019 551 1031 q 488 1022 511 1007 z "},"İ":{"ha":556,"x_min":54,"x_max":850,"o":"m 246 -57 q 213 -37 236 -42 q 140 -36 189 -33 q 100 -33 121 -39 q 67 -17 79 -28 q 57 6 54 -6 q 96 42 58 22 q 193 63 133 61 l 251 64 l 265 92 q 274 125 271 107 q 288 175 278 143 q 304 229 293 194 q 328 303 315 264 q 350 375 340 343 q 363 419 360 407 q 378 462 368 432 q 397 523 388 492 q 408 568 406 554 q 456 722 444 678 q 461 767 467 765 q 435 765 456 767 q 389 762 414 764 q 344 757 364 760 q 321 751 325 754 q 297 755 314 742 q 276 782 281 768 q 276 806 275 794 q 285 821 278 817 q 325 840 294 829 q 394 858 356 850 q 464 871 432 867 q 511 881 488 874 q 549 900 535 889 q 573 907 561 904 q 597 908 585 910 q 635 901 608 901 q 693 903 663 901 q 802 898 771 910 q 843 867 833 886 q 840 823 850 840 q 807 807 831 806 q 772 802 794 804 q 714 799 750 800 q 615 779 622 790 q 606 768 610 774 q 597 756 603 763 q 591 723 599 750 q 572 665 583 696 q 556 614 567 647 q 533 545 544 581 q 511 481 521 510 q 497 443 501 453 q 488 416 492 431 q 483 394 485 401 q 451 281 464 326 q 428 201 438 235 q 410 135 418 167 q 390 65 401 104 q 414 67 390 65 q 474 72 438 69 q 563 81 539 79 q 590 77 586 82 q 599 60 594 72 q 595 -3 626 22 q 486 -26 564 -28 q 380 -31 414 -29 q 336 -37 346 -33 q 326 -51 326 -42 q 299 -78 328 -74 q 246 -57 271 -83 m 582 1022 q 563 1051 572 1032 q 556 1086 554 1071 q 569 1123 558 1093 q 604 1172 581 1153 q 613 1181 608 1175 q 624 1189 618 1188 q 658 1199 640 1200 q 700 1171 675 1199 q 715 1106 724 1131 q 678 1047 706 1081 q 635 1008 657 1019 q 582 1022 613 997 z "},"Ị":{"ha":556,"x_min":54,"x_max":850,"o":"m 246 -57 q 213 -37 236 -42 q 140 -36 189 -33 q 100 -33 121 -39 q 67 -17 79 -28 q 57 6 54 -6 q 96 42 58 22 q 193 63 133 61 l 251 64 l 265 92 q 274 125 271 107 q 288 175 278 143 q 304 229 293 194 q 328 303 315 264 q 350 375 340 343 q 363 419 360 407 q 378 462 368 432 q 397 523 388 492 q 408 568 406 554 q 456 722 444 678 q 461 767 467 765 q 435 765 456 767 q 389 762 414 764 q 344 757 364 760 q 321 751 325 754 q 297 755 314 742 q 276 782 281 768 q 276 806 275 794 q 285 821 278 817 q 325 840 294 829 q 394 858 356 850 q 464 871 432 867 q 511 881 488 874 q 549 900 535 889 q 573 907 561 904 q 597 908 585 910 q 635 901 608 901 q 693 903 663 901 q 802 898 771 910 q 843 867 833 886 q 840 823 850 840 q 807 807 831 806 q 772 802 794 804 q 714 799 750 800 q 615 779 622 790 q 606 768 610 774 q 597 756 603 763 q 591 723 599 750 q 572 665 583 696 q 556 614 567 647 q 533 545 544 581 q 511 481 521 510 q 497 443 501 453 q 488 416 492 431 q 483 394 485 401 q 451 281 464 326 q 428 201 438 235 q 410 135 418 167 q 390 65 401 104 q 414 67 390 65 q 474 72 438 69 q 563 81 539 79 q 590 77 586 82 q 599 60 594 72 q 595 -3 626 22 q 486 -26 564 -28 q 380 -31 414 -29 q 336 -37 346 -33 q 326 -51 326 -42 q 299 -78 328 -74 q 246 -57 271 -83 m 182 -264 q 160 -232 165 -246 q 157 -208 156 -218 q 176 -165 164 -187 q 199 -135 189 -142 q 215 -123 208 -126 q 228 -118 222 -119 q 264 -114 244 -107 q 299 -140 283 -121 q 315 -189 318 -171 q 289 -232 311 -207 q 227 -277 249 -272 q 182 -264 206 -282 z "},"Ì":{"ha":556,"x_min":54,"x_max":850,"o":"m 246 -57 q 213 -37 236 -42 q 140 -36 189 -33 q 100 -33 121 -39 q 67 -17 79 -28 q 57 6 54 -6 q 96 42 58 22 q 193 63 133 61 l 251 64 l 265 92 q 274 125 271 107 q 288 175 278 143 q 304 229 293 194 q 328 303 315 264 q 350 375 340 343 q 363 419 360 407 q 378 462 368 432 q 397 523 388 492 q 408 568 406 554 q 456 722 444 678 q 461 767 467 765 q 435 765 456 767 q 389 762 414 764 q 344 757 364 760 q 321 751 325 754 q 297 755 314 742 q 276 782 281 768 q 276 806 275 794 q 285 821 278 817 q 325 840 294 829 q 394 858 356 850 q 464 871 432 867 q 511 881 488 874 q 549 900 535 889 q 573 907 561 904 q 597 908 585 910 q 635 901 608 901 q 693 903 663 901 q 802 898 771 910 q 843 867 833 886 q 840 823 850 840 q 807 807 831 806 q 772 802 794 804 q 714 799 750 800 q 615 779 622 790 q 606 768 610 774 q 597 756 603 763 q 591 723 599 750 q 572 665 583 696 q 556 614 567 647 q 533 545 544 581 q 511 481 521 510 q 497 443 501 453 q 488 416 492 431 q 483 394 485 401 q 451 281 464 326 q 428 201 438 235 q 410 135 418 167 q 390 65 401 104 q 414 67 390 65 q 474 72 438 69 q 563 81 539 79 q 590 77 586 82 q 599 60 594 72 q 595 -3 626 22 q 486 -26 564 -28 q 380 -31 414 -29 q 336 -37 346 -33 q 326 -51 326 -42 q 299 -78 328 -74 q 246 -57 271 -83 m 644 978 q 626 983 631 971 q 617 1013 621 994 q 604 1046 614 1032 q 572 1101 590 1072 q 544 1158 553 1131 q 551 1201 536 1185 q 598 1235 582 1233 q 628 1221 614 1236 q 651 1190 638 1215 q 677 1132 664 1164 q 699 1074 690 1100 q 708 1039 708 1047 q 689 1010 710 1033 q 644 978 668 986 z "},"Ȋ":{"ha":556,"x_min":54,"x_max":850,"o":"m 246 -57 q 213 -37 236 -42 q 140 -36 189 -33 q 100 -33 121 -39 q 67 -17 79 -28 q 57 6 54 -6 q 96 42 58 22 q 193 63 133 61 l 251 64 l 265 92 q 274 125 271 107 q 288 175 278 143 q 304 229 293 194 q 328 303 315 264 q 350 375 340 343 q 363 419 360 407 q 378 462 368 432 q 397 523 388 492 q 408 568 406 554 q 456 722 444 678 q 461 767 467 765 q 435 765 456 767 q 389 762 414 764 q 344 757 364 760 q 321 751 325 754 q 297 755 314 742 q 276 782 281 768 q 276 806 275 794 q 285 821 278 817 q 325 840 294 829 q 394 858 356 850 q 464 871 432 867 q 511 881 488 874 q 549 900 535 889 q 573 907 561 904 q 597 908 585 910 q 635 901 608 901 q 693 903 663 901 q 802 898 771 910 q 843 867 833 886 q 840 823 850 840 q 807 807 831 806 q 772 802 794 804 q 714 799 750 800 q 615 779 622 790 q 606 768 610 774 q 597 756 603 763 q 591 723 599 750 q 572 665 583 696 q 556 614 567 647 q 533 545 544 581 q 511 481 521 510 q 497 443 501 453 q 488 416 492 431 q 483 394 485 401 q 451 281 464 326 q 428 201 438 235 q 410 135 418 167 q 390 65 401 104 q 414 67 390 65 q 474 72 438 69 q 563 81 539 79 q 590 77 586 82 q 599 60 594 72 q 595 -3 626 22 q 486 -26 564 -28 q 380 -31 414 -29 q 336 -37 346 -33 q 326 -51 326 -42 q 299 -78 328 -74 q 246 -57 271 -83 m 665 1026 q 672 1064 668 1044 q 667 1097 676 1083 q 618 1111 657 1111 q 580 1103 600 1113 q 540 1072 560 1093 q 501 1013 521 1050 q 465 979 483 982 q 435 996 447 976 q 422 1050 424 1015 q 456 1105 435 1076 q 505 1158 478 1133 q 563 1197 532 1183 q 624 1208 593 1211 q 719 1176 683 1203 q 767 1113 754 1150 q 771 1038 781 1075 q 731 979 757 990 q 685 983 706 968 q 665 1026 664 997 z "},"Ī":{"ha":556,"x_min":54,"x_max":850,"o":"m 246 -57 q 213 -37 236 -42 q 140 -36 189 -33 q 100 -33 121 -39 q 67 -17 79 -28 q 57 6 54 -6 q 96 42 58 22 q 193 63 133 61 l 251 64 l 265 92 q 274 125 271 107 q 288 175 278 143 q 304 229 293 194 q 328 303 315 264 q 350 375 340 343 q 363 419 360 407 q 378 462 368 432 q 397 523 388 492 q 408 568 406 554 q 456 722 444 678 q 461 767 467 765 q 435 765 456 767 q 389 762 414 764 q 344 757 364 760 q 321 751 325 754 q 297 755 314 742 q 276 782 281 768 q 276 806 275 794 q 285 821 278 817 q 325 840 294 829 q 394 858 356 850 q 464 871 432 867 q 511 881 488 874 q 549 900 535 889 q 573 907 561 904 q 597 908 585 910 q 635 901 608 901 q 693 903 663 901 q 802 898 771 910 q 843 867 833 886 q 840 823 850 840 q 807 807 831 806 q 772 802 794 804 q 714 799 750 800 q 615 779 622 790 q 606 768 610 774 q 597 756 603 763 q 591 723 599 750 q 572 665 583 696 q 556 614 567 647 q 533 545 544 581 q 511 481 521 510 q 497 443 501 453 q 488 416 492 431 q 483 394 485 401 q 451 281 464 326 q 428 201 438 235 q 410 135 418 167 q 390 65 401 104 q 414 67 390 65 q 474 72 438 69 q 563 81 539 79 q 590 77 586 82 q 599 60 594 72 q 595 -3 626 22 q 486 -26 564 -28 q 380 -31 414 -29 q 336 -37 346 -33 q 326 -51 326 -42 q 299 -78 328 -74 q 246 -57 271 -83 m 544 1056 q 516 1056 531 1054 q 488 1063 501 1058 q 457 1071 467 1065 q 438 1092 447 1076 q 444 1123 425 1113 q 508 1139 463 1133 q 588 1153 551 1147 q 668 1158 625 1158 q 736 1152 711 1158 q 778 1129 761 1146 q 790 1092 796 1114 q 760 1068 785 1071 q 729 1067 750 1068 q 686 1065 708 1065 q 647 1063 664 1064 q 622 1060 636 1061 q 588 1057 607 1058 q 544 1056 569 1056 z "},"Į":{"ha":556,"x_min":54,"x_max":850,"o":"m 246 -57 q 213 -37 236 -42 q 140 -36 189 -33 q 100 -33 121 -39 q 67 -17 79 -28 q 57 6 54 -6 q 96 42 58 22 q 193 63 133 61 l 251 64 l 265 92 q 274 125 271 107 q 288 175 278 143 q 304 229 293 194 q 328 303 315 264 q 350 375 340 343 q 363 419 360 407 q 378 462 368 432 q 397 523 388 492 q 408 568 406 554 q 456 722 444 678 q 461 767 467 765 q 435 765 456 767 q 389 762 414 764 q 344 757 364 760 q 321 751 325 754 q 297 755 314 742 q 276 782 281 768 q 276 806 275 794 q 285 821 278 817 q 325 840 294 829 q 394 858 356 850 q 464 871 432 867 q 511 881 488 874 q 549 900 535 889 q 573 907 561 904 q 597 908 585 910 q 635 901 608 901 q 693 903 663 901 q 802 898 771 910 q 843 867 833 886 q 840 823 850 840 q 807 807 831 806 q 772 802 794 804 q 714 799 750 800 q 615 779 622 790 q 606 768 610 774 q 597 756 603 763 q 591 723 599 750 q 572 665 583 696 q 556 614 567 647 q 533 545 544 581 q 511 481 521 510 q 497 443 501 453 q 488 416 492 431 q 483 394 485 401 q 451 281 464 326 q 428 201 438 235 q 410 135 418 167 q 390 65 401 104 q 414 67 390 65 q 474 72 438 69 q 563 81 539 79 q 590 77 586 82 q 599 60 594 72 q 595 -3 626 22 q 486 -26 564 -28 q 380 -31 414 -29 q 336 -37 346 -33 q 326 -51 326 -42 q 299 -78 328 -74 q 246 -57 271 -83 m 190 -303 q 135 -272 163 -294 q 97 -216 107 -250 q 113 -140 88 -182 q 163 -77 131 -110 q 231 -15 194 -44 q 299 35 268 15 l 375 -7 q 302 -60 344 -25 q 235 -126 260 -96 q 208 -165 215 -150 q 210 -196 200 -181 q 235 -204 214 -204 q 289 -185 267 -199 q 346 -154 311 -171 q 374 -153 364 -144 q 385 -179 383 -162 q 381 -213 388 -196 q 358 -237 375 -231 q 332 -249 353 -239 q 284 -270 311 -258 q 231 -291 257 -282 q 190 -303 206 -300 z "},"Ĩ":{"ha":556,"x_min":54,"x_max":850,"o":"m 246 -57 q 213 -37 236 -42 q 140 -36 189 -33 q 100 -33 121 -39 q 67 -17 79 -28 q 57 6 54 -6 q 96 42 58 22 q 193 63 133 61 l 251 64 l 265 92 q 274 125 271 107 q 288 175 278 143 q 304 229 293 194 q 328 303 315 264 q 350 375 340 343 q 363 419 360 407 q 378 462 368 432 q 397 523 388 492 q 408 568 406 554 q 456 722 444 678 q 461 767 467 765 q 435 765 456 767 q 389 762 414 764 q 344 757 364 760 q 321 751 325 754 q 297 755 314 742 q 276 782 281 768 q 276 806 275 794 q 285 821 278 817 q 325 840 294 829 q 394 858 356 850 q 464 871 432 867 q 511 881 488 874 q 549 900 535 889 q 573 907 561 904 q 597 908 585 910 q 635 901 608 901 q 693 903 663 901 q 802 898 771 910 q 843 867 833 886 q 840 823 850 840 q 807 807 831 806 q 772 802 794 804 q 714 799 750 800 q 615 779 622 790 q 606 768 610 774 q 597 756 603 763 q 591 723 599 750 q 572 665 583 696 q 556 614 567 647 q 533 545 544 581 q 511 481 521 510 q 497 443 501 453 q 488 416 492 431 q 483 394 485 401 q 451 281 464 326 q 428 201 438 235 q 410 135 418 167 q 390 65 401 104 q 414 67 390 65 q 474 72 438 69 q 563 81 539 79 q 590 77 586 82 q 599 60 594 72 q 595 -3 626 22 q 486 -26 564 -28 q 380 -31 414 -29 q 336 -37 346 -33 q 326 -51 326 -42 q 299 -78 328 -74 q 246 -57 271 -83 m 683 1008 q 642 1019 664 1008 q 594 1051 619 1031 q 563 1077 582 1058 q 528 1096 544 1096 q 505 1085 514 1096 q 488 1063 496 1074 q 465 1049 481 1051 q 456 1030 461 1039 q 440 1028 451 1021 q 417 1042 426 1031 q 403 1079 407 1053 q 438 1140 414 1111 q 496 1186 461 1168 q 565 1186 540 1197 q 611 1151 589 1175 q 663 1121 644 1125 q 707 1128 681 1117 q 748 1146 728 1133 q 797 1169 768 1158 q 817 1164 807 1174 q 834 1140 828 1154 q 839 1118 840 1126 q 825 1087 838 1101 q 800 1065 813 1072 q 735 1029 758 1042 q 700 1013 711 1017 q 683 1008 689 1008 z "},"J":{"ha":438,"x_min":-79,"x_max":642,"o":"m 128 -283 q 58 -300 96 -301 q -13 -283 21 -299 q -69 -244 -47 -268 q -77 -203 -79 -233 q -69 -156 -75 -174 q -51 -131 -62 -131 q -17 -157 -36 -131 q 60 -176 22 -192 q 142 -94 99 -161 q 168 -35 150 -74 q 206 49 186 4 q 243 131 226 93 q 265 186 260 169 q 266 191 265 186 q 272 201 267 196 q 279 224 274 207 q 290 263 285 240 q 306 308 296 278 q 328 372 317 339 q 349 428 340 406 q 366 491 356 457 q 383 543 376 525 q 400 588 389 554 q 425 663 411 622 q 455 757 442 717 q 474 822 468 797 q 478 850 481 846 q 453 846 478 850 q 400 836 429 842 q 352 824 376 826 q 332 839 328 821 q 332 849 332 844 q 332 854 332 854 q 321 860 328 851 q 308 881 314 868 q 303 901 303 894 q 335 927 303 913 q 411 947 368 942 q 478 955 439 951 q 536 961 518 958 q 561 958 542 965 q 601 942 581 951 q 629 924 622 932 q 640 900 638 913 q 636 865 642 888 q 616 802 631 843 q 575 690 601 761 q 521 534 544 604 q 478 418 497 464 q 463 374 474 403 q 443 315 453 344 q 428 265 433 285 q 407 208 417 239 q 392 160 397 178 q 386 135 392 149 q 374 114 381 121 q 364 90 374 114 q 340 32 354 65 q 316 -30 329 4 q 292 -82 303 -64 q 275 -113 285 -99 q 265 -133 265 -128 q 265 -137 265 -133 q 258 -142 264 -142 q 254 -145 258 -142 q 250 -156 250 -149 q 232 -182 247 -164 q 197 -222 217 -200 q 158 -260 178 -243 q 128 -283 139 -276 z "},"Ĵ":{"ha":425,"x_min":-85,"x_max":728,"o":"m 122 -283 q 53 -300 90 -301 q -19 -283 15 -299 q -75 -244 -53 -268 q -83 -203 -85 -233 q -75 -156 -81 -174 q -57 -131 -68 -131 q -22 -157 -42 -131 q 55 -176 17 -192 q 136 -94 93 -161 q 163 -35 144 -74 q 201 49 181 4 q 238 131 221 93 q 260 186 254 169 q 260 191 260 186 q 267 201 261 196 q 274 224 268 207 q 285 263 279 240 q 301 308 290 278 q 323 372 311 339 q 343 428 335 406 q 360 491 350 457 q 378 543 371 525 q 394 588 383 554 q 419 663 406 622 q 449 757 436 717 q 469 822 463 797 q 472 850 475 846 q 448 846 472 850 q 394 836 424 842 q 347 824 371 826 q 326 839 322 821 q 326 849 326 844 q 326 854 326 854 q 315 860 322 851 q 303 881 308 868 q 297 901 297 894 q 330 927 297 913 q 406 947 363 942 q 473 955 433 951 q 531 961 513 958 q 556 958 536 965 q 596 942 575 951 q 624 924 617 932 q 634 900 632 913 q 631 865 636 888 q 610 802 625 843 q 569 690 596 761 q 515 534 539 604 q 472 418 492 464 q 458 374 468 403 q 438 315 447 344 q 422 265 428 285 q 401 208 411 239 q 386 160 392 178 q 381 135 386 149 q 368 114 375 121 q 358 90 368 114 q 335 32 349 65 q 310 -30 324 4 q 286 -82 297 -64 q 269 -113 279 -99 q 260 -133 260 -128 q 259 -137 260 -133 q 253 -142 258 -142 q 249 -145 253 -142 q 244 -156 244 -149 q 226 -182 242 -164 q 192 -222 211 -200 q 153 -260 172 -243 q 122 -283 133 -276 m 454 1010 q 411 994 431 986 q 385 1024 392 1001 q 392 1067 379 1047 q 413 1088 396 1072 q 454 1125 431 1104 q 501 1163 478 1146 q 538 1189 524 1181 q 574 1201 556 1204 q 601 1185 593 1197 q 642 1148 618 1171 q 688 1102 665 1125 q 719 1065 710 1079 q 723 1031 728 1049 q 704 1001 718 1013 q 672 992 690 990 q 636 1018 654 994 q 606 1048 626 1026 q 564 1088 585 1069 q 525 1063 547 1078 q 483 1033 503 1047 q 454 1010 464 1018 z "},"K":{"ha":706,"x_min":101,"x_max":963,"o":"m 150 -65 q 117 -38 132 -54 q 110 7 101 -22 q 112 39 108 24 q 117 60 115 54 q 125 67 124 60 q 126 81 126 75 q 135 118 126 92 q 151 174 143 144 q 173 224 163 197 q 183 256 183 250 q 189 278 183 267 q 201 301 194 290 q 212 338 208 318 q 215 369 215 358 q 233 408 224 388 q 249 451 243 429 q 274 522 257 475 q 308 615 290 568 q 333 670 321 642 q 354 719 344 699 q 368 739 364 739 q 368 744 368 739 q 368 754 368 749 q 379 781 368 761 q 400 824 390 801 q 419 863 414 844 q 425 882 425 882 q 431 891 425 882 q 442 906 436 900 q 503 925 478 925 q 539 892 529 925 q 549 849 550 861 q 539 821 547 838 q 510 758 528 796 q 472 676 492 719 q 435 594 453 633 q 408 526 418 554 q 397 492 397 499 l 339 349 q 321 299 333 339 q 292 205 308 260 q 258 94 275 150 q 224 -8 240 38 q 208 -48 215 -32 q 194 -72 201 -64 q 178 -81 188 -81 q 165 -76 172 -81 q 150 -65 158 -72 m 642 -62 q 608 -51 629 -64 q 562 -18 586 -37 q 516 22 538 1 q 482 58 494 43 q 426 144 460 90 q 375 258 392 199 q 355 330 365 303 q 344 378 344 357 l 346 464 l 447 471 q 469 347 454 396 q 506 258 485 297 q 542 188 522 222 q 588 129 563 153 q 644 78 619 94 q 682 61 669 61 q 721 38 708 49 q 738 18 733 26 q 740 3 742 10 q 739 -16 742 -1 q 731 -45 736 -31 q 715 -64 725 -60 q 690 -76 706 -74 q 642 -62 675 -78 m 319 468 l 421 543 q 445 566 425 547 q 524 629 465 585 l 707 778 q 771 818 742 796 q 819 853 800 840 q 868 888 843 869 q 899 904 893 906 q 925 894 910 910 q 951 856 940 878 q 960 824 961 835 q 956 800 963 810 q 919 774 949 790 q 865 744 885 758 q 842 724 844 731 q 813 701 842 724 q 743 651 783 679 q 652 585 688 614 q 606 540 617 557 q 595 536 600 540 q 585 533 590 532 q 574 526 585 533 q 557 510 563 518 q 545 492 554 503 q 524 482 536 481 q 489 459 514 476 q 437 421 464 442 q 390 383 410 400 q 369 364 371 367 l 319 468 z "},"Ķ":{"ha":686,"x_min":96,"x_max":957,"o":"m 144 -65 q 111 -38 126 -54 q 104 7 96 -22 q 106 39 103 24 q 111 60 110 54 q 119 67 118 60 q 121 81 121 75 q 129 118 121 92 q 146 174 138 144 q 167 224 157 197 q 178 256 178 250 q 183 278 178 267 q 196 301 189 290 q 206 338 203 318 q 210 369 210 358 q 228 408 218 388 q 243 451 238 429 q 268 522 251 475 q 303 615 285 568 q 327 670 315 642 q 349 719 339 699 q 363 739 358 739 q 363 744 363 739 q 363 754 363 749 q 374 781 363 761 q 394 824 385 801 q 414 863 408 844 q 419 882 419 882 q 425 891 419 882 q 436 906 431 900 q 498 925 472 925 q 533 892 524 925 q 543 849 544 861 q 533 821 542 838 q 504 758 522 796 q 467 676 486 719 q 430 594 447 633 q 402 526 413 554 q 392 492 392 499 l 333 349 q 315 299 328 339 q 286 205 303 260 q 252 94 269 150 q 218 -8 235 38 q 203 -48 210 -32 q 189 -72 196 -64 q 172 -81 182 -81 q 160 -76 167 -81 q 144 -65 153 -72 m 636 -62 q 602 -51 624 -64 q 556 -18 581 -37 q 510 22 532 1 q 476 58 489 43 q 420 144 454 90 q 369 258 386 199 q 349 330 360 303 q 339 378 339 357 l 340 464 l 442 471 q 464 347 449 396 q 500 258 479 297 q 537 188 517 222 q 582 129 557 153 q 639 78 614 94 q 676 61 664 61 q 715 38 703 49 q 732 18 728 26 q 735 3 736 10 q 733 -16 736 -1 q 725 -45 731 -31 q 710 -64 719 -60 q 685 -76 700 -74 q 636 -62 669 -78 m 314 468 l 415 543 q 440 566 419 547 q 518 629 460 585 l 701 778 q 765 818 736 796 q 814 853 794 840 q 863 888 838 869 q 893 904 888 906 q 919 894 904 910 q 945 856 935 878 q 954 824 956 835 q 950 800 957 810 q 914 774 943 790 q 859 744 879 758 q 836 724 839 731 q 807 701 836 724 q 738 651 778 679 q 647 585 682 614 q 600 540 611 557 q 590 536 594 540 q 579 533 585 532 q 568 526 579 533 q 551 510 557 518 q 540 492 549 503 q 518 482 531 481 q 483 459 508 476 q 431 421 458 442 q 385 383 404 400 q 364 364 365 367 l 314 468 m 221 -267 q 196 -260 207 -267 q 182 -249 185 -254 q 201 -222 182 -239 q 255 -159 238 -194 q 282 -89 272 -124 q 294 -53 282 -67 q 331 -39 307 -39 q 359 -55 343 -39 q 375 -114 375 -71 q 372 -134 375 -124 q 365 -156 369 -144 q 351 -181 360 -167 q 333 -205 349 -187 q 300 -237 317 -222 q 279 -251 283 -251 q 270 -255 274 -251 q 257 -262 267 -258 q 221 -267 247 -267 z "},"L":{"ha":592,"x_min":124,"x_max":646,"o":"m 269 -85 q 180 -27 214 -71 q 125 78 146 17 q 124 128 124 96 q 128 188 125 160 q 133 219 131 215 q 138 236 138 222 q 140 255 136 242 q 147 282 143 268 q 154 309 154 299 q 153 325 154 319 q 157 334 153 325 q 167 349 161 343 q 174 365 175 357 q 174 374 174 374 q 176 389 172 379 q 185 404 181 399 q 192 416 188 407 q 197 425 197 425 q 203 447 197 429 q 218 487 210 465 q 234 526 226 508 q 246 550 242 544 l 246 553 q 261 582 251 567 q 268 605 263 589 q 281 636 274 621 q 319 712 296 669 q 368 797 342 754 q 419 873 394 839 q 461 924 443 907 q 509 962 485 950 q 554 953 533 974 q 571 924 564 943 q 577 890 578 906 q 565 872 576 874 q 539 841 556 867 q 502 781 522 815 q 463 709 482 746 q 426 643 443 672 q 393 573 408 603 q 378 543 378 543 q 375 536 376 539 q 372 531 374 533 q 338 452 351 488 q 310 378 324 417 q 300 358 301 368 q 299 349 299 349 q 294 342 296 350 q 289 325 293 335 q 281 308 282 319 q 279 285 279 296 q 261 224 269 260 q 249 156 253 189 q 247 106 246 124 q 260 66 250 82 q 290 40 271 50 q 318 28 306 33 q 340 24 331 24 q 369 24 351 22 q 417 32 386 26 l 415 32 q 453 40 433 35 q 492 49 474 44 q 524 55 508 51 q 547 61 539 58 q 597 75 578 69 q 622 75 615 81 q 638 54 629 69 q 642 26 646 39 q 614 -2 639 19 q 557 -45 589 -24 q 499 -75 525 -67 q 424 -92 471 -87 q 335 -94 378 -97 q 269 -85 292 -92 z "},"Ĺ":{"ha":592,"x_min":124,"x_max":807,"o":"m 269 -85 q 180 -27 214 -71 q 125 78 146 17 q 124 128 124 96 q 128 188 125 160 q 133 219 131 215 q 138 236 138 222 q 140 255 136 242 q 147 282 143 268 q 154 309 154 299 q 153 325 154 319 q 157 334 153 325 q 167 349 161 343 q 174 365 175 357 q 174 374 174 374 q 176 389 172 379 q 185 404 181 399 q 192 416 188 407 q 197 425 197 425 q 203 447 197 429 q 218 487 210 465 q 234 526 226 508 q 246 550 242 544 l 246 553 q 261 582 251 567 q 268 605 263 589 q 281 636 274 621 q 319 712 296 669 q 368 797 342 754 q 419 873 394 839 q 461 924 443 907 q 509 962 485 950 q 554 953 533 974 q 571 924 564 943 q 577 890 578 906 q 565 872 576 874 q 539 841 556 867 q 502 781 522 815 q 463 709 482 746 q 426 643 443 672 q 393 573 408 603 q 378 543 378 543 q 375 536 376 539 q 372 531 374 533 q 338 452 351 488 q 310 378 324 417 q 300 358 301 368 q 299 349 299 349 q 294 342 296 350 q 289 325 293 335 q 281 308 282 319 q 279 285 279 296 q 261 224 269 260 q 249 156 253 189 q 247 106 246 124 q 260 66 250 82 q 290 40 271 50 q 318 28 306 33 q 340 24 331 24 q 369 24 351 22 q 417 32 386 26 l 415 32 q 453 40 433 35 q 492 49 474 44 q 524 55 508 51 q 547 61 539 58 q 597 75 578 69 q 622 75 615 81 q 638 54 629 69 q 642 26 646 39 q 614 -2 639 19 q 557 -45 589 -24 q 499 -75 525 -67 q 424 -92 471 -87 q 335 -94 378 -97 q 269 -85 292 -92 m 613 992 q 598 1016 603 1001 q 594 1065 593 1031 q 613 1093 596 1072 q 655 1140 631 1114 q 704 1188 679 1167 q 744 1214 729 1208 q 783 1200 763 1221 q 804 1147 803 1179 q 792 1119 807 1136 q 753 1083 776 1101 q 707 1045 729 1064 q 674 1011 685 1026 q 644 985 660 989 q 613 992 628 982 z "},"Ľ":{"ha":592,"x_min":124,"x_max":821,"o":"m 269 -85 q 180 -27 214 -71 q 125 78 146 17 q 124 128 124 96 q 128 188 125 160 q 133 219 131 215 q 138 236 138 222 q 140 255 136 242 q 147 282 143 268 q 154 309 154 299 q 153 325 154 319 q 157 334 153 325 q 167 349 161 343 q 174 365 175 357 q 174 374 174 374 q 176 389 172 379 q 185 404 181 399 q 192 416 188 407 q 197 425 197 425 q 203 447 197 429 q 218 487 210 465 q 234 526 226 508 q 246 550 242 544 l 246 553 q 261 582 251 567 q 268 605 263 589 q 281 636 274 621 q 319 712 296 669 q 368 797 342 754 q 419 873 394 839 q 461 924 443 907 q 509 962 485 950 q 554 953 533 974 q 571 924 564 943 q 577 890 578 906 q 565 872 576 874 q 539 841 556 867 q 502 781 522 815 q 463 709 482 746 q 426 643 443 672 q 393 573 408 603 q 378 543 378 543 q 375 536 376 539 q 372 531 374 533 q 338 452 351 488 q 310 378 324 417 q 300 358 301 368 q 299 349 299 349 q 294 342 296 350 q 289 325 293 335 q 281 308 282 319 q 279 285 279 296 q 261 224 269 260 q 249 156 253 189 q 247 106 246 124 q 260 66 250 82 q 290 40 271 50 q 318 28 306 33 q 340 24 331 24 q 369 24 351 22 q 417 32 386 26 l 415 32 q 453 40 433 35 q 492 49 474 44 q 524 55 508 51 q 547 61 539 58 q 597 75 578 69 q 622 75 615 81 q 638 54 629 69 q 642 26 646 39 q 614 -2 639 19 q 557 -45 589 -24 q 499 -75 525 -67 q 424 -92 471 -87 q 335 -94 378 -97 q 269 -85 292 -92 m 649 708 q 631 710 635 708 q 622 722 628 713 q 627 745 622 732 q 642 767 632 758 q 673 801 656 781 q 703 842 690 821 q 715 876 717 863 q 731 931 714 907 q 771 965 747 956 q 815 953 794 974 q 821 890 821 924 q 806 821 821 856 q 788 792 803 811 q 759 758 774 774 q 740 742 744 742 q 726 732 735 742 q 713 717 718 722 q 685 710 707 711 q 649 708 664 708 z "},"Ļ":{"ha":592,"x_min":124,"x_max":646,"o":"m 269 -85 q 180 -27 214 -71 q 125 78 146 17 q 124 128 124 96 q 128 188 125 160 q 133 219 131 215 q 138 236 138 222 q 140 255 136 242 q 147 282 143 268 q 154 309 154 299 q 153 325 154 319 q 157 334 153 325 q 167 349 161 343 q 174 365 175 357 q 174 374 174 374 q 176 389 172 379 q 185 404 181 399 q 192 416 188 407 q 197 425 197 425 q 203 447 197 429 q 218 487 210 465 q 234 526 226 508 q 246 550 242 544 l 246 553 q 261 582 251 567 q 268 605 263 589 q 281 636 274 621 q 319 712 296 669 q 368 797 342 754 q 419 873 394 839 q 461 924 443 907 q 509 962 485 950 q 554 953 533 974 q 571 924 564 943 q 577 890 578 906 q 565 872 576 874 q 539 841 556 867 q 502 781 522 815 q 463 709 482 746 q 426 643 443 672 q 393 573 408 603 q 378 543 378 543 q 375 536 376 539 q 372 531 374 533 q 338 452 351 488 q 310 378 324 417 q 300 358 301 368 q 299 349 299 349 q 294 342 296 350 q 289 325 293 335 q 281 308 282 319 q 279 285 279 296 q 261 224 269 260 q 249 156 253 189 q 247 106 246 124 q 260 66 250 82 q 290 40 271 50 q 318 28 306 33 q 340 24 331 24 q 369 24 351 22 q 417 32 386 26 l 415 32 q 453 40 433 35 q 492 49 474 44 q 524 55 508 51 q 547 61 539 58 q 597 75 578 69 q 622 75 615 81 q 638 54 629 69 q 642 26 646 39 q 614 -2 639 19 q 557 -45 589 -24 q 499 -75 525 -67 q 424 -92 471 -87 q 335 -94 378 -97 q 269 -85 292 -92 m 178 -329 q 153 -323 164 -329 q 139 -311 142 -317 q 158 -285 139 -301 q 212 -222 194 -257 q 239 -151 229 -186 q 251 -115 239 -129 q 288 -101 264 -101 q 316 -117 300 -101 q 332 -176 332 -133 q 329 -197 332 -186 q 322 -218 326 -207 q 308 -243 317 -229 q 290 -267 306 -250 q 257 -299 274 -285 q 236 -314 240 -314 q 227 -317 231 -314 q 214 -325 224 -321 q 178 -329 204 -329 z "},"Ŀ":{"ha":592,"x_min":124,"x_max":674,"o":"m 269 -85 q 180 -27 214 -71 q 125 78 146 17 q 124 128 124 96 q 128 188 125 160 q 133 219 131 215 q 138 236 138 222 q 140 255 136 242 q 147 282 143 268 q 154 309 154 299 q 153 325 154 319 q 157 334 153 325 q 167 349 161 343 q 174 365 175 357 q 174 374 174 374 q 176 389 172 379 q 185 404 181 399 q 192 416 188 407 q 197 425 197 425 q 203 447 197 429 q 218 487 210 465 q 234 526 226 508 q 246 550 242 544 l 246 553 q 261 582 251 567 q 268 605 263 589 q 281 636 274 621 q 319 712 296 669 q 368 797 342 754 q 419 873 394 839 q 461 924 443 907 q 509 962 485 950 q 554 953 533 974 q 571 924 564 943 q 577 890 578 906 q 565 872 576 874 q 539 841 556 867 q 502 781 522 815 q 463 709 482 746 q 426 643 443 672 q 393 573 408 603 q 378 543 378 543 q 375 536 376 539 q 372 531 374 533 q 338 452 351 488 q 310 378 324 417 q 300 358 301 368 q 299 349 299 349 q 294 342 296 350 q 289 325 293 335 q 281 308 282 319 q 279 285 279 296 q 261 224 269 260 q 249 156 253 189 q 247 106 246 124 q 260 66 250 82 q 290 40 271 50 q 318 28 306 33 q 340 24 331 24 q 369 24 351 22 q 417 32 386 26 l 415 32 q 453 40 433 35 q 492 49 474 44 q 524 55 508 51 q 547 61 539 58 q 597 75 578 69 q 622 75 615 81 q 638 54 629 69 q 642 26 646 39 q 614 -2 639 19 q 557 -45 589 -24 q 499 -75 525 -67 q 424 -92 471 -87 q 335 -94 378 -97 q 269 -85 292 -92 m 536 324 q 523 349 529 331 q 514 385 517 368 q 515 401 511 401 q 535 416 522 403 q 556 446 547 429 q 564 474 565 463 q 578 490 564 488 q 621 494 594 501 q 661 464 647 486 q 668 410 674 438 q 638 351 663 382 q 586 316 617 324 q 536 324 556 308 z "},"Ł":{"ha":592,"x_min":60,"x_max":646,"o":"m 82 306 q 66 333 60 317 q 118 368 72 350 q 167 404 132 383 q 247 447 201 425 q 338 489 292 468 q 422 526 383 510 q 479 553 460 543 q 524 569 511 567 q 556 568 538 572 q 586 541 583 560 q 560 511 589 522 q 531 488 554 501 q 488 457 507 474 q 452 445 482 457 q 381 415 422 433 q 297 378 340 397 q 220 343 254 358 q 172 321 186 328 q 154 313 165 317 q 126 307 143 308 q 99 299 108 297 q 82 306 90 300 m 269 -85 q 180 -27 214 -71 q 125 78 146 17 q 124 128 124 96 q 128 188 125 160 q 133 219 131 215 q 138 236 138 222 q 140 255 136 242 q 147 282 143 268 q 154 309 154 299 q 153 325 154 319 q 157 334 153 325 q 167 349 161 343 q 174 365 175 357 q 174 374 174 374 q 176 389 172 379 q 185 404 181 399 q 192 416 188 407 q 197 425 197 425 q 203 447 197 429 q 218 487 210 465 q 234 526 226 508 q 246 550 242 544 l 246 553 q 261 582 251 567 q 268 605 263 589 q 281 636 274 621 q 319 712 296 669 q 368 797 342 754 q 419 873 394 839 q 461 924 443 907 q 509 962 485 950 q 554 953 533 974 q 571 924 564 943 q 577 890 578 906 q 565 872 576 874 q 539 841 556 867 q 502 781 522 815 q 463 709 482 746 q 426 643 443 672 q 393 573 408 603 q 378 543 378 543 q 375 536 376 539 q 372 531 374 533 q 338 452 351 488 q 310 378 324 417 q 300 358 301 368 q 299 349 299 349 q 294 342 296 350 q 289 325 293 335 q 281 308 282 319 q 279 285 279 296 q 261 224 269 260 q 249 156 253 189 q 247 106 246 124 q 260 66 250 82 q 290 40 271 50 q 318 28 306 33 q 340 24 331 24 q 369 24 351 22 q 417 32 386 26 l 415 32 q 453 40 433 35 q 492 49 474 44 q 524 55 508 51 q 547 61 539 58 q 597 75 578 69 q 622 75 615 81 q 638 54 629 69 q 642 26 646 39 q 614 -2 639 19 q 557 -45 589 -24 q 499 -75 525 -67 q 424 -92 471 -87 q 335 -94 378 -97 q 269 -85 292 -92 z "},"M":{"ha":1013,"x_min":50,"x_max":1168,"o":"m 938 -67 q 911 -70 932 -72 q 878 -50 890 -68 q 867 -6 868 -31 q 867 64 865 19 q 894 192 875 113 q 938 369 914 271 q 988 569 963 467 q 1008 651 1000 618 q 1019 702 1015 685 q 1022 719 1022 719 q 1019 714 1021 717 q 1015 708 1017 711 q 1013 703 1014 706 q 1008 693 1013 703 q 988 660 1003 683 q 967 621 976 643 q 933 563 957 599 q 883 467 911 521 q 836 381 856 413 q 819 354 826 365 q 808 336 811 343 q 790 299 803 321 q 761 256 778 276 q 740 226 753 243 q 717 197 726 210 q 707 183 707 183 q 689 157 704 175 q 652 117 674 139 q 608 78 631 96 q 528 29 560 39 q 457 53 497 19 q 428 98 439 75 q 417 161 417 121 q 431 274 417 201 q 452 371 440 319 q 476 470 464 422 q 499 553 489 518 q 514 603 510 589 q 515 640 518 638 q 501 624 513 642 q 465 560 492 608 q 406 446 439 511 q 343 315 374 381 q 247 139 286 210 q 183 26 208 68 q 145 -38 158 -17 q 126 -69 132 -60 q 117 -81 119 -78 q 81 -61 96 -79 q 56 -18 65 -43 q 51 11 53 -4 q 55 45 50 26 q 71 86 60 64 q 106 147 89 122 q 126 178 122 172 q 138 199 133 188 q 143 219 142 210 q 165 254 150 228 q 194 311 179 281 q 225 362 206 329 q 267 433 244 394 q 306 503 289 471 q 403 678 367 613 q 454 763 439 744 q 472 790 464 769 q 485 819 479 810 q 524 884 504 858 q 560 910 544 910 q 588 901 571 910 q 622 878 606 893 q 651 830 638 860 q 656 751 664 800 q 649 698 654 729 q 638 636 643 667 q 626 585 632 606 q 602 466 615 522 q 578 363 589 410 q 560 280 567 315 q 551 222 553 244 q 556 193 549 200 q 567 197 560 192 q 579 207 575 201 q 594 229 588 218 q 613 257 601 240 q 659 324 635 288 q 717 416 683 361 q 799 552 751 471 q 914 754 846 633 q 975 851 946 803 q 1028 926 1004 900 q 1080 942 1049 949 q 1138 907 1111 935 q 1167 839 1164 879 q 1159 770 1168 819 q 1135 660 1150 721 q 1100 540 1119 599 q 1086 478 1096 517 q 1065 399 1076 439 q 1044 326 1054 358 q 1028 251 1035 279 q 1022 188 1022 224 q 1006 124 1010 165 q 1001 38 1001 82 q 978 -39 996 -17 q 956 -60 961 -61 q 938 -67 944 -56 z "},"N":{"ha":860,"x_min":106,"x_max":1071,"o":"m 153 -118 q 115 -82 125 -103 q 108 -36 106 -61 q 117 15 110 -11 q 141 90 128 60 q 167 152 154 119 q 190 236 181 185 q 230 333 213 288 q 257 408 247 379 q 267 438 267 438 q 278 467 268 443 q 305 524 289 490 q 336 593 321 558 q 381 706 360 660 q 423 790 401 753 q 469 865 444 828 q 517 900 486 894 q 575 894 547 906 q 611 854 603 882 q 623 822 618 840 q 633 769 628 804 q 639 667 638 733 q 642 522 642 588 q 648 400 643 456 q 665 299 653 344 q 674 238 669 274 q 683 168 678 203 q 693 110 688 133 q 704 88 699 88 q 720 99 711 88 q 744 150 729 111 q 783 269 760 189 q 840 486 807 350 q 859 563 847 510 q 876 669 871 615 q 896 746 886 704 q 913 819 906 788 q 921 856 921 851 q 922 872 921 865 q 921 886 922 879 q 933 905 928 886 q 939 938 939 924 q 945 976 939 961 q 958 997 951 990 q 998 1026 974 1025 q 1043 1012 1022 1026 q 1068 976 1064 997 q 1060 908 1071 961 q 1029 764 1050 854 q 1021 714 1029 749 q 1003 640 1013 679 q 990 574 994 601 q 978 506 985 538 q 964 476 971 475 q 888 209 928 319 q 818 29 849 99 q 733 -69 785 -47 q 636 -33 681 -90 q 592 38 610 3 q 563 119 574 72 q 543 239 551 167 q 528 353 535 297 q 519 469 522 410 q 518 594 517 528 q 512 688 519 674 q 490 672 504 701 q 458 593 476 643 q 435 530 449 565 q 408 460 422 494 q 385 400 394 425 q 372 368 375 375 q 353 324 364 351 q 335 267 342 297 q 260 42 285 136 q 225 -82 236 -51 q 199 -129 211 -121 q 153 -118 188 -137 z "},"Ń":{"ha":786,"x_min":100,"x_max":1065,"o":"m 147 -118 q 110 -82 119 -103 q 102 -36 100 -61 q 111 15 104 -11 q 135 90 122 60 q 162 152 149 119 q 185 236 175 185 q 224 333 207 288 q 251 408 242 379 q 261 438 261 438 q 273 467 263 443 q 299 524 283 490 q 331 593 315 558 q 375 706 354 660 q 417 790 396 753 q 464 865 439 828 q 511 900 481 894 q 569 894 542 906 q 606 854 597 882 q 617 822 613 840 q 627 769 622 804 q 633 667 632 733 q 637 522 636 588 q 642 400 638 456 q 660 299 647 344 q 668 238 664 274 q 677 168 672 203 q 688 110 682 133 q 699 88 693 88 q 715 99 706 88 q 739 150 724 111 q 778 269 754 189 q 835 486 801 350 q 853 563 842 510 q 871 669 865 615 q 890 746 881 704 q 908 819 900 788 q 915 856 915 851 q 916 872 915 865 q 915 886 917 879 q 928 905 922 886 q 933 938 933 924 q 940 976 933 961 q 953 997 946 990 q 992 1026 968 1025 q 1038 1012 1017 1026 q 1063 976 1058 997 q 1055 908 1065 961 q 1024 764 1044 854 q 1015 714 1024 749 q 998 640 1007 679 q 985 574 989 601 q 972 506 979 538 q 958 476 965 475 q 883 209 922 319 q 813 29 843 99 q 727 -69 779 -47 q 631 -33 675 -90 q 586 38 604 3 q 557 119 568 72 q 538 239 546 167 q 523 353 529 297 q 514 469 517 410 q 513 594 511 528 q 506 688 514 674 q 485 672 499 701 q 453 593 471 643 q 430 530 443 565 q 403 460 417 494 q 379 400 389 425 q 367 368 369 375 q 347 324 358 351 q 329 267 336 297 q 255 42 279 136 q 219 -82 231 -51 q 194 -129 206 -121 q 147 -118 182 -137 m 632 992 q 617 1016 622 1001 q 614 1065 613 1031 q 633 1093 615 1072 q 674 1140 650 1114 q 724 1188 699 1167 q 764 1214 749 1208 q 802 1200 782 1221 q 824 1147 822 1179 q 811 1119 826 1136 q 772 1083 796 1101 q 726 1045 749 1064 q 693 1011 704 1026 q 663 985 679 989 q 632 992 647 982 z "},"Ň":{"ha":786,"x_min":100,"x_max":1065,"o":"m 147 -118 q 110 -82 119 -103 q 102 -36 100 -61 q 111 15 104 -11 q 135 90 122 60 q 162 152 149 119 q 185 236 175 185 q 224 333 207 288 q 251 408 242 379 q 261 438 261 438 q 273 467 263 443 q 299 524 283 490 q 331 593 315 558 q 375 706 354 660 q 417 790 396 753 q 464 865 439 828 q 511 900 481 894 q 569 894 542 906 q 606 854 597 882 q 617 822 613 840 q 627 769 622 804 q 633 667 632 733 q 637 522 636 588 q 642 400 638 456 q 660 299 647 344 q 668 238 664 274 q 677 168 672 203 q 688 110 682 133 q 699 88 693 88 q 715 99 706 88 q 739 150 724 111 q 778 269 754 189 q 835 486 801 350 q 853 563 842 510 q 871 669 865 615 q 890 746 881 704 q 908 819 900 788 q 915 856 915 851 q 916 872 915 865 q 915 886 917 879 q 928 905 922 886 q 933 938 933 924 q 940 976 933 961 q 953 997 946 990 q 992 1026 968 1025 q 1038 1012 1017 1026 q 1063 976 1058 997 q 1055 908 1065 961 q 1024 764 1044 854 q 1015 714 1024 749 q 998 640 1007 679 q 985 574 989 601 q 972 506 979 538 q 958 476 965 475 q 883 209 922 319 q 813 29 843 99 q 727 -69 779 -47 q 631 -33 675 -90 q 586 38 604 3 q 557 119 568 72 q 538 239 546 167 q 523 353 529 297 q 514 469 517 410 q 513 594 511 528 q 506 688 514 674 q 485 672 499 701 q 453 593 471 643 q 430 530 443 565 q 403 460 417 494 q 379 400 389 425 q 367 368 369 375 q 347 324 358 351 q 329 267 336 297 q 255 42 279 136 q 219 -82 231 -51 q 194 -129 206 -121 q 147 -118 182 -137 m 715 1000 q 689 989 704 992 q 654 1003 674 986 q 613 1042 640 1017 q 563 1092 586 1067 q 532 1131 539 1118 q 539 1174 526 1154 q 574 1197 551 1194 q 618 1174 596 1200 q 649 1141 628 1160 q 692 1103 669 1122 q 733 1128 708 1113 q 781 1160 758 1144 q 813 1185 803 1176 q 853 1191 838 1200 q 873 1163 868 1182 q 871 1131 878 1144 q 851 1108 869 1125 q 808 1069 833 1090 q 758 1028 783 1047 q 715 1000 733 1010 z "},"Ņ":{"ha":786,"x_min":100,"x_max":1065,"o":"m 147 -118 q 110 -82 119 -103 q 102 -36 100 -61 q 111 15 104 -11 q 135 90 122 60 q 162 152 149 119 q 185 236 175 185 q 224 333 207 288 q 251 408 242 379 q 261 438 261 438 q 273 467 263 443 q 299 524 283 490 q 331 593 315 558 q 375 706 354 660 q 417 790 396 753 q 464 865 439 828 q 511 900 481 894 q 569 894 542 906 q 606 854 597 882 q 617 822 613 840 q 627 769 622 804 q 633 667 632 733 q 637 522 636 588 q 642 400 638 456 q 660 299 647 344 q 668 238 664 274 q 677 168 672 203 q 688 110 682 133 q 699 88 693 88 q 715 99 706 88 q 739 150 724 111 q 778 269 754 189 q 835 486 801 350 q 853 563 842 510 q 871 669 865 615 q 890 746 881 704 q 908 819 900 788 q 915 856 915 851 q 916 872 915 865 q 915 886 917 879 q 928 905 922 886 q 933 938 933 924 q 940 976 933 961 q 953 997 946 990 q 992 1026 968 1025 q 1038 1012 1017 1026 q 1063 976 1058 997 q 1055 908 1065 961 q 1024 764 1044 854 q 1015 714 1024 749 q 998 640 1007 679 q 985 574 989 601 q 972 506 979 538 q 958 476 965 475 q 883 209 922 319 q 813 29 843 99 q 727 -69 779 -47 q 631 -33 675 -90 q 586 38 604 3 q 557 119 568 72 q 538 239 546 167 q 523 353 529 297 q 514 469 517 410 q 513 594 511 528 q 506 688 514 674 q 485 672 499 701 q 453 593 471 643 q 430 530 443 565 q 403 460 417 494 q 379 400 389 425 q 367 368 369 375 q 347 324 358 351 q 329 267 336 297 q 255 42 279 136 q 219 -82 231 -51 q 194 -129 206 -121 q 147 -118 182 -137 m 281 -267 q 256 -260 267 -267 q 242 -249 244 -254 q 261 -222 242 -239 q 315 -159 297 -194 q 342 -89 332 -124 q 354 -53 342 -67 q 390 -39 367 -39 q 419 -55 403 -39 q 435 -114 435 -71 q 432 -134 435 -124 q 424 -156 429 -144 q 411 -181 419 -167 q 392 -205 408 -187 q 360 -237 376 -222 q 339 -251 343 -251 q 330 -255 333 -251 q 317 -262 326 -258 q 281 -267 307 -267 z "},"Ṅ":{"ha":786,"x_min":100,"x_max":1065,"o":"m 147 -118 q 110 -82 119 -103 q 102 -36 100 -61 q 111 15 104 -11 q 135 90 122 60 q 162 152 149 119 q 185 236 175 185 q 224 333 207 288 q 251 408 242 379 q 261 438 261 438 q 273 467 263 443 q 299 524 283 490 q 331 593 315 558 q 375 706 354 660 q 417 790 396 753 q 464 865 439 828 q 511 900 481 894 q 569 894 542 906 q 606 854 597 882 q 617 822 613 840 q 627 769 622 804 q 633 667 632 733 q 637 522 636 588 q 642 400 638 456 q 660 299 647 344 q 668 238 664 274 q 677 168 672 203 q 688 110 682 133 q 699 88 693 88 q 715 99 706 88 q 739 150 724 111 q 778 269 754 189 q 835 486 801 350 q 853 563 842 510 q 871 669 865 615 q 890 746 881 704 q 908 819 900 788 q 915 856 915 851 q 916 872 915 865 q 915 886 917 879 q 928 905 922 886 q 933 938 933 924 q 940 976 933 961 q 953 997 946 990 q 992 1026 968 1025 q 1038 1012 1017 1026 q 1063 976 1058 997 q 1055 908 1065 961 q 1024 764 1044 854 q 1015 714 1024 749 q 998 640 1007 679 q 985 574 989 601 q 972 506 979 538 q 958 476 965 475 q 883 209 922 319 q 813 29 843 99 q 727 -69 779 -47 q 631 -33 675 -90 q 586 38 604 3 q 557 119 568 72 q 538 239 546 167 q 523 353 529 297 q 514 469 517 410 q 513 594 511 528 q 506 688 514 674 q 485 672 499 701 q 453 593 471 643 q 430 530 443 565 q 403 460 417 494 q 379 400 389 425 q 367 368 369 375 q 347 324 358 351 q 329 267 336 297 q 255 42 279 136 q 219 -82 231 -51 q 194 -129 206 -121 q 147 -118 182 -137 m 657 1022 q 638 1051 647 1032 q 631 1086 629 1071 q 644 1123 633 1093 q 679 1172 656 1153 q 688 1181 683 1175 q 699 1189 693 1188 q 733 1199 715 1200 q 775 1171 750 1199 q 790 1106 799 1131 q 753 1047 781 1081 q 710 1008 732 1019 q 657 1022 688 997 z "},"Ŋ":{"ha":786,"x_min":119,"x_max":990,"o":"m 538 -217 q 474 -242 517 -235 q 389 -241 431 -249 q 326 -208 347 -233 q 327 -168 319 -187 q 351 -138 335 -149 q 383 -137 367 -128 q 431 -140 399 -142 q 481 -111 463 -137 q 507 -72 493 -97 q 536 -13 521 -46 q 567 51 551 19 q 528 115 543 71 q 501 213 513 158 q 492 270 496 243 q 485 338 488 297 q 481 451 483 379 q 474 596 475 538 q 472 660 474 654 q 460 633 471 660 q 432 564 449 607 q 397 471 415 521 q 362 372 379 421 q 331 285 344 324 q 311 229 317 247 q 266 95 281 149 q 249 26 251 42 q 240 -1 250 15 q 217 -30 229 -18 q 196 -43 204 -42 q 166 -32 183 -44 q 135 -3 149 -19 q 119 19 121 13 q 141 105 124 47 q 184 239 158 163 q 241 400 210 315 q 304 565 272 485 q 358 693 333 632 q 397 794 382 754 q 413 838 413 835 q 427 845 419 839 q 440 853 435 851 q 451 860 447 854 q 458 868 456 865 q 463 886 457 875 q 478 897 469 897 q 512 885 496 900 q 542 847 528 869 q 558 822 549 835 q 578 781 568 808 q 595 700 588 754 q 604 551 603 646 q 608 431 607 486 q 608 342 608 376 q 608 304 608 308 q 612 278 606 300 q 618 244 618 257 q 627 222 626 231 q 632 213 628 213 q 642 224 632 213 q 663 251 653 236 q 683 281 676 264 q 690 299 690 299 q 702 322 697 304 q 713 359 707 339 q 726 394 719 379 q 735 433 731 417 q 744 464 739 450 q 756 490 746 467 q 777 544 765 514 q 797 601 789 575 q 806 633 806 626 q 817 657 813 640 q 829 688 821 674 q 835 723 828 700 q 849 767 842 746 q 883 856 864 825 q 921 888 901 888 q 951 871 936 888 q 981 818 967 854 q 990 794 989 800 q 988 768 990 788 l 940 632 q 915 549 931 596 q 881 455 899 501 q 850 374 864 408 q 829 328 836 339 l 801 272 q 790 238 797 254 q 782 222 782 222 q 774 212 782 222 q 758 189 767 201 q 743 163 754 176 q 740 145 742 154 q 736 128 739 136 q 721 96 731 118 q 703 53 711 74 q 690 28 694 33 q 685 17 689 22 q 681 8 681 13 q 668 -27 681 4 q 632 -99 656 -58 q 607 -140 625 -115 q 569 -185 589 -164 q 538 -217 550 -207 z "},"Ñ":{"ha":786,"x_min":100,"x_max":1065,"o":"m 147 -118 q 110 -82 119 -103 q 102 -36 100 -61 q 111 15 104 -11 q 135 90 122 60 q 162 152 149 119 q 185 236 175 185 q 224 333 207 288 q 251 408 242 379 q 261 438 261 438 q 273 467 263 443 q 299 524 283 490 q 331 593 315 558 q 375 706 354 660 q 417 790 396 753 q 464 865 439 828 q 511 900 481 894 q 569 894 542 906 q 606 854 597 882 q 617 822 613 840 q 627 769 622 804 q 633 667 632 733 q 637 522 636 588 q 642 400 638 456 q 660 299 647 344 q 668 238 664 274 q 677 168 672 203 q 688 110 682 133 q 699 88 693 88 q 715 99 706 88 q 739 150 724 111 q 778 269 754 189 q 835 486 801 350 q 853 563 842 510 q 871 669 865 615 q 890 746 881 704 q 908 819 900 788 q 915 856 915 851 q 916 872 915 865 q 915 886 917 879 q 928 905 922 886 q 933 938 933 924 q 940 976 933 961 q 953 997 946 990 q 992 1026 968 1025 q 1038 1012 1017 1026 q 1063 976 1058 997 q 1055 908 1065 961 q 1024 764 1044 854 q 1015 714 1024 749 q 998 640 1007 679 q 985 574 989 601 q 972 506 979 538 q 958 476 965 475 q 883 209 922 319 q 813 29 843 99 q 727 -69 779 -47 q 631 -33 675 -90 q 586 38 604 3 q 557 119 568 72 q 538 239 546 167 q 523 353 529 297 q 514 469 517 410 q 513 594 511 528 q 506 688 514 674 q 485 672 499 701 q 453 593 471 643 q 430 530 443 565 q 403 460 417 494 q 379 400 389 425 q 367 368 369 375 q 347 324 358 351 q 329 267 336 297 q 255 42 279 136 q 219 -82 231 -51 q 194 -129 206 -121 q 147 -118 182 -137 m 758 1008 q 717 1019 739 1008 q 669 1051 694 1031 q 638 1077 657 1058 q 603 1096 619 1096 q 580 1085 589 1096 q 563 1063 571 1074 q 540 1049 556 1051 q 531 1030 536 1039 q 515 1028 526 1021 q 492 1042 501 1031 q 478 1079 482 1053 q 513 1140 489 1111 q 571 1186 536 1168 q 640 1186 615 1197 q 686 1151 664 1175 q 738 1121 719 1125 q 782 1128 756 1117 q 823 1146 803 1133 q 872 1169 843 1158 q 892 1164 882 1174 q 909 1140 903 1154 q 914 1118 915 1126 q 900 1087 913 1101 q 875 1065 888 1072 q 810 1029 833 1042 q 775 1013 786 1017 q 758 1008 764 1008 z "},"O":{"ha":701,"x_min":143,"x_max":865,"o":"m 260 -49 q 178 22 208 -11 q 146 85 149 54 q 147 153 143 110 q 156 238 150 196 q 165 300 161 279 q 172 319 172 307 q 171 331 171 331 q 181 367 169 338 q 201 444 192 397 q 255 584 229 528 q 306 681 281 640 q 356 754 331 721 q 463 847 413 813 q 557 901 514 882 q 608 928 585 918 q 647 931 632 938 q 779 863 725 914 q 851 714 833 811 q 863 603 861 653 q 856 506 865 554 q 820 401 846 458 q 749 268 794 344 q 624 80 692 156 q 490 -35 557 4 q 362 -77 422 -74 q 260 -49 301 -81 m 371 43 q 423 56 403 47 q 465 88 443 64 q 528 157 488 111 q 588 228 564 199 q 630 288 613 257 q 663 360 647 318 q 699 469 679 403 q 715 531 710 511 q 721 565 719 551 q 722 603 722 579 q 721 678 721 628 q 711 731 719 701 q 692 774 703 761 q 650 800 678 789 q 592 797 622 811 q 550 769 575 790 q 499 718 525 747 q 449 660 472 689 q 411 607 425 631 q 397 574 397 583 q 397 567 397 574 q 390 553 396 560 q 353 489 372 533 q 317 388 333 444 q 289 274 300 331 q 275 171 278 217 q 275 133 275 149 q 278 106 275 118 q 290 81 282 94 q 324 53 299 67 q 371 43 350 39 z "},"Ó":{"ha":689,"x_min":138,"x_max":860,"o":"m 254 -49 q 173 22 203 -11 q 140 85 143 54 q 141 153 138 110 q 150 238 144 196 q 160 300 156 279 q 166 319 167 307 q 165 331 165 331 q 175 367 164 338 q 196 444 186 397 q 249 584 224 528 q 300 681 275 640 q 350 754 325 721 q 458 847 407 813 q 551 901 508 882 q 603 928 579 918 q 642 931 626 938 q 774 863 719 914 q 846 714 828 811 q 858 603 856 653 q 850 506 860 554 q 815 401 840 458 q 743 268 789 344 q 619 80 686 156 q 484 -35 551 4 q 356 -77 417 -74 q 254 -49 296 -81 m 365 43 q 417 56 397 47 q 460 88 438 64 q 522 157 482 111 q 583 228 558 199 q 624 288 607 257 q 658 360 642 318 q 693 469 674 403 q 709 531 704 511 q 715 565 714 551 q 716 603 717 579 q 715 678 715 628 q 706 731 714 701 q 686 774 697 761 q 644 800 672 789 q 586 797 617 811 q 544 769 569 790 q 493 718 519 747 q 443 660 467 689 q 406 607 419 631 q 392 574 392 583 q 391 567 392 574 q 385 553 390 560 q 347 489 367 533 q 311 388 328 444 q 283 274 294 331 q 269 171 272 217 q 269 133 269 149 q 273 106 269 118 q 285 81 276 94 q 319 53 293 67 q 365 43 344 39 m 660 992 q 645 1016 650 1001 q 642 1065 640 1031 q 660 1093 643 1072 q 702 1140 678 1114 q 751 1188 726 1167 q 792 1214 776 1208 q 830 1200 810 1221 q 851 1147 850 1179 q 839 1119 854 1136 q 800 1083 824 1101 q 754 1045 776 1064 q 721 1011 732 1026 q 691 985 707 989 q 660 992 675 982 z "},"Ŏ":{"ha":689,"x_min":138,"x_max":913,"o":"m 254 -49 q 173 22 203 -11 q 140 85 143 54 q 141 153 138 110 q 150 238 144 196 q 160 300 156 279 q 166 319 167 307 q 165 331 165 331 q 175 367 164 338 q 196 444 186 397 q 249 584 224 528 q 300 681 275 640 q 350 754 325 721 q 458 847 407 813 q 551 901 508 882 q 603 928 579 918 q 642 931 626 938 q 774 863 719 914 q 846 714 828 811 q 858 603 856 653 q 850 506 860 554 q 815 401 840 458 q 743 268 789 344 q 619 80 686 156 q 484 -35 551 4 q 356 -77 417 -74 q 254 -49 296 -81 m 365 43 q 417 56 397 47 q 460 88 438 64 q 522 157 482 111 q 583 228 558 199 q 624 288 607 257 q 658 360 642 318 q 693 469 674 403 q 709 531 704 511 q 715 565 714 551 q 716 603 717 579 q 715 678 715 628 q 706 731 714 701 q 686 774 697 761 q 644 800 672 789 q 586 797 617 811 q 544 769 569 790 q 493 718 519 747 q 443 660 467 689 q 406 607 419 631 q 392 574 392 583 q 391 567 392 574 q 385 553 390 560 q 347 489 367 533 q 311 388 328 444 q 283 274 294 331 q 269 171 272 217 q 269 133 269 149 q 273 106 269 118 q 285 81 276 94 q 319 53 293 67 q 365 43 344 39 m 714 974 q 631 996 669 978 q 576 1049 593 1014 q 571 1138 558 1085 q 597 1190 579 1175 q 633 1202 615 1204 q 662 1185 651 1200 q 665 1146 672 1169 q 662 1113 661 1131 q 678 1082 663 1094 q 735 1071 693 1069 q 768 1084 753 1072 q 795 1113 783 1096 q 815 1143 807 1129 q 858 1195 839 1185 q 890 1197 876 1206 q 908 1168 903 1188 q 908 1129 913 1149 q 885 1074 903 1103 q 842 1021 868 1044 q 784 984 817 997 q 714 974 751 971 z "},"Ô":{"ha":689,"x_min":138,"x_max":915,"o":"m 254 -49 q 173 22 203 -11 q 140 85 143 54 q 141 153 138 110 q 150 238 144 196 q 160 300 156 279 q 166 319 167 307 q 165 331 165 331 q 175 367 164 338 q 196 444 186 397 q 249 584 224 528 q 300 681 275 640 q 350 754 325 721 q 458 847 407 813 q 551 901 508 882 q 603 928 579 918 q 642 931 626 938 q 774 863 719 914 q 846 714 828 811 q 858 603 856 653 q 850 506 860 554 q 815 401 840 458 q 743 268 789 344 q 619 80 686 156 q 484 -35 551 4 q 356 -77 417 -74 q 254 -49 296 -81 m 365 43 q 417 56 397 47 q 460 88 438 64 q 522 157 482 111 q 583 228 558 199 q 624 288 607 257 q 658 360 642 318 q 693 469 674 403 q 709 531 704 511 q 715 565 714 551 q 716 603 717 579 q 715 678 715 628 q 706 731 714 701 q 686 774 697 761 q 644 800 672 789 q 586 797 617 811 q 544 769 569 790 q 493 718 519 747 q 443 660 467 689 q 406 607 419 631 q 392 574 392 583 q 391 567 392 574 q 385 553 390 560 q 347 489 367 533 q 311 388 328 444 q 283 274 294 331 q 269 171 272 217 q 269 133 269 149 q 273 106 269 118 q 285 81 276 94 q 319 53 293 67 q 365 43 344 39 m 642 1010 q 599 994 618 986 q 573 1024 579 1001 q 579 1067 567 1047 q 601 1088 583 1072 q 642 1125 618 1104 q 688 1163 665 1146 q 725 1189 711 1181 q 762 1201 743 1204 q 789 1185 781 1197 q 829 1148 806 1171 q 875 1102 853 1125 q 907 1065 897 1079 q 910 1031 915 1049 q 892 1001 906 1013 q 860 992 878 990 q 824 1018 842 994 q 793 1048 814 1026 q 751 1088 772 1069 q 713 1063 735 1078 q 671 1033 690 1047 q 642 1010 651 1018 z "},"Ȍ":{"ha":689,"x_min":138,"x_max":860,"o":"m 254 -49 q 173 22 203 -11 q 140 85 143 54 q 141 153 138 110 q 150 238 144 196 q 160 300 156 279 q 166 319 167 307 q 165 331 165 331 q 175 367 164 338 q 196 444 186 397 q 249 584 224 528 q 300 681 275 640 q 350 754 325 721 q 458 847 407 813 q 551 901 508 882 q 603 928 579 918 q 642 931 626 938 q 774 863 719 914 q 846 714 828 811 q 858 603 856 653 q 850 506 860 554 q 815 401 840 458 q 743 268 789 344 q 619 80 686 156 q 484 -35 551 4 q 356 -77 417 -74 q 254 -49 296 -81 m 365 43 q 417 56 397 47 q 460 88 438 64 q 522 157 482 111 q 583 228 558 199 q 624 288 607 257 q 658 360 642 318 q 693 469 674 403 q 709 531 704 511 q 715 565 714 551 q 716 603 717 579 q 715 678 715 628 q 706 731 714 701 q 686 774 697 761 q 644 800 672 789 q 586 797 617 811 q 544 769 569 790 q 493 718 519 747 q 443 660 467 689 q 406 607 419 631 q 392 574 392 583 q 391 567 392 574 q 385 553 390 560 q 347 489 367 533 q 311 388 328 444 q 283 274 294 331 q 269 171 272 217 q 269 133 269 149 q 273 106 269 118 q 285 81 276 94 q 319 53 293 67 q 365 43 344 39 m 575 979 q 553 980 561 972 q 538 1022 546 988 q 515 1068 529 1043 q 486 1117 500 1093 q 467 1163 472 1142 q 472 1197 463 1183 q 508 1228 488 1217 q 543 1229 528 1240 q 572 1193 557 1221 q 601 1132 588 1165 q 624 1073 615 1099 q 632 1043 632 1047 q 622 1022 633 1035 q 597 997 611 1008 q 575 979 583 985 m 746 981 q 724 979 731 974 q 708 1018 717 985 q 681 1070 696 1043 q 653 1121 665 1097 q 635 1164 640 1144 q 639 1194 631 1183 q 681 1231 663 1225 q 708 1231 699 1238 q 735 1200 721 1224 q 763 1147 750 1176 q 786 1088 776 1117 q 800 1040 796 1060 q 787 1017 801 1035 q 746 981 772 1000 z "},"Ö":{"ha":689,"x_min":138,"x_max":933,"o":"m 254 -49 q 173 22 203 -11 q 140 85 143 54 q 141 153 138 110 q 150 238 144 196 q 160 300 156 279 q 166 319 167 307 q 165 331 165 331 q 175 367 164 338 q 196 444 186 397 q 249 584 224 528 q 300 681 275 640 q 350 754 325 721 q 458 847 407 813 q 551 901 508 882 q 603 928 579 918 q 642 931 626 938 q 774 863 719 914 q 846 714 828 811 q 858 603 856 653 q 850 506 860 554 q 815 401 840 458 q 743 268 789 344 q 619 80 686 156 q 484 -35 551 4 q 356 -77 417 -74 q 254 -49 296 -81 m 365 43 q 417 56 397 47 q 460 88 438 64 q 522 157 482 111 q 583 228 558 199 q 624 288 607 257 q 658 360 642 318 q 693 469 674 403 q 709 531 704 511 q 715 565 714 551 q 716 603 717 579 q 715 678 715 628 q 706 731 714 701 q 686 774 697 761 q 644 800 672 789 q 586 797 617 811 q 544 769 569 790 q 493 718 519 747 q 443 660 467 689 q 406 607 419 631 q 392 574 392 583 q 391 567 392 574 q 385 553 390 560 q 347 489 367 533 q 311 388 328 444 q 283 274 294 331 q 269 171 272 217 q 269 133 269 149 q 273 106 269 118 q 285 81 276 94 q 319 53 293 67 q 365 43 344 39 m 790 1036 q 774 1067 781 1046 q 768 1094 767 1089 q 779 1124 771 1101 q 793 1151 788 1146 q 815 1177 800 1161 q 836 1194 831 1193 q 874 1203 851 1211 q 907 1172 896 1194 q 924 1110 933 1140 q 886 1053 914 1081 q 834 1013 858 1010 q 790 1036 810 1015 m 590 1022 q 561 1060 571 1036 q 554 1093 551 1083 q 572 1140 557 1113 q 597 1176 588 1168 q 610 1186 601 1179 q 626 1197 619 1193 q 660 1202 644 1210 q 688 1178 676 1194 q 704 1147 700 1163 q 706 1106 714 1129 q 676 1060 699 1083 q 634 1019 654 1031 q 590 1022 614 1007 z "},"Ọ":{"ha":689,"x_min":138,"x_max":860,"o":"m 254 -49 q 173 22 203 -11 q 140 85 143 54 q 141 153 138 110 q 150 238 144 196 q 160 300 156 279 q 166 319 167 307 q 165 331 165 331 q 175 367 164 338 q 196 444 186 397 q 249 584 224 528 q 300 681 275 640 q 350 754 325 721 q 458 847 407 813 q 551 901 508 882 q 603 928 579 918 q 642 931 626 938 q 774 863 719 914 q 846 714 828 811 q 858 603 856 653 q 850 506 860 554 q 815 401 840 458 q 743 268 789 344 q 619 80 686 156 q 484 -35 551 4 q 356 -77 417 -74 q 254 -49 296 -81 m 365 43 q 417 56 397 47 q 460 88 438 64 q 522 157 482 111 q 583 228 558 199 q 624 288 607 257 q 658 360 642 318 q 693 469 674 403 q 709 531 704 511 q 715 565 714 551 q 716 603 717 579 q 715 678 715 628 q 706 731 714 701 q 686 774 697 761 q 644 800 672 789 q 586 797 617 811 q 544 769 569 790 q 493 718 519 747 q 443 660 467 689 q 406 607 419 631 q 392 574 392 583 q 391 567 392 574 q 385 553 390 560 q 347 489 367 533 q 311 388 328 444 q 283 274 294 331 q 269 171 272 217 q 269 133 269 149 q 273 106 269 118 q 285 81 276 94 q 319 53 293 67 q 365 43 344 39 m 211 -262 q 190 -231 194 -244 q 186 -207 185 -217 q 206 -163 193 -186 q 228 -133 218 -140 q 244 -122 238 -125 q 257 -117 251 -118 q 293 -112 274 -106 q 328 -139 313 -119 q 344 -187 347 -169 q 318 -231 340 -206 q 256 -276 278 -271 q 211 -262 235 -281 z "},"Ò":{"ha":689,"x_min":138,"x_max":860,"o":"m 254 -49 q 173 22 203 -11 q 140 85 143 54 q 141 153 138 110 q 150 238 144 196 q 160 300 156 279 q 166 319 167 307 q 165 331 165 331 q 175 367 164 338 q 196 444 186 397 q 249 584 224 528 q 300 681 275 640 q 350 754 325 721 q 458 847 407 813 q 551 901 508 882 q 603 928 579 918 q 642 931 626 938 q 774 863 719 914 q 846 714 828 811 q 858 603 856 653 q 850 506 860 554 q 815 401 840 458 q 743 268 789 344 q 619 80 686 156 q 484 -35 551 4 q 356 -77 417 -74 q 254 -49 296 -81 m 365 43 q 417 56 397 47 q 460 88 438 64 q 522 157 482 111 q 583 228 558 199 q 624 288 607 257 q 658 360 642 318 q 693 469 674 403 q 709 531 704 511 q 715 565 714 551 q 716 603 717 579 q 715 678 715 628 q 706 731 714 701 q 686 774 697 761 q 644 800 672 789 q 586 797 617 811 q 544 769 569 790 q 493 718 519 747 q 443 660 467 689 q 406 607 419 631 q 392 574 392 583 q 391 567 392 574 q 385 553 390 560 q 347 489 367 533 q 311 388 328 444 q 283 274 294 331 q 269 171 272 217 q 269 133 269 149 q 273 106 269 118 q 285 81 276 94 q 319 53 293 67 q 365 43 344 39 m 747 978 q 728 983 733 971 q 720 1013 724 994 q 707 1046 717 1032 q 674 1101 693 1072 q 647 1158 656 1131 q 654 1201 639 1185 q 701 1235 685 1233 q 731 1221 717 1236 q 753 1190 740 1215 q 780 1132 767 1164 q 802 1074 793 1100 q 811 1039 811 1047 q 792 1010 813 1033 q 747 978 771 986 z "},"Ő":{"ha":689,"x_min":138,"x_max":964,"o":"m 254 -49 q 173 22 203 -11 q 140 85 143 54 q 141 153 138 110 q 150 238 144 196 q 160 300 156 279 q 166 319 167 307 q 165 331 165 331 q 175 367 164 338 q 196 444 186 397 q 249 584 224 528 q 300 681 275 640 q 350 754 325 721 q 458 847 407 813 q 551 901 508 882 q 603 928 579 918 q 642 931 626 938 q 774 863 719 914 q 846 714 828 811 q 858 603 856 653 q 850 506 860 554 q 815 401 840 458 q 743 268 789 344 q 619 80 686 156 q 484 -35 551 4 q 356 -77 417 -74 q 254 -49 296 -81 m 365 43 q 417 56 397 47 q 460 88 438 64 q 522 157 482 111 q 583 228 558 199 q 624 288 607 257 q 658 360 642 318 q 693 469 674 403 q 709 531 704 511 q 715 565 714 551 q 716 603 717 579 q 715 678 715 628 q 706 731 714 701 q 686 774 697 761 q 644 800 672 789 q 586 797 617 811 q 544 769 569 790 q 493 718 519 747 q 443 660 467 689 q 406 607 419 631 q 392 574 392 583 q 391 567 392 574 q 385 553 390 560 q 347 489 367 533 q 311 388 328 444 q 283 274 294 331 q 269 171 272 217 q 269 133 269 149 q 273 106 269 118 q 285 81 276 94 q 319 53 293 67 q 365 43 344 39 m 551 993 q 537 1019 542 999 q 535 1068 532 1039 q 556 1097 539 1076 q 594 1142 572 1118 q 637 1183 617 1165 q 667 1206 657 1201 q 711 1206 694 1221 q 738 1154 728 1190 q 735 1133 739 1143 q 719 1112 731 1124 q 687 1081 708 1100 q 629 1033 665 1063 q 611 1014 619 1028 q 590 992 603 1000 q 551 993 578 985 m 772 996 q 758 1031 763 1006 q 756 1068 754 1057 q 774 1092 757 1072 q 815 1138 792 1113 q 858 1182 838 1163 q 889 1206 879 1201 q 929 1208 911 1218 q 961 1150 947 1199 q 948 1119 964 1138 q 909 1082 932 1101 q 865 1044 886 1063 q 835 1013 844 1026 q 803 989 821 992 q 772 996 785 986 z "},"Ȏ":{"ha":689,"x_min":138,"x_max":883,"o":"m 254 -49 q 173 22 203 -11 q 140 85 143 54 q 141 153 138 110 q 150 238 144 196 q 160 300 156 279 q 166 319 167 307 q 165 331 165 331 q 175 367 164 338 q 196 444 186 397 q 249 584 224 528 q 300 681 275 640 q 350 754 325 721 q 458 847 407 813 q 551 901 508 882 q 603 928 579 918 q 642 931 626 938 q 774 863 719 914 q 846 714 828 811 q 858 603 856 653 q 850 506 860 554 q 815 401 840 458 q 743 268 789 344 q 619 80 686 156 q 484 -35 551 4 q 356 -77 417 -74 q 254 -49 296 -81 m 365 43 q 417 56 397 47 q 460 88 438 64 q 522 157 482 111 q 583 228 558 199 q 624 288 607 257 q 658 360 642 318 q 693 469 674 403 q 709 531 704 511 q 715 565 714 551 q 716 603 717 579 q 715 678 715 628 q 706 731 714 701 q 686 774 697 761 q 644 800 672 789 q 586 797 617 811 q 544 769 569 790 q 493 718 519 747 q 443 660 467 689 q 406 607 419 631 q 392 574 392 583 q 391 567 392 574 q 385 553 390 560 q 347 489 367 533 q 311 388 328 444 q 283 274 294 331 q 269 171 272 217 q 269 133 269 149 q 273 106 269 118 q 285 81 276 94 q 319 53 293 67 q 365 43 344 39 m 768 1026 q 775 1064 771 1044 q 769 1097 779 1083 q 721 1111 760 1111 q 683 1103 703 1113 q 643 1072 663 1093 q 604 1013 624 1050 q 568 979 586 982 q 538 996 550 976 q 525 1050 526 1015 q 559 1105 538 1076 q 608 1158 581 1133 q 665 1197 635 1183 q 726 1208 696 1211 q 822 1176 786 1203 q 870 1113 857 1150 q 874 1038 883 1075 q 834 979 860 990 q 788 983 808 968 q 768 1026 767 997 z "},"Ō":{"ha":689,"x_min":138,"x_max":899,"o":"m 254 -49 q 173 22 203 -11 q 140 85 143 54 q 141 153 138 110 q 150 238 144 196 q 160 300 156 279 q 166 319 167 307 q 165 331 165 331 q 175 367 164 338 q 196 444 186 397 q 249 584 224 528 q 300 681 275 640 q 350 754 325 721 q 458 847 407 813 q 551 901 508 882 q 603 928 579 918 q 642 931 626 938 q 774 863 719 914 q 846 714 828 811 q 858 603 856 653 q 850 506 860 554 q 815 401 840 458 q 743 268 789 344 q 619 80 686 156 q 484 -35 551 4 q 356 -77 417 -74 q 254 -49 296 -81 m 365 43 q 417 56 397 47 q 460 88 438 64 q 522 157 482 111 q 583 228 558 199 q 624 288 607 257 q 658 360 642 318 q 693 469 674 403 q 709 531 704 511 q 715 565 714 551 q 716 603 717 579 q 715 678 715 628 q 706 731 714 701 q 686 774 697 761 q 644 800 672 789 q 586 797 617 811 q 544 769 569 790 q 493 718 519 747 q 443 660 467 689 q 406 607 419 631 q 392 574 392 583 q 391 567 392 574 q 385 553 390 560 q 347 489 367 533 q 311 388 328 444 q 283 274 294 331 q 269 171 272 217 q 269 133 269 149 q 273 106 269 118 q 285 81 276 94 q 319 53 293 67 q 365 43 344 39 m 647 1056 q 619 1056 633 1054 q 590 1063 604 1058 q 560 1071 569 1065 q 540 1092 550 1076 q 547 1123 528 1113 q 611 1139 565 1133 q 691 1153 654 1147 q 771 1158 728 1158 q 839 1152 814 1158 q 881 1129 864 1146 q 893 1092 899 1114 q 863 1068 888 1071 q 832 1067 853 1068 q 789 1065 811 1065 q 750 1063 767 1064 q 724 1060 739 1061 q 691 1057 710 1058 q 647 1056 672 1056 z "},"Ǫ":{"ha":689,"x_min":126,"x_max":860,"o":"m 254 -49 q 173 22 203 -11 q 140 85 143 54 q 141 153 138 110 q 150 238 144 196 q 160 300 156 279 q 166 319 167 307 q 165 331 165 331 q 175 367 164 338 q 196 444 186 397 q 249 584 224 528 q 300 681 275 640 q 350 754 325 721 q 458 847 407 813 q 551 901 508 882 q 603 928 579 918 q 642 931 626 938 q 774 863 719 914 q 846 714 828 811 q 858 603 856 653 q 850 506 860 554 q 815 401 840 458 q 743 268 789 344 q 619 80 686 156 q 484 -35 551 4 q 356 -77 417 -74 q 254 -49 296 -81 m 365 43 q 417 56 397 47 q 460 88 438 64 q 522 157 482 111 q 583 228 558 199 q 624 288 607 257 q 658 360 642 318 q 693 469 674 403 q 709 531 704 511 q 715 565 714 551 q 716 603 717 579 q 715 678 715 628 q 706 731 714 701 q 686 774 697 761 q 644 800 672 789 q 586 797 617 811 q 544 769 569 790 q 493 718 519 747 q 443 660 467 689 q 406 607 419 631 q 392 574 392 583 q 391 567 392 574 q 385 553 390 560 q 347 489 367 533 q 311 388 328 444 q 283 274 294 331 q 269 171 272 217 q 269 133 269 149 q 273 106 269 118 q 285 81 276 94 q 319 53 293 67 q 365 43 344 39 m 229 -317 q 174 -286 201 -308 q 136 -230 146 -264 q 151 -154 126 -196 q 201 -91 169 -124 q 270 -28 233 -58 q 338 21 307 1 l 414 -21 q 341 -74 383 -39 q 274 -140 299 -110 q 247 -179 254 -164 q 249 -210 239 -194 q 274 -218 253 -218 q 328 -199 306 -212 q 385 -168 350 -185 q 413 -167 403 -158 q 424 -193 422 -176 q 420 -227 426 -210 q 397 -251 414 -244 q 371 -262 392 -253 q 323 -284 350 -272 q 270 -305 296 -296 q 229 -317 244 -314 z "},"Ø":{"ha":689,"x_min":108,"x_max":910,"o":"m 169 -140 q 125 -119 142 -139 q 119 -56 108 -100 q 181 64 129 -11 q 201 92 192 79 q 213 115 210 106 q 239 157 218 124 q 290 237 260 190 q 355 334 321 283 q 419 430 389 385 q 469 505 449 475 q 492 538 489 535 q 504 544 497 536 q 514 561 511 551 q 526 584 518 572 q 542 597 535 596 q 551 612 544 604 q 558 625 557 619 q 565 635 560 631 q 571 644 569 639 q 613 692 585 658 q 672 769 640 726 q 735 852 704 811 q 785 922 765 893 q 808 958 806 951 q 838 971 815 979 q 862 974 842 974 q 888 972 882 974 q 890 966 888 972 q 901 944 893 960 q 908 912 910 931 q 900 878 907 893 q 883 847 894 860 q 847 814 871 835 q 782 749 824 793 q 743 708 761 725 q 725 685 725 690 q 721 677 722 679 q 710 660 719 675 q 685 631 701 651 q 651 589 668 611 q 622 550 635 567 q 610 531 610 533 q 605 521 607 526 q 594 513 603 515 q 587 508 590 515 q 583 500 583 500 q 572 477 583 494 q 540 436 560 460 q 496 371 525 414 q 430 272 467 328 q 354 158 393 217 q 282 48 315 100 q 226 -40 249 -4 q 200 -89 204 -76 q 185 -128 190 -119 q 169 -140 181 -137 m 246 -49 q 165 22 194 -11 q 132 85 135 54 q 133 153 129 110 q 142 238 136 196 q 151 300 147 279 q 158 319 158 307 q 157 331 157 331 q 167 367 156 338 q 188 444 178 397 q 241 584 215 528 q 292 681 267 640 q 342 754 317 721 q 449 847 399 813 q 543 901 500 882 q 594 928 571 918 q 633 931 618 938 q 765 863 711 914 q 838 714 819 811 q 849 603 847 653 q 842 506 851 554 q 806 401 832 458 q 735 268 781 344 q 610 80 678 156 q 476 -35 543 4 q 348 -77 408 -74 q 246 -49 288 -81 m 357 43 q 409 56 389 47 q 451 88 429 64 q 514 157 474 111 q 574 228 550 199 q 616 288 599 257 q 649 360 633 318 q 685 469 665 403 q 701 531 696 511 q 707 565 706 551 q 708 603 708 579 q 707 678 707 628 q 697 731 706 701 q 678 774 689 761 q 636 800 664 789 q 578 797 608 811 q 536 769 561 790 q 485 718 511 747 q 435 660 458 689 q 397 607 411 631 q 383 574 383 583 q 383 567 383 574 q 376 553 382 560 q 339 489 358 533 q 303 388 319 444 q 275 274 286 331 q 261 171 264 217 q 261 133 261 149 q 265 106 261 118 q 276 81 268 94 q 310 53 285 67 q 357 43 336 39 z "},"Ǿ":{"ha":689,"x_min":108,"x_max":910,"o":"m 169 -140 q 125 -119 142 -139 q 119 -56 108 -100 q 181 64 129 -11 q 201 92 192 79 q 213 115 210 106 q 239 157 218 124 q 290 237 260 190 q 355 334 321 283 q 419 430 389 385 q 469 505 449 475 q 492 538 489 535 q 504 544 497 536 q 514 561 511 551 q 526 584 518 572 q 542 597 535 596 q 551 612 544 604 q 558 625 557 619 q 565 635 560 631 q 571 644 569 639 q 613 692 585 658 q 672 769 640 726 q 735 852 704 811 q 785 922 765 893 q 808 958 806 951 q 838 971 815 979 q 862 974 842 974 q 888 972 882 974 q 890 966 888 972 q 901 944 893 960 q 908 912 910 931 q 900 878 907 893 q 883 847 894 860 q 847 814 871 835 q 782 749 824 793 q 743 708 761 725 q 725 685 725 690 q 721 677 722 679 q 710 660 719 675 q 685 631 701 651 q 651 589 668 611 q 622 550 635 567 q 610 531 610 533 q 605 521 607 526 q 594 513 603 515 q 587 508 590 515 q 583 500 583 500 q 572 477 583 494 q 540 436 560 460 q 496 371 525 414 q 430 272 467 328 q 354 158 393 217 q 282 48 315 100 q 226 -40 249 -4 q 200 -89 204 -76 q 185 -128 190 -119 q 169 -140 181 -137 m 246 -49 q 165 22 194 -11 q 132 85 135 54 q 133 153 129 110 q 142 238 136 196 q 151 300 147 279 q 158 319 158 307 q 157 331 157 331 q 167 367 156 338 q 188 444 178 397 q 241 584 215 528 q 292 681 267 640 q 342 754 317 721 q 449 847 399 813 q 543 901 500 882 q 594 928 571 918 q 633 931 618 938 q 765 863 711 914 q 838 714 819 811 q 849 603 847 653 q 842 506 851 554 q 806 401 832 458 q 735 268 781 344 q 610 80 678 156 q 476 -35 543 4 q 348 -77 408 -74 q 246 -49 288 -81 m 357 43 q 409 56 389 47 q 451 88 429 64 q 514 157 474 111 q 574 228 550 199 q 616 288 599 257 q 649 360 633 318 q 685 469 665 403 q 701 531 696 511 q 707 565 706 551 q 708 603 708 579 q 707 678 707 628 q 697 731 706 701 q 678 774 689 761 q 636 800 664 789 q 578 797 608 811 q 536 769 561 790 q 485 718 511 747 q 435 660 458 689 q 397 607 411 631 q 383 574 383 583 q 383 567 383 574 q 376 553 382 560 q 339 489 358 533 q 303 388 319 444 q 275 274 286 331 q 261 171 264 217 q 261 133 261 149 q 265 106 261 118 q 276 81 268 94 q 310 53 285 67 q 357 43 336 39 m 658 992 q 644 1016 649 1001 q 640 1065 639 1031 q 659 1093 642 1072 q 701 1140 676 1114 q 750 1188 725 1167 q 790 1214 775 1208 q 828 1200 808 1221 q 850 1147 849 1179 q 838 1119 853 1136 q 799 1083 822 1101 q 753 1045 775 1064 q 719 1011 731 1026 q 690 985 706 989 q 658 992 674 982 z "},"Õ":{"ha":689,"x_min":138,"x_max":943,"o":"m 254 -49 q 173 22 203 -11 q 140 85 143 54 q 141 153 138 110 q 150 238 144 196 q 160 300 156 279 q 166 319 167 307 q 165 331 165 331 q 175 367 164 338 q 196 444 186 397 q 249 584 224 528 q 300 681 275 640 q 350 754 325 721 q 458 847 407 813 q 551 901 508 882 q 603 928 579 918 q 642 931 626 938 q 774 863 719 914 q 846 714 828 811 q 858 603 856 653 q 850 506 860 554 q 815 401 840 458 q 743 268 789 344 q 619 80 686 156 q 484 -35 551 4 q 356 -77 417 -74 q 254 -49 296 -81 m 365 43 q 417 56 397 47 q 460 88 438 64 q 522 157 482 111 q 583 228 558 199 q 624 288 607 257 q 658 360 642 318 q 693 469 674 403 q 709 531 704 511 q 715 565 714 551 q 716 603 717 579 q 715 678 715 628 q 706 731 714 701 q 686 774 697 761 q 644 800 672 789 q 586 797 617 811 q 544 769 569 790 q 493 718 519 747 q 443 660 467 689 q 406 607 419 631 q 392 574 392 583 q 391 567 392 574 q 385 553 390 560 q 347 489 367 533 q 311 388 328 444 q 283 274 294 331 q 269 171 272 217 q 269 133 269 149 q 273 106 269 118 q 285 81 276 94 q 319 53 293 67 q 365 43 344 39 m 786 1008 q 744 1019 767 1008 q 697 1051 722 1031 q 666 1077 685 1058 q 631 1096 647 1096 q 608 1085 617 1096 q 591 1063 599 1074 q 568 1049 583 1051 q 559 1030 564 1039 q 543 1028 554 1021 q 519 1042 529 1031 q 506 1079 510 1053 q 540 1140 517 1111 q 599 1186 564 1168 q 667 1186 643 1197 q 714 1151 692 1175 q 765 1121 747 1125 q 810 1128 783 1117 q 851 1146 831 1133 q 900 1169 871 1158 q 920 1164 910 1174 q 937 1140 931 1154 q 942 1118 943 1126 q 928 1087 940 1101 q 903 1065 915 1072 q 838 1029 861 1042 q 803 1013 814 1017 q 786 1008 792 1008 z "},"Œ":{"ha":1089,"x_min":143,"x_max":1367,"o":"m 838 -69 q 741 -62 774 -68 q 690 -44 708 -57 q 647 -12 672 -32 q 626 19 638 -6 q 608 54 614 44 q 588 39 601 51 q 567 21 574 26 q 533 -3 558 8 q 476 -22 508 -14 q 415 -34 444 -29 q 365 -39 385 -39 q 265 -4 311 -28 q 185 56 218 19 q 149 133 154 89 q 153 225 143 176 q 174 319 163 274 q 195 358 188 342 q 207 390 203 375 q 214 424 211 406 q 246 457 233 443 q 269 491 258 471 q 297 544 281 511 q 339 636 313 578 q 415 739 374 693 q 497 819 457 785 q 568 876 538 854 q 607 900 586 893 q 647 908 628 907 q 681 907 667 910 q 748 890 717 903 q 804 853 779 876 q 849 793 829 829 l 853 785 l 867 818 q 878 844 868 829 q 903 865 889 860 q 987 890 936 878 q 1090 910 1038 901 q 1176 917 1142 918 q 1263 915 1232 919 q 1311 900 1293 910 q 1346 875 1329 890 q 1364 851 1361 864 q 1367 839 1367 839 q 1334 814 1365 818 q 1257 810 1303 810 q 1151 803 1206 810 q 1057 790 1097 796 q 1023 783 1038 785 q 1008 782 1008 782 q 993 771 1003 782 q 973 742 983 760 q 954 705 963 725 q 943 667 946 685 q 923 626 943 653 q 894 579 903 600 q 885 554 888 568 q 896 535 883 540 q 956 544 918 539 q 1032 552 994 549 q 1090 556 1069 556 q 1125 555 1111 558 q 1146 547 1139 551 q 1165 531 1163 544 q 1162 503 1168 517 q 1144 483 1156 489 q 1105 465 1136 475 q 1031 443 1074 454 q 945 423 988 432 q 872 409 903 414 q 836 406 842 404 q 815 404 825 421 q 792 325 806 388 q 760 242 769 282 q 739 136 750 201 q 763 79 740 100 q 808 50 786 58 q 872 51 839 49 q 950 64 904 53 q 1000 93 975 79 q 1035 113 1025 107 q 1056 118 1042 113 q 1075 124 1069 124 q 1086 135 1081 131 q 1101 140 1092 140 q 1122 126 1108 140 q 1147 93 1136 113 q 1157 54 1158 74 q 1126 25 1157 40 q 1026 -18 1096 10 q 965 -45 992 -33 q 910 -63 939 -57 q 838 -69 882 -69 m 663 769 q 605 759 643 776 q 519 679 567 742 q 500 643 514 658 q 469 610 486 628 q 438 561 453 592 q 376 442 403 504 q 330 328 349 379 q 300 250 311 276 q 289 209 294 225 q 282 172 283 193 q 299 126 283 143 q 329 96 315 110 q 346 91 333 93 q 374 88 358 89 q 397 89 389 88 q 440 89 419 88 q 488 99 461 90 q 499 104 488 99 q 522 113 511 110 q 539 131 529 117 q 563 151 549 146 q 584 178 569 157 q 617 229 599 200 q 626 263 621 246 q 636 286 631 281 l 649 313 q 663 377 656 346 q 678 417 669 408 q 687 433 682 419 q 693 449 692 446 q 695 462 693 449 q 703 489 697 475 q 717 515 714 508 q 721 526 721 521 q 731 541 724 532 q 740 558 738 550 l 760 600 q 763 628 760 606 q 754 665 765 651 q 734 729 746 704 q 705 765 722 754 q 663 769 688 775 z "},"P":{"ha":650,"x_min":104,"x_max":857,"o":"m 160 -79 q 132 -61 143 -79 q 114 -35 124 -53 q 108 24 104 -17 q 138 144 111 65 q 160 222 151 197 q 168 257 168 246 q 172 283 168 272 q 175 303 175 293 q 192 318 183 303 q 206 360 200 333 q 216 398 211 383 q 221 418 221 413 q 235 453 228 429 q 260 510 243 476 q 285 597 271 551 q 313 681 299 642 q 338 743 328 721 q 361 803 353 786 q 361 826 369 821 q 352 862 351 833 q 378 911 353 890 q 417 937 393 929 q 471 944 440 944 q 535 942 501 944 q 588 940 560 940 q 624 940 617 940 q 654 928 636 935 q 687 915 672 921 q 701 904 701 908 q 708 894 701 896 q 721 890 714 892 q 753 873 731 890 q 798 831 775 856 q 831 783 821 807 q 849 739 842 760 q 850 679 857 718 q 844 638 849 658 q 833 610 839 617 q 818 596 825 604 q 811 581 811 588 q 800 553 811 575 q 772 505 789 532 q 736 451 756 478 q 700 410 717 425 q 658 368 682 388 q 614 336 633 349 q 531 304 578 319 q 442 280 485 289 q 372 272 399 271 q 319 262 332 267 q 301 238 307 257 q 288 200 294 219 q 282 172 282 181 q 270 142 279 167 q 249 83 261 117 q 228 17 238 50 q 213 -40 218 -17 q 190 -69 207 -60 q 160 -79 172 -79 m 357 385 q 393 383 363 379 q 467 404 424 388 q 523 428 494 414 q 578 458 551 442 q 607 483 592 468 q 650 532 622 497 q 665 559 654 539 q 683 597 675 579 q 708 655 696 617 q 714 718 721 693 q 686 778 707 754 q 633 814 665 803 q 583 821 603 819 q 539 818 563 822 q 508 799 517 811 q 482 746 499 786 q 454 692 472 726 q 424 624 436 658 q 380 483 399 532 q 356 419 361 435 q 354 398 357 404 q 357 385 351 392 z "},"Þ":{"ha":656,"x_min":104,"x_max":810,"o":"m 171 -121 q 149 -110 164 -117 q 121 -94 133 -104 q 107 -72 108 -85 q 105 -60 106 -68 q 108 -32 104 -51 q 121 21 113 -12 q 131 56 122 25 q 153 128 140 86 q 178 211 165 171 q 199 278 190 251 q 210 300 208 304 q 219 329 211 307 q 232 357 226 351 q 240 390 233 369 q 255 428 246 410 q 272 454 264 447 q 279 482 272 463 q 296 523 286 501 q 314 560 306 544 q 324 575 322 575 q 326 583 324 575 q 342 610 328 592 q 344 624 342 610 q 357 646 346 638 q 364 674 363 667 q 360 685 365 682 q 382 722 347 721 q 401 746 390 722 q 407 753 404 751 q 442 846 425 800 q 469 924 458 892 q 479 963 479 956 q 500 979 479 974 q 532 985 521 985 q 542 990 536 989 q 554 992 549 992 l 576 969 q 590 947 588 960 q 592 918 592 935 q 590 892 592 901 q 578 862 588 882 q 546 793 569 842 q 578 799 565 796 q 592 801 592 801 q 642 799 611 801 q 692 792 674 796 q 772 724 742 768 q 807 647 803 679 q 801 595 810 631 q 780 519 793 560 q 751 447 767 479 q 724 406 736 415 q 718 390 731 407 q 687 356 706 374 q 658 336 668 339 q 649 319 658 336 q 621 292 639 301 q 585 269 604 282 q 556 239 567 256 q 549 247 556 250 q 533 235 542 243 q 519 225 525 228 q 399 176 457 188 q 377 169 392 171 q 349 168 363 168 l 301 175 l 279 117 q 258 39 269 74 q 238 -37 247 4 q 220 -83 233 -62 q 192 -115 207 -104 q 171 -121 178 -126 m 350 290 q 461 313 418 289 q 542 372 504 336 q 569 401 551 382 q 605 444 586 421 q 636 485 624 467 q 665 546 656 513 q 674 608 674 579 q 668 650 675 638 q 624 678 653 674 q 565 675 596 682 q 510 654 533 668 q 488 626 503 651 q 455 561 474 600 q 417 478 436 522 q 381 394 397 435 q 357 326 365 354 q 350 290 349 297 z "},"Q":{"ha":683,"x_min":142,"x_max":846,"o":"m 326 -119 q 275 -97 306 -115 q 219 -56 244 -79 q 183 -12 193 -32 q 145 138 149 58 q 165 332 142 218 q 184 396 172 356 q 210 476 196 436 q 235 544 224 517 q 249 572 246 572 q 253 596 253 576 q 265 626 253 603 q 295 678 276 649 q 334 734 314 707 q 372 776 354 761 q 435 848 400 813 q 506 901 471 883 q 535 914 514 907 q 581 926 557 921 q 621 933 606 932 q 735 912 690 938 q 807 832 781 886 q 838 769 835 801 q 846 696 840 736 q 838 608 846 658 q 818 508 831 557 q 790 426 806 458 q 761 393 775 393 q 757 392 761 393 q 753 385 753 392 q 747 341 756 375 q 718 267 739 307 q 608 52 674 142 q 469 -83 542 -37 q 326 -119 396 -128 m 613 -175 q 561 -165 590 -176 q 526 -136 532 -154 q 517 -120 517 -128 q 514 -110 517 -112 q 499 -95 508 -107 q 485 -68 489 -83 q 456 -12 475 -49 q 417 65 438 25 q 380 134 396 104 q 361 168 364 164 q 364 196 350 179 q 393 227 371 213 q 442 235 415 242 q 500 168 474 235 q 513 135 501 161 q 538 83 524 108 q 560 50 551 57 q 575 15 567 35 q 593 -17 583 -4 q 611 -50 597 -32 q 631 -87 625 -68 q 656 -157 663 -137 q 613 -175 649 -176 m 347 0 q 456 62 406 8 q 553 207 507 115 q 640 417 599 299 q 672 493 653 451 q 706 585 690 535 q 721 693 721 636 q 715 777 729 754 q 668 815 701 800 q 575 811 624 832 q 480 733 526 790 q 393 578 433 675 q 306 367 336 457 q 269 208 276 278 q 276 76 263 139 q 296 12 279 33 q 347 0 313 -10 z "},"R":{"ha":756,"x_min":103,"x_max":928,"o":"m 222 -83 q 185 -97 217 -97 q 129 -79 153 -97 q 108 -53 113 -62 q 113 -23 103 -44 q 146 53 122 -1 q 165 120 151 86 q 186 168 179 154 q 209 233 192 188 q 249 333 226 278 q 293 438 272 389 q 324 513 314 488 q 372 629 347 568 q 440 783 397 690 q 436 813 446 797 q 403 828 426 828 q 388 860 389 843 q 401 885 386 878 l 529 928 q 663 937 594 943 q 793 899 732 931 q 890 813 860 860 q 924 717 921 765 q 913 631 928 669 q 870 567 901 601 q 798 497 839 532 q 713 434 757 463 q 632 390 669 406 q 554 356 597 374 q 471 326 511 339 q 418 321 449 321 q 372 326 388 321 l 349 282 q 301 133 335 232 q 222 -83 267 35 m 774 -110 q 737 -112 763 -114 q 679 -90 711 -111 q 557 -3 618 -54 q 419 136 496 49 q 376 206 390 171 q 339 293 361 240 l 319 368 l 372 403 l 433 353 q 485 260 456 304 q 546 181 515 215 q 614 110 571 151 q 706 32 657 69 q 793 -25 754 -6 q 798 -52 801 -32 q 787 -90 794 -72 q 774 -110 779 -108 m 424 435 q 494 452 456 438 q 575 485 532 467 q 655 527 615 504 q 727 578 694 550 q 778 638 760 606 q 794 706 797 669 q 783 746 794 724 q 755 786 772 768 q 719 810 738 804 q 635 826 664 824 q 592 818 606 829 q 572 779 579 807 q 561 753 572 775 q 534 697 550 731 q 503 624 518 663 q 444 503 463 542 q 422 453 425 465 q 424 435 418 440 z "},"Ŕ":{"ha":692,"x_min":103,"x_max":928,"o":"m 222 -83 q 185 -97 217 -97 q 129 -79 153 -97 q 108 -53 113 -62 q 113 -23 103 -44 q 146 53 122 -1 q 165 120 151 86 q 186 168 179 154 q 209 233 192 188 q 249 333 226 278 q 293 438 272 389 q 324 513 314 488 q 372 629 347 568 q 440 783 397 690 q 436 813 446 797 q 403 828 426 828 q 388 860 389 843 q 401 885 386 878 l 529 928 q 663 937 594 943 q 793 899 732 931 q 890 813 860 860 q 924 717 921 765 q 913 631 928 669 q 870 567 901 601 q 798 497 839 532 q 713 434 757 463 q 632 390 669 406 q 554 356 597 374 q 471 326 511 339 q 418 321 449 321 q 372 326 388 321 l 349 282 q 301 133 335 232 q 222 -83 267 35 m 774 -110 q 737 -112 763 -114 q 679 -90 711 -111 q 557 -3 618 -54 q 419 136 496 49 q 376 206 390 171 q 339 293 361 240 l 319 368 l 372 403 l 433 353 q 485 260 456 304 q 546 181 515 215 q 614 110 571 151 q 706 32 657 69 q 793 -25 754 -6 q 798 -52 801 -32 q 787 -90 794 -72 q 774 -110 779 -108 m 424 435 q 494 452 456 438 q 575 485 532 467 q 655 527 615 504 q 727 578 694 550 q 778 638 760 606 q 794 706 797 669 q 783 746 794 724 q 755 786 772 768 q 719 810 738 804 q 635 826 664 824 q 592 818 606 829 q 572 779 579 807 q 561 753 572 775 q 534 697 550 731 q 503 624 518 663 q 444 503 463 542 q 422 453 425 465 q 424 435 418 440 m 631 992 q 616 1016 621 1001 q 613 1065 611 1031 q 631 1093 614 1072 q 673 1140 649 1114 q 722 1188 697 1167 q 763 1214 747 1208 q 801 1200 781 1221 q 822 1147 821 1179 q 810 1119 825 1136 q 771 1083 794 1101 q 725 1045 747 1064 q 692 1011 703 1026 q 662 985 678 989 q 631 992 646 982 z "},"Ř":{"ha":692,"x_min":103,"x_max":928,"o":"m 222 -83 q 185 -97 217 -97 q 129 -79 153 -97 q 108 -53 113 -62 q 113 -23 103 -44 q 146 53 122 -1 q 165 120 151 86 q 186 168 179 154 q 209 233 192 188 q 249 333 226 278 q 293 438 272 389 q 324 513 314 488 q 372 629 347 568 q 440 783 397 690 q 436 813 446 797 q 403 828 426 828 q 388 860 389 843 q 401 885 386 878 l 529 928 q 663 937 594 943 q 793 899 732 931 q 890 813 860 860 q 924 717 921 765 q 913 631 928 669 q 870 567 901 601 q 798 497 839 532 q 713 434 757 463 q 632 390 669 406 q 554 356 597 374 q 471 326 511 339 q 418 321 449 321 q 372 326 388 321 l 349 282 q 301 133 335 232 q 222 -83 267 35 m 774 -110 q 737 -112 763 -114 q 679 -90 711 -111 q 557 -3 618 -54 q 419 136 496 49 q 376 206 390 171 q 339 293 361 240 l 319 368 l 372 403 l 433 353 q 485 260 456 304 q 546 181 515 215 q 614 110 571 151 q 706 32 657 69 q 793 -25 754 -6 q 798 -52 801 -32 q 787 -90 794 -72 q 774 -110 779 -108 m 424 435 q 494 452 456 438 q 575 485 532 467 q 655 527 615 504 q 727 578 694 550 q 778 638 760 606 q 794 706 797 669 q 783 746 794 724 q 755 786 772 768 q 719 810 738 804 q 635 826 664 824 q 592 818 606 829 q 572 779 579 807 q 561 753 572 775 q 534 697 550 731 q 503 624 518 663 q 444 503 463 542 q 422 453 425 465 q 424 435 418 440 m 714 1000 q 688 989 703 992 q 653 1003 672 986 q 612 1042 639 1017 q 561 1092 585 1067 q 531 1131 538 1118 q 538 1174 525 1154 q 572 1197 550 1194 q 617 1174 594 1200 q 647 1141 626 1160 q 690 1103 668 1122 q 732 1128 707 1113 q 779 1160 757 1144 q 811 1185 801 1176 q 851 1191 836 1200 q 872 1163 867 1182 q 869 1131 876 1144 q 850 1108 868 1125 q 807 1069 832 1090 q 757 1028 782 1047 q 714 1000 732 1010 z "}}}
